<?xml version="1.0" encoding="UTF-8" standalone="no"?>
<!-- Created with Inkscape (http://www.inkscape.org/) -->

<svg
   xmlns:dc="http://purl.org/dc/elements/1.1/"
   xmlns:cc="http://creativecommons.org/ns#"
   xmlns:rdf="http://www.w3.org/1999/02/22-rdf-syntax-ns#"
   xmlns:svg="http://www.w3.org/2000/svg"
   xmlns="http://www.w3.org/2000/svg"
   xmlns:sodipodi="http://sodipodi.sourceforge.net/DTD/sodipodi-0.dtd"
   xmlns:inkscape="http://www.inkscape.org/namespaces/inkscape"
   width="300mm"
   height="400mm"
   viewBox="0 0 300 400"
   version="1.1"
   id="svg2904"
   inkscape:version="0.92.5 (2060ec1f9f, 2020-04-08)"
   sodipodi:docname="Flower3.svg"
   inkscape:export-filename="/mnt/34C9D8B93223F7D0/Projets/MahjongSolitaire/AssetsPreparation/Tiles/Tilesets/riichi-mahjong-tiles/Export/Regular/Flower3.png"
   inkscape:export-xdpi="50.799999"
   inkscape:export-ydpi="50.799999">
  <defs
     id="defs2898" />
  <sodipodi:namedview
     id="base"
     pagecolor="#ffffff"
     bordercolor="#666666"
     borderopacity="1.0"
     inkscape:pageopacity="0.0"
     inkscape:pageshadow="2"
     inkscape:zoom="0.48746858"
     inkscape:cx="489.6093"
     inkscape:cy="754.72141"
     inkscape:document-units="mm"
     inkscape:current-layer="g3484"
     showgrid="false"
     inkscape:window-width="1680"
     inkscape:window-height="979"
     inkscape:window-x="1680"
     inkscape:window-y="40"
     inkscape:window-maximized="1" />
  <metadata
     id="metadata2901">
    <rdf:RDF>
      <cc:Work
         rdf:about="">
        <dc:format>image/svg+xml</dc:format>
        <dc:type
           rdf:resource="http://purl.org/dc/dcmitype/StillImage" />
        <dc:title />
      </cc:Work>
    </rdf:RDF>
  </metadata>
  <g
     inkscape:label="Calque 1"
     inkscape:groupmode="layer"
     id="layer1"
     transform="translate(0,103)">
    <g
       id="g3484">
      <path
         style="fill:#000002;fill-opacity:1;stroke-width:1.38207126"
         d="m 91.883006,-66.314542 c -3.568856,-0.02495 -7.390037,1.948184 -11.320898,5.879045 -4.052677,4.052678 -4.61802,5.498121 -4.61802,11.812533 0,5.745413 -0.729104,8.060995 -3.620309,11.496999 -3.291231,3.911404 -3.543462,5.038694 -2.774257,12.398047 0.754227,7.216074 0.472063,8.586482 -2.598713,12.612478 -5.811071,7.6187058 -4.395635,11.85254553 4.753012,14.2145905 7.024086,1.813518 6.803589,4.247572 -0.563296,6.217913 C 58.045867,11.819353 51.626024,22.539166 58.504161,29.4173 c 1.921539,1.92154 3.988363,3.49073 4.59302,3.48643 3.844213,-0.02695 12.981366,-3.673752 17.706023,-7.066742 6.539117,-4.696039 13.805153,-7.064996 18.636509,-6.076254 6.147277,1.25804 7.541837,-0.839951 5.635177,-8.47665 -0.92079,-3.6880245 -3.18747,-9.4266885 -5.03688,-12.7530237 -3.77792,-6.794909 -3.862818,-7.0817432 -2.099302,-7.0817432 0.69472,0 3.545972,4.0821523 6.336232,9.07160943 2.79027,4.98945797 6.01935,9.43451697 7.17563,9.87821747 1.15627,0.443706 5.92327,-0.5159625 10.59372,-2.1326315 4.67046,-1.61667 11.60159,-3.608875 15.40229,-4.426924 9.12015,-1.962989 13.41597,-4.8438182 12.86857,-8.6305235 -0.31482,-2.1778321 -1.85458,-3.3116275 -5.74183,-4.2269361 -4.69132,-1.1046279 -5.23463,-1.6536959 -4.65246,-4.6991269 0.70788,-3.703082 -3.01471,-8.654412 -6.50623,-8.654412 -1.07718,0 -4.96407,-1.28964 -8.63774,-2.865916 l -6.67955,-2.866474 4.87578,-4.472474 c 11.6152,-10.654979 13.57289,-16.389522 7.62559,-22.336818 -4.60374,-4.603746 -10.84648,-4.384542 -20.94413,0.736061 -4.47792,2.270788 -8.26327,4.136711 -8.41165,4.146384 -0.14839,0.0096 -0.45938,-2.916251 -0.69107,-6.502335 -0.34466,-5.334746 -1.067147,-6.881041 -3.972505,-8.50498 -1.504564,-0.840969 -3.074138,-1.26524 -4.696349,-1.27658 z M 245.20705,2.7824395 c -2.2767,-0.06505 -3.55605,1.214851 -7.50171,4.511361 -3.15205,2.63347 -8.03054,5.2083575 -10.84149,5.7218335 -2.81093,0.513478 -6.6143,1.492728 -8.45165,2.175963 l -3.34088,1.242139 2.99535,2.097635 c 1.71888,1.203949 2.99535,3.575668 2.99535,5.565734 0,1.907219 0.70648,4.788551 1.57045,6.4029 0.86398,1.614348 2.04446,7.248492 2.62316,12.520261 1.66362,15.155299 7.91956,20.630333 17.75879,15.542279 6.0645,-3.13608 8.93153,-2.675544 12.38083,1.989867 1.80984,2.44794 4.32194,4.144467 6.13347,4.140275 2.52513,-0.0052 24.11849,-7.580997 25.62606,-8.990503 0.24463,-0.228738 -0.56922,-3.429001 -1.80878,-7.111738 -2.56116,-7.609209 -12.00097,-18.133862 -21.09468,-23.519518 -6.01257,-3.560877 -6.98266,-6.14193 -4.5858,-12.199728 1.73707,-4.3902485 0.28795,-6.0548185 -7.21063,-8.2816625 -3.66547,-1.088526 -5.69009,-1.762591 -7.24784,-1.807098 z M 39.7321,35.912416 c -4.416659,0.06964 -8.861248,1.459161 -11.534219,3.970285 -4.674727,4.391678 -5.443245,10.608467 -2.787588,22.54514 2.160251,9.709908 4.363303,13.379985 9.071606,15.111195 6.931458,2.548666 16.480806,-1.125282 20.709707,-7.967792 C 61.02559,60.131671 57.105972,42.30062 48.182636,37.686183 45.763043,36.434962 42.754024,35.864764 39.7321,35.912416 Z M 71.147075,164.64365 c -1.667482,-0.0289 -2.88458,0.43197 -3.871405,1.41879 -1.806025,1.80604 -1.646616,2.67649 1.357687,7.43561 8.55525,13.5524 5.821216,19.32384 -10.07765,21.27466 -15.605416,1.91486 -23.480631,4.05377 -23.480631,6.37792 0,2.26587 6.039069,1.78662 21.85352,-1.73488 16.899493,-3.76314 21.839108,-2.13677 17.978779,5.92014 -1.583824,3.30562 -2.942077,4.01733 -9.113824,4.77245 -13.021302,1.59324 -19.990322,9.61875 -16.209458,18.66762 1.515511,3.62722 1.514075,4.81791 -0.0078,6.99063 -2.268274,3.23844 -4.038101,12.14652 -2.808699,14.13574 1.309929,2.1195 3.245835,1.86659 14.164595,-1.84712 13.102534,-4.45646 16.179241,-6.7035 21.92629,-16.01447 l 4.894112,-7.92835 11.482002,-0.71661 c 6.315307,-0.39399 13.276857,-1.57219 15.469507,-2.61816 8.51553,-4.06214 4.24051,-15.42705 -6.63455,-17.63823 -3.48632,-0.70888 -4.69832,-1.74506 -5.06855,-4.33305 -0.59928,-4.18924 -8.465176,-12.04077 -13.993494,-13.96795 -3.096235,-1.07936 -4.306504,-2.54162 -4.951884,-5.9818 -1.379929,-7.35566 -5.433863,-12.79708 -10.334856,-13.87352 -0.964744,-0.21189 -1.815767,-0.3263 -2.573715,-0.33942 z m -24.025592,12.19528 c -2.323907,-0.0342 -4.880963,0.39277 -7.464494,1.36104 -4.513767,1.69167 -19.78477,16.26761 -19.78477,18.88426 0,1.89695 5.30805,2.39455 7.609485,0.71328 0.764464,-0.55847 3.172413,-3.40585 5.351303,-6.32735 3.753254,-5.03247 4.262156,-5.26664 9.667122,-4.45247 12.866808,1.93813 13.962721,1.77108 14.4218,-2.1954 0.554871,-4.79407 -3.861572,-7.89587 -9.800446,-7.98336 z m 77.564297,5.83297 c -1.9494,-0.0106 -3.15158,0.32695 -3.99528,1.02717 -1.73324,1.43845 -1.26342,2.47834 3.217,7.12451 5.23036,5.42385 5.27295,5.43804 13.81517,4.67356 5.12436,-0.45858 11.35548,-2.17892 15.50229,-4.28026 9.67596,-4.9032 13.20478,-4.57011 19.627,1.8521 6.97543,6.97544 7.36585,13.22369 1.21936,19.51145 -2.28041,2.33285 -4.14639,4.85744 -4.14639,5.61017 0,2.82465 7.22409,4.22616 14.13905,2.74317 11.90576,-2.55334 14.63478,-2.02508 17.87156,3.46085 1.87706,3.18136 5.62309,6.32622 10.66428,8.95163 7.74008,4.03093 15.36515,4.90119 16.35944,1.86708 0.28003,-0.85447 -1.10355,-3.47024 -3.07479,-5.81294 -3.3999,-4.04054 -3.47007,-4.43384 -1.36601,-7.64503 2.02162,-3.08542 2.02621,-3.84387 0.0522,-8.56831 -1.93497,-4.63107 -1.94289,-5.42973 -0.0733,-7.4956 3.10361,-3.42943 2.54214,-6.51888 -1.36269,-7.49893 -1.90035,-0.47698 -3.45477,-1.47753 -3.45477,-2.22318 0,-3.88101 -4.64291,-0.43411 -8.41276,6.2457 -3.904,6.91747 -4.71901,7.60114 -9.06105,7.60114 -3.38433,0 -5.75659,-1.06306 -8.16056,-3.65696 -1.86406,-2.01137 -3.38921,-4.21464 -3.38921,-4.89635 0,-1.98836 -12.71009,-15.01461 -16.54166,-16.95331 -3.2588,-1.64884 -12.38159,-1.7008 -29.75798,-0.16886 -3.04057,0.26807 -9.15265,-0.10055 -13.58241,-0.8194 -2.60414,-0.42257 -4.57228,-0.64115 -6.08848,-0.6494 z"
         id="path3488"
         inkscape:connector-curvature="0"
         sodipodi:nodetypes="ssssssssscscscsscsscccscccssccssssccccsccccccssscscsscsscccscsccccccscccccccscccccscccccccsccccscccccccccscscsccccc" />
      <path
         style="fill:#b93c3c;fill-opacity:1;stroke-width:1.38207138"
         d="m 174.98374,8.4901035 c -10.52409,0.595953 -19.30665,8.2678655 -24.91758,16.6665465 -1.25077,2.139313 -2.37574,4.358332 -3.83632,6.368611 -5.16245,-6.569977 -10.08662,-15.508579 -19.26953,-16.601563 -10.28101,-0.647532 -18.4727,7.819442 -22.28516,16.615234 -0.91216,1.941299 -2.73285,5.266305 -5.298828,3.517579 -7.539904,-2.615574 -16.464364,-2.623506 -23.585937,1.253906 -5.090873,2.819882 -8.091375,8.399006 -8.133348,14.158048 -0.861647,6.766946 0.377746,13.431065 2.203661,19.824374 -0.684275,2.278024 -3.893544,1.807985 -5.619141,2.80664 -5.97653,1.490947 -13.948876,3.008417 -15.921875,9.894532 -2.559171,6.42587 -3.141865,14.410849 1.729625,19.968669 4.363318,6.10692 11.102189,9.83488 17.061391,14.05672 0.333396,2.18253 -3.058484,2.29105 -4.152344,3.66602 -7.571609,4.88406 -13.810881,12.57657 -15.533203,21.53711 -1.00903,6.9635 6.339404,11.55604 12.339237,12.14218 11.228279,1.22397 23.795576,1.74042 33.453731,-5.10703 -0.634213,6.44621 -1.043716,13.97863 4.066407,18.88867 4.121514,4.58454 10.732694,5.81184 16.462894,4.24414 7.44943,-1.29491 13.8541,-5.95332 17.48919,-12.53858 1.54271,-2.19994 3.099,-4.38843 4.70417,-6.54345 3.19013,6.64839 5.64729,15.39097 13.27148,18.27344 5.48891,1.99448 12.04033,-0.0933 15.23052,-5.0128 2.6502,-2.89159 5.02308,-6.07645 6.69721,-9.63759 5.49791,6.43581 16.10453,10.61313 23.5254,4.94922 5.50631,-3.94752 7.79539,-10.86341 7.16231,-17.45463 0.0853,-4.82279 -0.36636,-9.63238 -0.51388,-14.44967 6.73178,-2.75958 14.18935,-1.68854 21.24674,-2.68136 5.37942,-0.0408 12.38749,-1.29759 14.13412,-7.32645 1.57485,-4.01715 -0.57724,-8.13275 -3.71679,-10.64063 -5.33788,-5.15793 -12.44278,-7.72218 -18.55665,-11.8164 7.56211,-6.20345 17.96261,-11.19166 20.36329,-21.572267 1.37568,-6.14131 -3.03896,-12.498474 -9.21478,-13.587623 -4.31292,-1.431768 -8.8621,-1.639789 -13.35358,-1.304955 3.20833,-6.85647 8.78082,-12.784363 10.23437,-20.351563 0.34407,-4.282748 0.21658,-9.393449 -3.85156,-11.96875 -4.68051,-3.696767 -10.85225,-1.722627 -15.67578,0.455079 -5.80734,2.587544 -10.94748,6.383586 -16.27344,9.800781 -0.079,-8.94773 2.86681,-18.806223 -1.92969,-26.878906 -2.31191,-3.0666095 -6.08316,-3.9308215 -9.73633,-3.6132825 z m -0.28906,8.3027355 c 4.77783,3.919818 2.61892,10.786506 2.05945,15.979263 -2.75736,13.168833 -6.74704,26.258898 -13.08679,38.153549 -1.87879,2.665522 -5.6676,3.226029 -8.34766,1.492188 -3.48007,-1.051145 -7.44273,-3.514855 -11.06445,-2.050781 -1.07013,2.36352 2.2711,2.336681 3.49219,3.326171 5.86719,3.643096 11.21994,9.642182 10.74804,16.996091 0.31572,3.22294 -1.74238,6.11728 -1.61328,9.22461 0.49094,2.61221 3.43739,3.79367 5.72071,3.09766 0.93376,1.66963 -1.61713,3.42455 -1.0625,5.34961 1.48632,4.55163 7.30082,4.54681 11.01171,6.30469 8.18758,2.56185 14.22053,9.54053 17.96485,16.99023 2.64191,5.76851 3.84534,12.58506 2.19531,18.77148 -2.08772,4.91139 -9.12458,4.81539 -12.84211,1.92259 -3.13511,-2.86559 -7.63491,-5.2475 -8.40789,-9.8054 -1.65256,-8.82651 -4.11546,-17.51802 -7.27097,-25.91036 -1.53858,-4.25254 -4.39006,-10.06809 -9.80911,-9.26933 -4.2283,1.10185 -3.20656,6.57628 -1.26562,9.2793 5.5094,8.09537 7.41363,17.92053 9.9375,27.20508 1.21361,6.22108 -0.27715,14.25096 -6.83594,16.84375 -4.61008,1.58017 -8.0497,-3.12204 -9.99805,-6.625 -3.32327,-5.69578 -3.2739,-12.56047 -2.07658,-18.8392 0.40519,-7.84734 1.01458,-16.13596 5.54338,-22.84635 2.0693,-4.86996 0.0254,-11.68412 -4.88867,-13.94336 -3.01186,-1.01171 -3.7755,2.62192 -3.82227,4.81055 -0.40699,3.82706 -5.32299,3.45406 -7.79101,1.94922 -5.3678,-2.76886 -7.56551,-9.55426 -5.57149,-15.13018 0.56663,-3.023718 2.4601,-7.465199 -1.32109,-9.133493 -4.22691,-1.711235 -5.13959,-6.484551 -7.11475,-10.083619 -3.74551,-9.465553 -8.89923,-19.091485 -8.36005,-29.559492 0.24916,-6.792746 5.24575,-12.291416 10.58613,-15.909624 3.37907,-2.291404 7.75844,-0.939829 10.29882,1.949219 6.84665,6.016047 9.31152,15.724094 7.62745,24.49941 -0.64833,4.837819 -2.63642,10.519922 0.31396,14.879497 3.32539,1.25607 4.89779,-3.433531 5.80859,-5.824219 4.66307,-12.414417 6.99871,-27.035748 17.93057,-35.859708 3.45184,-3.080002 6.90367,-6.269729 11.04014,-8.423495 z m 32.19727,22.964843 c 1.5301,2.396294 -1.13482,5.042038 -1.79032,7.326249 -7.08326,13.349448 -19.35484,22.808762 -30.78,32.242111 -1.38365,1.019845 -4.19309,3.033422 -5.30273,1.380859 -0.18875,-3.854398 3.12845,-6.818611 4.58859,-10.16543 7.79159,-12.861611 17.81332,-26.228846 32.74735,-30.95371 l 0.32226,-0.08398 z M 95.569682,47.962761 c 5.638308,1.466701 6.132118,8.282572 8.075158,12.776597 3.07194,10.02365 8.4036,19.102934 14.03893,27.841929 1.65111,4.928053 1.45966,10.550753 0.005,15.418583 -3.34904,3.50045 -8.71746,3.54726 -13.17187,4.14648 -14.2178,0.59168 -28.362042,-3.9316 -40.509768,-11.0957 -3.208303,-2.05857 -6.105454,-6.93908 -2.923828,-10.261718 3.643302,-3.586717 9.074773,-4.105582 13.722656,-5.55664 4.117558,0.141203 6.252817,4.499782 9.728516,6.140625 8.879306,6.312523 18.332654,12.157343 28.662104,15.703123 3.303,0.47659 5.03441,-3.79299 2.8711,-6.08984 C 104.89703,85.299868 89.577797,77.731042 80.555745,63.956622 76.414073,59.32506 78.594369,50.888179 84.817234,49.466744 88.249824,48.23304 91.953493,47.948165 95.569682,47.962761 Z M 217.68492,72.579948 c 2.87873,-0.178183 2.754,3.623846 1.35742,5.230469 -4.68117,8.205246 -13.5328,12.756543 -21.57197,17.050503 -8.73556,4.21273 -18.56047,5.27418 -28.14189,4.82139 -2.12773,0.30729 -4.43121,1.07985 -1.71388,-1.43635 8.4359,-9.958948 20.85803,-15.139655 32.25586,-20.83984 5.65048,-2.467936 11.61865,-4.457481 17.81446,-4.826172 z m -75.58789,3.673828 c -4.22259,0.860483 -1.51801,9.08192 2.30664,6.429688 2.36926,-1.68154 1.63016,-5.54823 -1.23243,-6.240235 -0.33941,-0.13535 -0.70739,-0.215743 -1.07421,-0.189453 z m -8.09766,4.494141 c -4.06948,0.778234 -3.00269,7.959554 1.30664,7.058594 2.95941,-0.160723 4.15576,-4.330139 1.47461,-5.900391 -0.74685,-0.696123 -1.73799,-1.206438 -2.78125,-1.158203 z m 11.52344,6.373047 c -3.44549,-0.05834 -3.80788,5.351126 -0.37891,5.912106 3.10525,1.03991 6.94929,-3.998579 3.13867,-5.617184 -0.88535,-0.30855 -1.83372,-0.301675 -2.75976,-0.294922 z M 134.9564,91.1737 c -5.45126,0.26946 -4.2285,10.48742 1.29688,8.70508 3.67557,-1.00816 5.46807,-7.44726 0.84765,-8.47657 -0.69665,-0.19142 -1.42425,-0.25128 -2.14453,-0.22851 z m 64.23047,16.04492 c 7.28367,0.39247 16.03285,-0.84969 21.69922,4.82422 1.60612,3.14596 -2.58556,5.46454 -5.29633,5.04221 -11.17458,0.98265 -22.73022,-2.13981 -32.22516,-7.76487 -0.10406,-2.25633 3.39061,-1.5029 4.7461,-1.78711 3.67653,-0.37748 7.38381,-0.21447 11.07617,-0.31445 z m -79.21484,5.74609 c 2.70264,-0.26098 5.67226,3.58379 2.89843,5.49805 -9.9205,8.22016 -22.11041,12.96614 -33.691403,18.28711 -8.116212,3.11767 -16.747376,5.79462 -25.501953,5.66016 -3.322258,-0.91531 -3.49524,-5.56936 -1.09961,-7.59766 7.817003,-9.32575 20.389823,-12.32913 31.654287,-15.26192 7.782689,-1.79675 15.500759,-3.95778 23.068369,-6.44902 0.88684,-0.10984 1.78079,-0.10125 2.67188,-0.13672 z m 13.09765,12.47657 c 2.98328,1.13916 1.11448,4.97248 1.72656,7.25586 -0.54645,6.04716 -5.77183,10.10789 -8.42855,15.23982 -4.51574,6.17469 -10.76355,12.09557 -18.53629,13.47502 -4.28697,-0.18857 -6.03081,-5.15628 -5.39648,-8.82617 0.3434,-3.65798 1.35174,-7.41437 2.35547,-10.8125 8.65668,-5.042 17.94115,-9.21869 25.59765,-15.77149 0.82212,-0.39435 1.77023,-0.68288 2.68164,-0.56054 z"
         id="path3488-5"
         inkscape:connector-curvature="0" />
    </g>
  </g>
</svg>
