<?xml version="1.0" encoding="UTF-8" standalone="no"?>
<!-- Created with Inkscape (http://www.inkscape.org/) -->

<svg
   xmlns:dc="http://purl.org/dc/elements/1.1/"
   xmlns:cc="http://creativecommons.org/ns#"
   xmlns:rdf="http://www.w3.org/1999/02/22-rdf-syntax-ns#"
   xmlns:svg="http://www.w3.org/2000/svg"
   xmlns="http://www.w3.org/2000/svg"
   xmlns:sodipodi="http://sodipodi.sourceforge.net/DTD/sodipodi-0.dtd"
   xmlns:inkscape="http://www.inkscape.org/namespaces/inkscape"
   width="300mm"
   height="400mm"
   viewBox="0 0 300 400"
   version="1.1"
   id="svg1687"
   inkscape:version="0.92.5 (2060ec1f9f, 2020-04-08)"
   sodipodi:docname="Flower2.svg"
   inkscape:export-filename="/mnt/34C9D8B93223F7D0/Projets/MahjongSolitaire/AssetsPreparation/Tiles/Tilesets/riichi-mahjong-tiles-master/Export/Regular/Flower2.png"
   inkscape:export-xdpi="50.799999"
   inkscape:export-ydpi="50.799999">
  <defs
     id="defs1681" />
  <sodipodi:namedview
     id="base"
     pagecolor="#ffffff"
     bordercolor="#666666"
     borderopacity="1.0"
     inkscape:pageopacity="0.0"
     inkscape:pageshadow="2"
     inkscape:zoom="0.51841398"
     inkscape:cx="248.4778"
     inkscape:cy="713.7645"
     inkscape:document-units="mm"
     inkscape:current-layer="g2243"
     showgrid="false"
     inkscape:window-width="1680"
     inkscape:window-height="979"
     inkscape:window-x="1680"
     inkscape:window-y="40"
     inkscape:window-maximized="1" />
  <metadata
     id="metadata1684">
    <rdf:RDF>
      <cc:Work
         rdf:about="">
        <dc:format>image/svg+xml</dc:format>
        <dc:type
           rdf:resource="http://purl.org/dc/dcmitype/StillImage" />
        <dc:title />
      </cc:Work>
    </rdf:RDF>
  </metadata>
  <g
     inkscape:label="Calque 1"
     inkscape:groupmode="layer"
     id="layer1"
     transform="translate(0,103)">
    <g
       id="g2243">
      <path
         style="fill:#000000;stroke-width:1.23954999;fill-opacity:1"
         d="m 208.66704,227.34896 c -1.79425,-1.41135 -5.7445,-6.40325 -8.77834,-11.09308 -17.13687,-26.4909 -24.76549,-50.08399 -29.18035,-90.24628 -0.77379,-7.03919 -1.85597,-14.01166 -2.40484,-15.49437 -0.92654,-2.50295 -1.05857,-2.42005 -1.84514,1.15848 -0.46596,2.11988 -2.47333,5.41225 -4.46081,7.31638 -4.50569,4.31673 -6.29684,3.16608 -8.50929,-5.46646 -0.87113,-3.39899 -2.37733,-6.83848 -3.34712,-7.64332 -3.0675,-2.5458 -2.06655,-4.87846 2.09337,-4.87846 3.77739,0 3.8389,-0.0945 2.99435,-4.596149 -1.4405,-7.678579 -7.91732,-20.62155 -12.02783,-24.035866 -5.26256,-4.371223 -3.79626,-6.587179 3.62258,-5.474658 8.31573,1.247024 8.62761,1.498343 11.30244,9.107977 1.35818,3.863876 3.85969,10.333682 5.55894,14.377342 l 3.08953,7.352118 0.71488,-4.253243 c 0.3932,-2.339279 1.83571,-11.225712 3.2056,-19.747618 1.36989,-8.521905 4.80785,-22.870975 7.63989,-31.886822 l 5.14918,-16.392449 -3.45961,-8.140137 c -3.9605,-9.3187069 -17.0848,-30.502733 -24.56201,-39.645713 -2.78773,-3.408763 -8.31116,-8.891737 -12.27431,-12.184387 -7.30753,-6.071217 -8.78574,-8.979238 -5.25335,-10.334742 5.76957,-2.213992 25.62965,9.462182 33.45302,19.667761 2.77005,3.61351 8.06913,11.439818 11.77573,17.3917956 3.70661,5.9519768 7.36242,10.8327047 8.12401,10.8460621 2.88596,0.050611 12.29889,-16.9369577 18.96938,-34.2340937 3.89264,-10.093961 7.91243,-15.537679 9.875,-13.373029 2.28697,2.522452 3.85853,10.027494 3.85853,18.426525 0,14.310146 -3.888,26.85202379 -15.68582,50.599239 -6.3484,12.778346 -8.0831,19.703546 -5.35751,21.388048 1.1915,0.736397 6.97311,-10.631215 12.52038,-24.617203 1.31019,-3.303312 4.24702,-9.996882 6.52628,-14.8746 8.30611,-17.775414 15.56092,-37.690859 18.65261,-51.204014 1.73977,-7.604184 3.50487,-14.716102 3.92244,-15.804262 1.32996,-3.465834 4.79428,-2.138813 8.22368,3.150117 4.33675,6.688254 5.37127,14.217848 3.43898,25.030207 -2.72877,15.269302 -5.09336,22.106253 -20.43608,59.088799 -2.96976,7.158401 -7.15791,19.151047 -9.307,26.650324 -2.14908,7.499277 -4.95584,17.260733 -6.23726,21.692124 -4.56217,15.776868 -10.94554,42.946227 -12.81407,54.540197 -2.80653,17.41397 -4.93076,45.3026 -4.07455,53.49424 0.76076,7.27867 5.2616,18.84986 6.93074,17.81827 0.50192,-0.31019 2.14865,-4.72769 3.65939,-9.81665 3.01689,-10.1624 4.07461,-11.52693 9.82695,-12.6774 2.98272,-0.59654 4.07848,-0.29051 4.6929,1.31067 1.07691,2.80636 -2.4636,15.48217 -7.66876,27.45584 -2.53773,5.83765 -4.2506,11.80597 -4.2506,14.81075 0,4.55731 -1.63714,8.00783 -3.7994,8.00783 -0.45346,0 -2.29249,-1.15474 -4.08673,-2.56609 z M 183.73285,90.15579 c 1.13464,-3.920076 3.97616,-11.27802 6.31448,-16.35099 3.66216,-7.945056 4.00878,-9.466294 2.50052,-10.974554 -1.50825,-1.508247 -2.11135,-0.787721 -4.35091,5.198016 -2.78073,7.43218 -7.59072,24.939795 -7.59072,27.629073 0,3.379719 1.13306,1.386015 3.12663,-5.501545 z M 70.054005,179.42328 c -2.42212,-0.55777 -20.257867,-25.32676 -25.05689,-34.79718 -3.627642,-7.15879 -7.651476,-22.42228 -9.363268,-35.51739 -1.507667,-11.533556 0.65812,-51.414861 3.574278,-65.817588 4.324878,-21.360296 18.543068,-45.2702211 39.132388,-65.806718 9.683942,-9.659099 13.139566,-12.200314 23.334507,-17.159864 6.58194,-3.201927 14.19421,-6.120394 16.91614,-6.485481 5.40581,-0.725071 12.43306,1.521928 12.43306,3.975533 0,1.902507 -10.1731,11.528628 -16.86115,15.954568 -9.16612,6.065847 -37.751829,38.915156 -46.740096,53.711438 -6.577097,10.82707 -11.933221,24.470184 -13.290673,33.853995 -1.918119,13.259577 -3.394544,43.164337 -2.374227,48.089577 0.523314,2.52613 1.847747,9.05534 2.943185,14.50936 2.629169,13.09023 5.930641,23.04364 13.321907,40.16342 5.960759,13.80642 6.292188,16.30766 2.030839,15.32633 z"
         id="path2247"
         inkscape:connector-curvature="0"
         sodipodi:nodetypes="cssscsscsccsccccsscscsscccssssccsscccscsccccccssscccscscccssssssssssssc" />
      <path
         style="fill:#b93b3b;fill-opacity:1;stroke-width:1.23955011"
         d="m 160.87267,228.3484 c -3.54284,-1.79236 -7.42251,-5.39972 -10.97979,-10.20908 -12.81224,-17.32184 -18.3003,-34.01659 -22.51784,-68.49957 -0.68888,-5.63238 -2.43483,-12.98907 -3.87989,-16.34819 -6.96806,-16.1977 10.11287,-8.6276 18.04116,7.99566 1.62578,3.40876 3.81955,11.21792 4.87506,17.3537 8.51782,49.51499 10.76864,55.98021 22.56157,64.80576 2.98954,2.23733 5.43553,4.88685 5.43553,5.88786 0,2.76551 -7.14995,2.24459 -13.5358,-0.98614 z m 4.88862,-25.32747 c -3.68448,-4.68411 -3.08851,-11.98191 1.02607,-12.56434 5.24587,-0.74254 8.55615,0.85457 9.92804,4.78997 3.15342,9.04593 -5.25804,15.01572 -10.95411,7.77437 z M 67.422974,27.480599 c -44.948649,179.679601 -22.474325,89.839801 0,0 z m 13.399471,91.658311 c -3.408763,-1.6011 -7.241548,-4.08496 -8.517298,-5.5197 -2.796894,-3.14546 -1.840029,-7.11297 1.400334,-5.8063 1.18732,0.47879 4.26408,1.16972 6.837246,1.53542 4.595447,0.65309 4.954236,0.39242 20.216053,-14.68686 l 15.53758,-15.351742 -4.98697,-0.697185 c -2.74283,-0.383442 -6.12745,-1.729295 -7.52137,-2.990786 -3.6022,-3.259942 -5.66091,-10.719703 -3.877849,-14.051376 l 1.397129,-2.610567 4.29271,2.532761 c 4.15062,2.448915 6.72118,2.499588 14.57815,0.287388 2.60667,-0.733936 2.86512,-6.48144 0.76231,-16.952132 -1.7655,-8.791049 -0.48646,-10.761676 6.98487,-10.761676 2.90094,0 5.8478,-0.697246 6.54859,-1.549437 1.62566,-1.976882 4.79829,-13.445937 5.82113,-21.043458 0.89809,-6.67077 2.36393,-8.194712 5.37198,-5.584888 1.15011,0.997847 3.66562,2.188892 5.59002,2.64677 4.70156,1.118647 8.88178,10.141884 7.67602,16.569131 -2.02578,10.798344 -5.90778,17.991249 -14.79895,27.420798 -4.89086,5.187024 -10.74169,11.822694 -13.00182,14.745938 -2.26014,2.923244 -6.41639,6.519016 -9.23613,7.99061 -3.68365,1.922468 -4.51618,2.80716 -2.95757,3.142866 2.95456,0.636411 2.8392,7.986557 -0.2315,14.74964 -3.98529,8.777435 -14.91875,23.977165 -19.066443,26.506205 -5.2338,3.19128 -11.269858,3.02404 -18.818222,-0.52142 z M 109.23901,57.068284 c -1.03649,-4.12973 0.18514,-5.648431 4.54357,-5.648431 4.55233,0 5.93766,2.937106 2.94503,6.243924 -3.05925,3.380427 -6.56058,3.102012 -7.4886,-0.595493 z"
         id="path2247-3"
         inkscape:connector-curvature="0"
         sodipodi:nodetypes="cssccscsccccccccsccsccccccccsccccsccccscccssc" />
    </g>
  </g>
</svg>
