<?xml version="1.0" encoding="UTF-8" standalone="no"?>
<!-- Created with Inkscape (http://www.inkscape.org/) -->

<svg
   xmlns:dc="http://purl.org/dc/elements/1.1/"
   xmlns:cc="http://creativecommons.org/ns#"
   xmlns:rdf="http://www.w3.org/1999/02/22-rdf-syntax-ns#"
   xmlns:svg="http://www.w3.org/2000/svg"
   xmlns="http://www.w3.org/2000/svg"
   xmlns:sodipodi="http://sodipodi.sourceforge.net/DTD/sodipodi-0.dtd"
   xmlns:inkscape="http://www.inkscape.org/namespaces/inkscape"
   width="300mm"
   height="400mm"
   viewBox="0 0 300 400"
   version="1.1"
   id="svg2904"
   inkscape:version="0.92.5 (2060ec1f9f, 2020-04-08)"
   sodipodi:docname="Flower3.svg"
   inkscape:export-filename="/mnt/34C9D8B93223F7D0/Projets/MahjongSolitaire/AssetsPreparation/Tiles/Tilesets/riichi-mahjong-tiles-master/Export/Regular/Flower3.png"
   inkscape:export-xdpi="50.799999"
   inkscape:export-ydpi="50.799999">
  <defs
     id="defs2898" />
  <sodipodi:namedview
     id="base"
     pagecolor="#ffffff"
     bordercolor="#666666"
     borderopacity="1.0"
     inkscape:pageopacity="0.0"
     inkscape:pageshadow="2"
     inkscape:zoom="0.68938467"
     inkscape:cx="408.90336"
     inkscape:cy="676.19379"
     inkscape:document-units="mm"
     inkscape:current-layer="g3484"
     showgrid="false"
     inkscape:window-width="1680"
     inkscape:window-height="979"
     inkscape:window-x="1680"
     inkscape:window-y="40"
     inkscape:window-maximized="1" />
  <metadata
     id="metadata2901">
    <rdf:RDF>
      <cc:Work
         rdf:about="">
        <dc:format>image/svg+xml</dc:format>
        <dc:type
           rdf:resource="http://purl.org/dc/dcmitype/StillImage" />
        <dc:title></dc:title>
      </cc:Work>
    </rdf:RDF>
  </metadata>
  <g
     inkscape:label="Calque 1"
     inkscape:groupmode="layer"
     id="layer1"
     transform="translate(0,103)">
    <g
       id="g3484">
      <path
         style="fill:#000002;fill-opacity:1;stroke-width:1.38207126"
         d="m 245.67053,-64.424119 c -2.48511,0.03415 -7.45183,3.359931 -7.91557,5.767943 -0.25115,1.304115 0.17644,2.370951 0.94993,2.370951 2.39817,0 9.22522,-6.611736 8.04668,-7.792806 -0.24563,-0.246161 -0.62083,-0.352411 -1.08104,-0.346088 z m 24.39724,1.797658 c -6.96509,-0.06829 -20.35448,4.155977 -23.61007,7.753361 -1.40539,1.552936 -4.61793,4.097995 -7.1384,5.655729 -2.61212,1.61438 -4.58247,3.972202 -4.58247,5.483515 0,3.871763 3.01074,3.243892 7.16896,-1.494899 3.62575,-4.131983 6.65177,-5.389561 6.65177,-2.764257 0,0.760141 1.9704,1.38213 4.37859,1.38213 2.40818,0 8.37008,0.695346 13.24855,1.544895 8.69197,1.513643 8.92178,1.665927 11.46588,7.601152 3.15092,7.350792 7.08975,8.110699 10.26044,1.979309 6.10385,-11.803775 -1.24436,-24.266446 -15.90616,-26.976503 -0.56468,-0.104376 -1.21658,-0.15737 -1.93709,-0.164432 z m -67.11434,6.341236 c -3.71344,0 -7.07604,0.525131 -7.47283,1.167141 -1.59561,2.581762 4.94212,16.245777 9.88655,20.663044 3.47425,3.103841 6.21159,4.424518 8.59553,4.146387 3.41867,-0.398855 3.48828,-0.627641 3.06257,-10.08265 -0.55532,-12.334071 -3.70711,-15.893922 -14.07182,-15.893922 z m -118.126434,0.283313 c -3.568856,-0.02495 -7.390037,1.948184 -11.320898,5.879045 -4.052677,4.052678 -4.61802,5.498121 -4.61802,11.812533 0,5.745413 -0.729104,8.060995 -3.620309,11.496999 -3.291231,3.911404 -3.543462,5.038694 -2.774257,12.398047 0.754227,7.216074 0.472063,8.5864828 -2.598713,12.6124782 -5.811071,7.6187061 -4.395635,11.8525458 4.753012,14.2145908 7.024086,1.813518 6.803589,4.247572 -0.563296,6.217913 -13.094658,3.502289 -19.514501,14.222102 -12.636364,21.100236 1.921539,1.92154 3.988363,3.49073 4.59302,3.48643 3.844213,-0.02695 12.981366,-3.673752 17.706023,-7.066742 6.539117,-4.696039 13.805153,-7.064996 18.636509,-6.076254 6.14728,1.25804 7.54184,-0.839951 5.63518,-8.47665 -0.92079,-3.688024 -3.18747,-9.426688 -5.03688,-12.7530232 -3.777923,-6.794909 -3.862821,-7.0817432 -2.099305,-7.0817432 0.69472,0 3.545975,4.0821523 6.336235,9.0716094 2.790267,4.989458 6.019347,9.434517 7.175627,9.878217 1.15627,0.443706 5.92327,-0.515962 10.59372,-2.132631 4.67046,-1.61667 11.60159,-3.608875 15.40229,-4.426924 9.12015,-1.962989 13.41597,-4.8438182 12.86857,-8.6305235 -0.31482,-2.1778321 -1.85458,-3.3116275 -5.74183,-4.2269361 -4.69132,-1.10462771 -5.23463,-1.65369631 -4.65246,-4.6991274 0.70788,-3.7030819 -3.01471,-8.654412 -6.50623,-8.654412 -1.07718,0 -4.96407,-1.28964 -8.63774,-2.865916 l -6.67955,-2.866474 4.87578,-4.472474 c 11.6152,-10.654979 13.57289,-16.389522 7.62559,-22.336818 -4.60374,-4.603746 -10.84648,-4.384542 -20.94413,0.736061 -4.477917,2.270788 -8.263267,4.136711 -8.411647,4.146384 -0.14839,0.0096 -0.45938,-2.916251 -0.69107,-6.502335 -0.34466,-5.334746 -1.06715,-6.881041 -3.972508,-8.50498 -1.504564,-0.840969 -3.074138,-1.26524 -4.696349,-1.27658 z M 226.1263,-19.602713 c -0.7273,-0.04569 -1.50254,1.310352 -2.22762,3.936398 -0.76186,2.759195 -3.56503,7.9862234 -6.22903,11.6153234 -3.15674,4.30034059 -4.99905,8.4950713 -5.29019,12.0447404 -0.38718,4.7205502 -1.18376,5.8630062 -5.97515,8.5683072 -6.21515,3.509181 -3.87533,4.181542 5.36797,1.542674 8.05463,-2.299518 9.24483,-3.458337 7.70669,-7.503935 -0.95705,-2.5172622 -0.54708,-5.2375186 1.59823,-10.60428291 6.13305,-15.34266409 6.89258,-17.99295709 5.54351,-19.34202009 -0.16152,-0.161522 -0.32657,-0.246662 -0.49441,-0.257205 z m 12.02474,32.697783 c -2.2767,-0.06505 -3.55605,1.214851 -7.50171,4.511361 -3.15205,2.63347 -8.03054,5.208357 -10.84149,5.721833 -2.81093,0.513478 -6.6143,1.492728 -8.45165,2.175963 l -3.34088,1.242139 2.99535,2.097635 c 1.71888,1.203949 2.99535,3.575668 2.99535,5.565734 0,1.907219 0.70648,4.788551 1.57045,6.4029 0.86398,1.614348 2.04446,7.248492 2.62316,12.520261 1.66362,15.155299 7.91956,20.630333 17.75879,15.542279 6.0645,-3.13608 8.93153,-2.675544 12.38083,1.989867 1.80984,2.44794 4.32194,4.144467 6.13347,4.140275 2.52513,-0.0052 24.11849,-7.580997 25.62606,-8.990503 0.24463,-0.228738 -0.56922,-3.429001 -1.80878,-7.111738 -2.56116,-7.609209 -12.00097,-18.133862 -21.09468,-23.519518 -6.01257,-3.560877 -6.98266,-6.14193 -4.5858,-12.199728 1.73707,-4.390248 0.28795,-6.054818 -7.21063,-8.281662 -3.66547,-1.088526 -5.69009,-1.762591 -7.24784,-1.807098 z M 42.403209,93.250744 c -28.268806,135.832836 -14.134403,67.916416 0,0 z M 32.67609,46.225046 c -4.416659,0.06964 -8.861248,1.459161 -11.534219,3.970285 -4.674727,4.391678 -5.443245,10.608467 -2.787588,22.54514 2.160251,9.709908 4.363303,13.379985 9.071606,15.111195 6.931458,2.548666 16.480806,-1.125282 20.709707,-7.967792 C 53.96958,70.444301 50.049962,52.61325 41.126626,47.998813 38.707033,46.747592 35.698014,46.177394 32.67609,46.225046 Z M 66.262145,165.18642 c -1.667482,-0.0289 -2.88458,0.43197 -3.871405,1.41879 -1.806025,1.80604 -1.646616,2.67649 1.357687,7.43561 8.55525,13.5524 5.821216,19.32384 -10.07765,21.27466 -15.605416,1.91486 -23.480631,4.05377 -23.480631,6.37792 0,2.26587 6.039069,1.78662 21.85352,-1.73488 16.899493,-3.76314 21.839108,-2.13677 17.978779,5.92014 -1.583824,3.30562 -2.942077,4.01733 -9.113824,4.77245 -13.021302,1.59324 -19.990322,9.61875 -16.209458,18.66762 1.515511,3.62722 1.514075,4.81791 -0.0078,6.99063 -2.268274,3.23844 -4.038101,12.14652 -2.808699,14.13574 1.309929,2.1195 3.245835,1.86659 14.164595,-1.84712 13.102534,-4.45646 16.179241,-6.7035 21.92629,-16.01447 l 4.894112,-7.92835 11.482002,-0.71661 c 6.315307,-0.39399 13.276857,-1.57219 15.469507,-2.61816 8.51553,-4.06214 4.24051,-15.42705 -6.63455,-17.63823 -3.486317,-0.70888 -4.698317,-1.74506 -5.068547,-4.33305 -0.59928,-4.18924 -8.465179,-12.04077 -13.993497,-13.96795 -3.096235,-1.07936 -4.306504,-2.54162 -4.951884,-5.9818 -1.379929,-7.35566 -5.433863,-12.79708 -10.334856,-13.87352 -0.964744,-0.21189 -1.815767,-0.3263 -2.573715,-0.33942 z m 174.052085,4.2386 c -3.13851,0.11009 -3.43709,4.542 -2.81314,16.27279 l 0.69106,12.99246 4.14583,0.8816 c 5.41605,1.15127 13.12966,1.41448 13.12966,0.44831 0,-0.41782 -0.98882,-2.67211 -2.19762,-5.00966 -2.01995,-3.90624 -2.01106,-4.5997 0.11166,-8.56942 3.26306,-6.10231 1.20058,-10.55042 -6.84732,-14.76678 -2.78007,-1.45652 -4.79354,-2.29934 -6.22013,-2.2493 z M 42.236553,177.3817 c -2.323907,-0.0342 -4.880963,0.39277 -7.464494,1.36104 -4.513767,1.69167 -19.78477,16.26761 -19.78477,18.88426 0,1.89695 5.30805,2.39455 7.609485,0.71328 0.764464,-0.55847 3.172413,-3.40585 5.351303,-6.32735 3.753254,-5.03247 4.262156,-5.26664 9.667122,-4.45247 12.866808,1.93813 13.962721,1.77108 14.4218,-2.1954 0.554871,-4.79407 -3.861572,-7.89587 -9.800446,-7.98336 z m 182.669827,0.23332 c -0.93478,-0.007 -2.01284,1.22803 -2.35872,3.57864 -0.29329,1.99325 0.28707,3.00148 1.72766,3.00148 1.41112,0 2.16929,-1.24775 2.16929,-3.57033 0,-2.02952 -0.71342,-3.00336 -1.53823,-3.00979 z m -0.43885,14.43847 c -0.82653,-0.04 -2.08463,0.29859 -4.12306,0.99939 -5.85836,2.01398 -6.91347,2.91481 -5.70461,4.87078 1.34933,2.18324 8.44197,1.78741 10.40763,-0.58108 0.93832,-1.13051 1.36749,-2.93783 0.95382,-4.01583 -0.31257,-0.81457 -0.70726,-1.23327 -1.53378,-1.27326 z m -106.83776,0.93104 c -1.9494,-0.0106 -3.15158,0.32695 -3.99528,1.02717 -1.73324,1.43845 -1.26342,2.47834 3.217,7.12451 5.23036,5.42385 5.27295,5.43804 13.81517,4.67356 5.12436,-0.45858 11.35548,-2.17892 15.50229,-4.28026 9.67596,-4.9032 13.20478,-4.57011 19.627,1.8521 6.97543,6.97544 7.36585,13.22369 1.21936,19.51145 -2.28041,2.33285 -4.14639,4.85744 -4.14639,5.61017 0,2.82465 7.22409,4.22616 14.13905,2.74317 11.90576,-2.55334 14.63478,-2.02508 17.87156,3.46085 1.87706,3.18136 5.62309,6.32622 10.66428,8.95163 7.74008,4.03093 15.36515,4.90119 16.35944,1.86708 0.28003,-0.85447 -1.10355,-3.47024 -3.07479,-5.81294 -3.3999,-4.04054 -3.47007,-4.43384 -1.36601,-7.64503 2.02162,-3.08542 2.02621,-3.84387 0.0522,-8.56831 -1.93497,-4.63107 -1.94289,-5.42973 -0.0733,-7.4956 3.10361,-3.42943 2.54214,-6.51888 -1.36269,-7.49893 -1.90035,-0.47698 -3.45477,-1.47753 -3.45477,-2.22318 0,-3.88101 -4.64291,-0.43411 -8.41276,6.2457 -3.904,6.91747 -4.71901,7.60114 -9.06105,7.60114 -3.38433,0 -5.75659,-1.06306 -8.16056,-3.65696 -1.86406,-2.01137 -3.38921,-4.21464 -3.38921,-4.89635 0,-1.98836 -12.71009,-15.01461 -16.54166,-16.95331 -3.2588,-1.64884 -12.38159,-1.7008 -29.75798,-0.16886 -3.04057,0.26807 -9.15265,-0.10055 -13.58241,-0.8194 -2.60414,-0.42257 -4.57228,-0.64115 -6.08848,-0.6494 z"
         id="path3488"
         inkscape:connector-curvature="0"
         sodipodi:nodetypes="csscccsssssssccccsccccsssssssssscscscsscsscccscccssccssccscssccccssccccsccccccssscscccsscsscccscsccccccscccccccscccssccscccsccscccccccsscccccccccsccccscccccccccscscsccccc" />
      <path
         inkscape:connector-curvature="0"
         style="fill:#b93c3c;fill-opacity:1;stroke-width:1.38207138"
         d="m 171.615,20.0246 c -0.64592,0.0038 -1.352,0.09108 -2.15207,0.251093 -2.29625,0.459252 -5.96123,0.834944 -8.14445,0.834944 -5.06291,0 -13.45819,7.427656 -17.93656,15.86948 -1.82175,3.43403 -3.69712,6.243464 -4.16749,6.243464 -0.4704,0 -2.52203,-2.518567 -4.55914,-5.596841 -3.81092,-5.758682 -8.83686,-8.833586 -11.04537,-6.757877 -0.72802,0.684248 0.82933,3.480738 3.71976,6.680104 6.98181,7.728042 8.77951,14.541296 6.74732,25.570488 -2.97622,16.152547 -1.30819,17.712528 3.11034,2.908693 2.81913,-9.445244 9.12141,-21.856034 13.68574,-26.950395 1.70263,-1.900348 6.08172,-5.870329 9.73101,-8.822181 6.14427,-4.970003 6.80236,-5.199597 8.89717,-3.104789 3.70376,3.703769 2.64967,14.985097 -3.05035,32.643343 -6.66873,20.659267 -9.92466,25.994184 -15.24008,24.969972 -0.71113,-0.13703 -2.88808,0.154599 -4.83744,0.647736 l -3.54421,0.896605 3.49977,2.989243 c 5.89672,5.036669 7.67296,9.89404 5.65683,15.469508 -0.95059,2.62901 -1.34191,5.40556 -0.86939,6.17014 1.7226,2.78723 6.11924,1.3028 8.56498,-2.89203 5.06145,-8.681188 38.15468,-26.123229 49.56442,-26.123229 4.09962,0 4.76023,0.458584 4.76023,3.308664 0,6.188141 -12.16279,16.480585 -26.15211,22.130165 -6.73637,2.72047 -11.30929,3.5842 -18.96817,3.5842 -9.73742,0 -10.16473,0.141 -12.16417,4.00751 -2.53891,4.9097 -1.76996,5.65435 9.35048,9.05383 9.49328,2.90207 16.86461,13.77588 18.54152,17.84657 1.6769,4.07069 2.62663,6.02756 2.61149,11.23479 -0.0152,5.20722 0.1389,7.41763 -1.46546,9.83044 -1.60435,2.4128 -5.31146,2.63582 -6.22069,2.62927 -0.90923,-0.006 -13.66488,-6.18972 -15.4534,-6.34624 0.26132,-2.05517 -0.19016,-6.32536 -5.46073,-24.76054 -3.03821,-10.62694 -6.26172,-15.81226 -10.00266,-15.81226 -4.26282,0 -4.23794,4.02604 -0.44941,9.81545 1.90952,2.91799 3.87357,7.17116 4.3647,9.45158 0.49111,2.28041 1.77271,6.49125 2.84813,9.35714 1.07543,2.8659 1.95543,7.89347 1.95543,11.17202 0,3.27854 -0.68171,5.45542 -1.17158,6.81231 0.46265,-1.33714 -3.65141,10.97751 -8.87107,12.28584 -0.12897,0.003 -0.26135,0.0136 -0.39775,0.03 -4.36482,0.52784 -9.2723,-13.96351 -10.1532,-16.07281 -1.2725,-3.04696 -1.84444,-6.82596 -1.46435,-9.76377 0.63922,-3.8007 1.199,-9.75894 1.24437,-13.24077 0.0496,-3.80677 1.41086,-8.95424 3.41421,-12.91135 3.08591,-6.09548 3.18617,-6.92803 1.36324,-11.2909 -2.07822,-4.97388 -6.07737,-6.43594 -6.07737,-2.22207 0,6.88122 -7.83857,7.69394 -13.16411,1.3649 -3.27949,-3.89745 -3.63972,-5.25495 -2.94591,-11.11313 0.71624,-6.047489 0.49305,-6.786418 -2.38484,-7.880576 -1.96305,-0.746338 -4.31593,-3.857113 -6.16124,-8.146659 -3.51158,-8.162875 -3.76276,-11.264239 -0.91217,-11.264239 2.89963,0 2.60604,-2.676642 -1.47434,-13.443531 -3.81888,-10.076858 -3.60813,-13.142209 1.76266,-25.645485 1.68485,-3.922379 1.85134,-5.623713 0.66606,-6.808982 -2.22432,-2.224324 -5.51951,1.063907 -10.628717,10.605393 -3.71446,6.936772 -4.50577,7.650167 -7.60115,6.852868 -1.900352,-0.489487 -7.043129,-1.330139 -11.428117,-1.868206 -1.92952,-4.649029 -11.244541,-2.950268 -15.097864,0.288313 -1.181816,0.964907 -2.733281,6.214025 -3.6242,12.260834 -1.27309,8.640675 -1.186699,12.000307 0.474967,18.379868 1.118334,4.29357 2.033751,8.028347 2.033751,8.299992 0,1.192088 -14.202028,2.306853 -15.307296,1.201583 -3.378433,-1.183283 -5.943299,4.706502 -7.031744,8.116672 -2.689569,8.426255 -2.81111,11.776375 -0.582738,16.085575 2.732319,5.28372 8.152105,10.48463 14.974538,14.36959 2.850523,1.6232 5.182983,3.44241 5.182983,4.04306 0,0.60065 -1.710471,1.98994 -3.800853,3.08701 -8.816065,4.62684 -16.930519,15.95442 -16.930519,23.6345 0,3.88531 5.929716,8.99383 10.439291,8.99383 4.188061,0.81608 6.682654,2.77464 21.61687,0.27221 l 8.040009,-2.93147 c 2.682751,-0.97818 4.570779,-2.05453 6.267908,-2.88259 -0.36254,2.603 -0.619359,14.07499 0.248317,17.8488 0.867673,3.77378 5.492087,5.29728 9.879327,6.16791 4.387247,0.87061 9.362857,-0.15797 15.837267,-2.62261 2.09819,-1.52699 6.68772,-5.57826 9.30492,-9.16214 3.1968,-4.37758 5.75225,-7.78033 7.79892,-10.13321 1.62672,3.49172 2.43016,7.90091 4.04027,10.84482 1.24697,2.16979 5.02986,8.28983 8.63275,11.0737 0.57935,0.84532 1.70576,1.46154 3.26479,1.41269 1.38988,-0.0182 2.36506,-0.47454 2.97257,-1.12215 4.90599,-3.16645 10.92484,-12.31623 13.19633,-17.81991 2.26106,2.71554 9.1063,8.82383 15.68561,9.53102 6.5793,0.7072 12.71717,-6.1625 14.14236,-8.0389 1.4252,-1.87639 1.39166,-11.36254 1.10104,-13.96738 -0.29061,-2.60485 -0.14349,-10.03264 -0.58385,-10.5765 -0.0378,-0.0959 -0.0655,-0.14784 -0.0856,-0.16832 -0.002,-0.0155 -0.002,-0.0193 -0.004,-0.0351 -0.22764,-1.62356 -0.22651,-3.27145 14.05405,-4.00529 7.98146,-0.41014 15.6175,-1.26042 16.96886,-1.88987 2.75038,-1.28111 5.1441,-5.10826 5.14409,-8.22389 0,-3.74806 -6.48688,-9.81418 -14.99065,-14.01794 -4.61306,-2.28042 -8.41329,-4.50924 -8.44554,-4.95299 -0.0323,-0.44376 3.38482,-3.17829 7.59337,-6.07681 12.16034,-8.375161 16.01943,-16.135566 11.87531,-23.878938 -1.71257,-3.199951 -10.29336,-6.209477 -16.55388,-5.805718 -2.01558,0.129914 -4.15011,0.170565 -4.74357,0.09 -0.59346,-0.08055 1.11701,-3.578952 3.80086,-7.774474 2.68383,-4.195527 4.87967,-8.201655 4.87967,-8.902174 0,-0.700517 0.57545,-1.629048 1.2788,-2.063749 1.02936,-8.232712 0.86186,-11.999036 -4.73023,-14.825662 -4.65975,-2.123117 -11.65899,0.06245 -22.36793,6.983972 l -8.33055,5.384635 0.66885,-12.790799 c 0.62061,-11.865038 0.44548,-13.014158 -2.41817,-15.877813 -1.77479,-1.774773 -3.17187,-2.514396 -5.10966,-2.503164 z m 27.912,28.779716 c 2.77475,0.0037 2.51204,3.27932 -0.82216,9.814889 -3.50446,6.869312 -11.40334,15.598605 -23.77784,26.277663 -5.15045,4.444783 -10.30134,8.081673 -11.44589,8.081673 -4.92609,0 -3.43072,-4.729604 5.77683,-18.272092 7.59693,-11.173577 11.26986,-15.181654 18.29765,-19.966982 5.81749,-3.961205 9.81327,-5.937966 11.97141,-5.935151 z M 87.320719,57.157638 c 5.347284,0.04976 6.817214,3.069974 10.571504,14.339027 2.524037,7.576279 6.531967,16.043989 9.666557,20.421395 4.84433,6.765022 5.33715,8.2444 5.16688,15.51672 -0.17769,7.58971 -0.42306,8.13453 -4.39136,9.74601 -7.08773,2.87825 -13.417017,3.22596 -24.588894,1.35102 -12.585324,-2.11218 -27.520913,-8.6824 -30.672922,-13.49297 -3.694031,-5.637818 -0.981147,-10.097882 7.712812,-12.6797 3.972493,-1.179707 7.663927,-2.144856 8.203334,-2.144856 0.539403,0 4.002715,2.498272 7.696144,5.551846 7.219845,5.96908 26.455386,16.5611 30.075736,16.5611 1.22938,0 2.20762,-1.13695 2.20762,-2.56594 0,-1.61835 -4.8529,-6.26168 -13.140207,-12.573033 C 78.923876,84.314664 70.270209,74.590705 70.270209,68.470203 c 0,-5.993302 3.884145,-9.627707 11.511441,-10.771492 2.24055,-0.335991 4.041829,-0.555007 5.539069,-0.541073 z m 47.837871,30.450711 c -1.06759,-0.02096 -1.55218,1.370854 -0.74717,3.468657 0.69134,1.801639 1.2903,1.980022 2.51982,0.750504 1.22955,-1.229533 1.22427,-2.00218 -0.0222,-3.24867 -0.65973,-0.65973 -1.26517,-0.960957 -1.75044,-0.970491 z m -9.12883,10.147653 c -0.2279,-0.009 -0.44306,0.0391 -0.63329,0.15665 -0.67401,0.41656 -1.22547,1.65336 -1.22547,2.748698 0,2.03161 2.95089,2.7265 4.59524,1.08215 1.09362,-1.09362 -1.14117,-3.926428 -2.73648,-3.987498 z m 13.45909,0.7505 c -2.87101,0 -3.73112,1.45131 -1.92876,3.253668 1.28045,1.28045 3.58815,0.40756 4.26138,-1.61212 0.3056,-0.916758 -0.72424,-1.641548 -2.33262,-1.641548 z m -12.63526,8.292768 c -2.62042,0 -3.78593,3.9641 -1.76099,5.98904 1.42121,1.42121 2.73179,1.10688 4.55636,-1.0916 2.09029,-2.51864 0.73248,-4.89744 -2.79537,-4.89744 z m 65.28891,9.67434 c 9.87742,0 15.19114,0.63897 18.54485,2.23041 5.28571,2.50824 6.21571,6.53605 2.0271,8.77773 -5.33907,2.85738 -21.41304,0.71575 -32.22393,-4.29303 -11.08719,-5.13679 -8.34814,-6.71511 11.65198,-6.71511 z m -80.14902,5.78183 c 2.61061,0.0367 4.63218,0.97771 5.77073,2.79426 2.01711,3.2183 -3.43122,8.95616 -10.24708,10.79149 -2.79772,0.75334 -7.40275,3.21027 -10.233197,5.45963 -6.300126,5.00672 -17.134895,9.18296 -28.690276,11.05814 -10.838926,1.75892 -15.897976,1.80142 -16.922743,0.14333 -0.437491,-0.70789 0.769688,-3.59297 2.682596,-6.4118 1.91291,-2.81883 3.478099,-5.64762 3.478099,-6.28623 0,-2.38385 11.166836,-6.72211 26.414875,-10.26153 8.656039,-2.00926 17.982816,-4.58239 20.725816,-5.7185 2.60415,-1.07859 4.99072,-1.59728 7.02118,-1.56879 z m 13.69853,12.42138 c 0.11505,0.004 0.22726,0.0145 0.33609,0.03 2.81122,0.40061 2.95758,1.05927 2.57538,11.60811 -0.12146,3.35199 0.0271,5.91477 0.29608,7.92612 -1.32072,1.46362 -9.73447,11.04928 -11.34534,13.033 -1.61086,1.98372 -5.55699,6.5743 -9.0966,8.30833 -3.53961,1.73405 -8.780547,1.74122 -12.105287,1.18548 -3.32475,-0.55574 -4.693517,-1.57484 -4.921335,-6.44123 -0.227825,-4.86639 0.919025,-13.29815 1.496005,-17.05606 4.57312,-2.80589 9.232297,-7.53493 14.362357,-7.76559 2.39593,-0.0108 8.55492,-3.91501 12.51915,-7.93668 1.77402,-1.7997 4.15778,-2.95815 5.8835,-2.89147 z m 30.42905,30.72625 c -0.032,0.15379 -0.0164,0.27092 0.0361,0.35776 -0.0727,-0.0402 -0.0866,-0.1564 -0.0361,-0.35776 z"
         id="path3488-5"
         sodipodi:nodetypes="ccsssccssscscsccccccssssssssccccssccssccccccscssscsssscscccsssccscsssccccsccsccccccscscccsccsscccccscccccccccssssscssssccscscssssssccccccccsscsccssscssscsscccccccscccccccccssccccccc" />
    </g>
  </g>
</svg>
