<?xml version="1.0" encoding="UTF-8" standalone="no"?>
<!-- Created with Inkscape (http://www.inkscape.org/) -->

<svg
   xmlns:dc="http://purl.org/dc/elements/1.1/"
   xmlns:cc="http://creativecommons.org/ns#"
   xmlns:rdf="http://www.w3.org/1999/02/22-rdf-syntax-ns#"
   xmlns:svg="http://www.w3.org/2000/svg"
   xmlns="http://www.w3.org/2000/svg"
   xmlns:sodipodi="http://sodipodi.sourceforge.net/DTD/sodipodi-0.dtd"
   xmlns:inkscape="http://www.inkscape.org/namespaces/inkscape"
   width="300mm"
   height="400mm"
   viewBox="0 0 300 400"
   version="1.1"
   id="svg1054"
   inkscape:version="0.92.5 (2060ec1f9f, 2020-04-08)"
   sodipodi:docname="Flower4.svg"
   inkscape:export-filename="/mnt/34C9D8B93223F7D0/Projets/MahjongSolitaire/AssetsPreparation/Tiles/Tilesets/riichi-mahjong-tiles-master/Export/Regular/Flower4.png"
   inkscape:export-xdpi="50.799999"
   inkscape:export-ydpi="50.799999">
  <defs
     id="defs1048" />
  <sodipodi:namedview
     id="base"
     pagecolor="#ffffff"
     bordercolor="#666666"
     borderopacity="1.0"
     inkscape:pageopacity="0.0"
     inkscape:pageshadow="2"
     inkscape:zoom="0.35"
     inkscape:cx="449.98288"
     inkscape:cy="627.4266"
     inkscape:document-units="mm"
     inkscape:current-layer="g1629"
     showgrid="false"
     inkscape:window-width="1680"
     inkscape:window-height="979"
     inkscape:window-x="1680"
     inkscape:window-y="40"
     inkscape:window-maximized="1" />
  <metadata
     id="metadata1051">
    <rdf:RDF>
      <cc:Work
         rdf:about="">
        <dc:format>image/svg+xml</dc:format>
        <dc:type
           rdf:resource="http://purl.org/dc/dcmitype/StillImage" />
        <dc:title></dc:title>
      </cc:Work>
    </rdf:RDF>
  </metadata>
  <g
     inkscape:label="Calque 1"
     inkscape:groupmode="layer"
     id="layer1"
     transform="translate(0,103)">
    <g
       id="g1629">
      <path
         style="fill:#040404;fill-opacity:1;stroke-width:1.33293307"
         d="m 68.177842,247.80125 c -7.22659,-9.05621 -8.034559,-21.98085 -2.520635,-40.32123 4.441322,-14.77271 8.612958,-26.09327 10.415958,-28.26575 0.748356,-0.90172 3.402586,-5.03045 5.898283,-9.17499 3.788962,-6.29219 4.53765,-8.82512 4.53765,-15.35158 0,-6.35944 0.748566,-9.03267 4.016637,-14.34397 5.055951,-8.21694 8.653298,-18.60815 9.893615,-28.57837 1.46167,-11.74958 8.81732,-31.77281 19.68064,-53.573853 5.50248,-11.042618 7.20619,-12.662865 13.31525,-12.662865 4.71107,0 5.04833,-0.231171 3.7839,-2.593754 -1.1547,-2.157593 -2.36966,-2.473551 -7.2249,-1.878943 -3.68323,0.451091 -6.18605,0.149702 -6.78341,-0.816835 -1.38404,-2.239447 5.45237,-11.407575 14.62875,-19.61823 8.81206,-7.884673 12.98388,-13.8762078 24.88583,-35.740697 4.38976,-8.064246 10.48498,-18.537748 13.5449,-23.274449 3.05993,-4.7367 5.56351,-10.13508 5.56351,-11.996398 0,-2.764692 0.7263,-3.466759 3.96749,-3.835119 2.18214,-0.247998 6.23264,-2.497323 9.00115,-4.9985 4.68708,-4.234504 5.65282,-4.546242 14.02709,-4.527944 10.23701,0.02237 15.46957,2.068781 16.0765,6.287402 0.3326,2.311689 -1.26763,3.944799 -7.80387,7.964233 -9.16167,5.633941 -18.52852,14.780601 -26.37662,25.75658 -5.88871,8.235664 -17.68179,31.2250628 -20.15065,39.281658 -0.89862,2.932453 -2.51508,7.291851 -3.59214,9.687558 -1.8158,4.038921 -1.75134,4.646418 0.88603,8.350253 3.74673,5.261808 2.99893,6.813542 -4.10941,8.527093 -4.81295,1.160213 -6.3408,2.298058 -8.18003,6.091958 -1.24392,2.565896 -2.75238,5.265086 -3.35211,5.9982 -11.578,14.152737 -12.51995,15.883351 -26.11848,47.985592 -8.33073,19.66652 -10.96935,27.90721 -12.27068,38.32263 -0.90901,7.27545 -0.90771,7.27885 3.06628,8.07365 2.92615,0.58523 4.36166,1.90235 5.43779,4.98932 2.09919,6.02175 0.0802,8.7141 -8.37905,11.17326 -5.53855,1.6101 -7.86178,3.11449 -9.9257,6.42729 -1.48205,2.37885 -3.86376,5.03971 -5.292697,5.91302 -3.67942,2.24871 -13.548552,34.0561 -13.548552,43.66582 0,5.00891 -6.435781,23.04921 -9.652791,27.05796 -0.735405,0.91639 -2.389841,1.66616 -3.676536,1.66616 -1.286696,0 -2.937742,-0.74977 -3.668992,-1.66616 z m 43.277468,-7.15526 c -1.5433,-1.5433 0.7805,-9.1596 4.42557,-14.50491 1.9997,-2.93244 10.93457,-12.81654 19.85526,-21.96464 12.83757,-13.16483 16.47928,-16.22202 17.46559,-14.66226 1.03742,1.64056 1.24955,1.65437 1.26656,0.0823 0.0111,-1.03857 0.40579,-1.50294 0.87681,-1.0319 0.47104,0.47101 0.16076,1.69461 -0.68946,2.71907 -0.85024,1.02447 -1.16655,2.85115 -0.70295,4.0593 0.53589,1.39652 -0.43412,3.47371 -2.66307,5.70264 -1.92828,1.92831 -3.34694,3.64505 -3.15255,3.815 0.19438,0.16994 5.7518,-0.55652 12.34981,-1.61438 9.63472,-1.5447 13.12368,-1.60784 17.72246,-0.32063 4.11997,1.1532 5.59325,2.20364 5.25256,3.74505 -0.2604,1.17828 -1.33758,1.89977 -2.39371,1.60334 -1.05614,-0.29644 -5.69573,-0.81788 -10.31022,-1.15875 -9.64096,-0.71218 -19.66887,1.68553 -32.85354,7.85537 -7.92462,3.70837 -8.97939,4.72101 -13.46671,12.92872 -6.78529,12.41094 -10.08164,15.64743 -12.98241,12.74666 z M 204.40553,234.76 c -0.68643,-1.07484 -1.46332,-9.29725 -1.72641,-18.27203 -0.42556,-14.51623 -0.22331,-16.41567 1.83184,-17.20429 2.91866,-1.12 9.85031,2.61748 13.13105,7.08014 2.48876,3.38536 2.48313,3.4256 -0.87414,6.26053 -3.82732,3.23183 -6.27943,7.52974 -6.33093,11.09647 -0.0192,1.33115 -1.10336,4.79922 -2.40917,7.70685 -1.85994,4.14152 -2.64452,4.8633 -3.62224,3.33233 z M 31.858841,220.72282 c 0,-0.41416 2.912073,-3.58946 6.471266,-7.05623 3.559204,-3.46678 7.907898,-8.42839 9.663769,-11.02584 12.268811,-18.14911 17.130885,-25.97961 22.898707,-36.87899 5.381569,-10.16948 6.41071,-13.18214 5.734476,-16.7868 -0.713148,-3.80141 -0.194838,-5.00457 3.848287,-8.93322 4.293556,-4.17197 6.255555,-9.20538 3.588219,-9.20538 -5.091533,0 -22.625887,30.02673 -41.643193,71.31193 -2.866961,6.22398 -4.490367,8.52918 -4.8759,6.92368 -0.70197,-2.92329 5.164573,-18.01759 10.202796,-26.25122 2.018699,-3.299 4.703761,-9.10976 5.966815,-12.91278 1.263053,-3.80303 4.060164,-9.13394 6.215805,-11.84647 2.155641,-2.71251 3.919345,-5.6654 3.919345,-6.56195 0,-0.89657 1.529194,-3.88351 3.39821,-6.63765 1.869017,-2.75416 3.16534,-5.24044 2.880699,-5.52507 -1.585041,-1.58503 -20.282986,24.91143 -25.982498,36.81926 -6.931257,14.48126 -12.286803,29.14106 -12.286803,33.63274 0,2.67575 -0.599825,5.2357 -1.332937,5.68879 -2.566743,1.58633 -1.345101,-11.64058 1.893312,-20.4992 5.859276,-16.02798 11.475987,-28.70126 16.612365,-37.4834 4.816641,-8.23544 7.232029,-13.32932 6.32042,-13.32932 -1.870169,0 -16.472177,5.78633 -23.300792,9.23342 -4.652855,2.34875 -8.731321,3.99887 -9.063268,3.66691 -0.331957,-0.33195 3.477622,-3.38344 8.465714,-6.78111 4.988081,-3.39766 10.568798,-7.28096 12.401576,-8.62955 1.83279,-1.34858 7.733023,-5.3757 13.111634,-8.94912 10.492766,-6.97113 13.829545,-10.12767 6.9396,-6.56474 -5.747183,2.97197 -10.288245,2.07523 -4.722495,-0.9326 2.199334,-1.18855 6.906585,-5.13734 10.460538,-8.77508 l 6.461738,-6.61411 -5.128801,0.95718 c -2.820852,0.52644 -7.542018,2.19888 -10.491503,3.71653 -7.06975,3.63773 -23.304481,16.09273 -33.292375,25.5413 -11.041552,10.44536 -13.99579,12.78168 -13.99579,11.06845 0,-2.21206 30.246241,-32.37747 38.655055,-38.55174 4.032125,-2.96063 11.221036,-7.25553 15.97536,-9.54421 12.446899,-5.991844 19.490537,-5.495625 23.335456,1.64394 2.03083,3.77103 2.113975,5.63126 0.754349,16.87784 -1.332195,11.01968 -2.074158,13.32154 -5.788993,17.95963 -3.493752,4.36204 -4.273692,6.5356 -4.331666,12.07155 -0.08375,7.99874 -3.057346,14.16463 -17.213343,35.69274 -11.198236,17.03002 -32.725154,39.04683 -32.725154,33.46989 z M 139.82643,179.43445 c 0,-0.39623 1.26674,-2.43383 2.815,-4.52795 2.62958,-3.55668 2.72175,-4.50064 1.39901,-14.32936 -1.34392,-9.98615 -0.11117,-52.09067 1.88551,-64.397032 5.27357,-32.503874 10.39128,-43.090923 23.89147,-49.424488 6.88249,-3.228896 13.78317,-3.188269 17.9946,0.105967 4.47663,3.501668 4.96912,3.366109 6.05282,-1.666167 1.81891,-8.446198 4.20431,-11.313963 11.39864,-13.703527 4.13297,-1.372748 9.07997,-2.018993 12.50244,-1.633242 5.15616,0.581185 5.97843,0.24346 9.18166,-3.771001 1.93508,-2.425152 3.5183,-5.297597 3.5183,-6.383231 0,-1.085634 1.57189,-3.210316 3.49309,-4.721529 4.24887,-3.342171 7.9578,-2.717678 16.78972,2.826911 5.26872,3.307674 7.40227,6.033949 13.17298,16.832601 11.16872,20.899859 14.69368,28.348742 18.03513,38.111611 3.65676,10.68413 3.86558,12.762642 1.28213,12.762642 -1.86068,0 -13.9601,-9.29383 -20.1238,-15.457526 -1.76195,-1.761965 -4.32211,-3.203558 -5.68926,-3.203558 -1.36715,0 -5.70147,-2.399281 -9.63185,-5.331733 -3.93039,-2.932453 -7.48768,-5.330906 -7.90512,-5.32988 -0.41742,10e-4 -0.84075,9.148267 -0.94072,20.327231 -0.12157,13.587766 -1.31392,28.499621 -3.59713,44.984641 -3.57334,25.80004 -5.3588,33.96786 -7.74805,35.4445 -2.20744,1.36426 -7.52101,-6.16621 -8.55068,-12.11817 -0.5073,-2.93246 -3.79327,-11.03002 -7.30214,-17.9946 -3.50887,-6.96457 -8.89974,-21.06034 -11.97972,-31.323926 -3.08,-10.263584 -5.72253,-18.802529 -5.87234,-18.975437 -0.14979,-0.172908 -3.14748,8.224574 -6.66154,18.661072 -12.57491,37.346571 -25.95769,64.869821 -38.4337,79.043311 -4.44165,5.04597 -8.97645,7.66885 -8.97645,5.19187 z m 16.48945,-26.93792 c 5.59355,-11.04992 16.56948,-46.30103 21.27014,-68.312823 4.76221,-22.299975 5.23432,-25.182829 4.45614,-27.210727 -1.07412,-2.799094 -5.71276,-2.70944 -6.80291,0.131427 -0.47388,1.234896 -2.66771,10.38215 -4.87517,20.327231 -3.77247,16.995844 -8.78601,35.686412 -14.50398,54.071142 -2.43162,7.81829 -4.91163,27.32513 -3.47398,27.32513 0.39861,0 2.16699,-2.84915 3.92976,-6.33144 z m 70.71275,-7.33114 c 4.24177,-20.77528 5.42943,-64.573004 2.23195,-82.308616 -2.1398,-11.868917 -7.34498,-24.476119 -9.77028,-23.664136 -2.06521,0.691405 -2.56882,16.973517 -0.95335,30.823026 4.91118,42.104326 5.37842,48.133566 4.69429,60.575846 -0.73048,13.28492 -0.23753,17.57299 2.02012,17.57299 0.64071,0 1.44048,-1.3496 1.77727,-2.99911 z m -77.21578,-4.66526 c 0.38869,-2.01606 3.11528,-13.86251 6.05912,-26.32543 9.18265,-38.875489 11.24416,-52.65086 7.87923,-52.65086 -2.31899,0 -5.33231,8.946755 -8.04173,23.876369 -4.2816,23.592891 -5.05639,28.331181 -6.55781,40.104421 -0.79467,6.23146 -1.7034,12.97944 -2.01938,14.9955 -0.31601,2.01606 -0.001,3.66557 0.69967,3.66557 0.70082,0 1.59222,-1.64951 1.9809,-3.66557 z m 69.98449,-20.66047 c -0.002,-4.58195 -0.90174,-13.7292 -1.99764,-20.327226 -1.09591,-6.598015 -2.62087,-19.494149 -3.38878,-28.658062 -1.42341,-16.986207 -2.50427,-25.623761 -3.31091,-26.45891 -0.24792,-0.256682 -1.15169,-0.03346 -2.00837,0.495958 -2.95969,1.829185 -5.2843,9.911998 -5.25035,18.255773 0.0584,14.35809 11.50048,65.023307 14.68464,65.023307 0.70207,0 1.2742,-3.74888 1.27141,-8.33084 z m 56.29702,-50.619237 c -0.77225,-0.934119 -2.47854,-4.397573 -3.79177,-7.696583 -5.09652,-12.803183 -19.96719,-36.224591 -24.56042,-38.682814 -2.74651,-1.469879 -6.61283,-0.425632 -6.61283,1.786078 0,0.81021 2.29928,3.895084 5.10948,6.855288 5.18598,5.46276 25.23935,32.481129 28.16422,37.946301 0.87922,1.642814 1.93534,2.650152 2.34697,2.238515 0.41164,-0.411623 0.11663,-1.512679 -0.65565,-2.446785 z M 251.61455,49.194208 c -1.66409,-2.382618 -3.38334,-4.631942 -3.82053,-4.998499 -0.43721,-0.366557 -2.23667,-2.765837 -3.9988,-5.331733 -1.76214,-2.565896 -3.83261,-5.103934 -4.60105,-5.640093 -1.95322,-1.362818 -4.58554,2.570335 -3.7805,5.648744 0.7506,2.870391 14.29409,13.628481 15.5615,12.361089 0.4497,-0.449705 0.81764,-0.117831 0.81764,0.737432 0,0.855303 0.64066,1.555093 1.42369,1.555093 0.78305,0 0.0622,-1.949414 -1.60195,-4.332033 z M 34.524705,109.46254 c 0,-0.7589 0.854997,-2.70831 1.899981,-4.33203 1.044995,-1.62372 3.386611,-9.022003 5.203603,-16.440639 3.486949,-14.236992 10.670255,-32.037809 16.23041,-40.220312 1.828569,-2.690979 3.324671,-5.393607 3.324671,-6.005851 0,-0.612242 1.78698,-3.322149 3.971071,-6.022018 7.577358,-9.366774 18.688794,-24.707303 18.688794,-25.801894 0,-1.5119063 -0.295399,-1.4503517 -7.159066,1.491752 -3.325923,1.425665 -8.624081,3.481395 -11.773667,4.568283 -3.149597,1.086899 -10.825,3.81632 -17.05647,6.065378 -6.23146,2.249059 -11.479886,4.092158 -11.663159,4.095784 -0.183283,0.004 -0.333231,-1.724536 -0.333231,-3.84034 0,-4.415995 2.702743,-6.048291 17.99459,-10.867698 22.302948,-7.029036 54.644218,-21.793484 53.124518,-24.252412 -1.07358,-1.737106 -24.883615,-0.477003 -30.365024,1.607023 -4.78418,1.8189478 -33.033381,20.654454 -36.16184,24.111363 -3.340878,3.691624 -4.596266,3.211169 -4.564415,-1.74685 0.02515,-3.9158772 1.360467,-5.3564047 13.900138,-14.9954978 7.62976,-5.8649053 17.358771,-12.3974262 21.620011,-14.5167102 l 7.747724,-3.853246 -6.652356,-3.089415 C 68.842189,-26.281966 60.50071,-30.104056 53.964369,-33.076319 35.515403,-41.4656 22.389866,-50.982242 24.518298,-54.426125 c 0.620077,-1.003304 3.855887,-1.196226 9.965826,-0.594169 7.589401,0.74784 10.308939,0.40822 16.873719,-2.107228 5.381624,-2.06209 10.952004,-3.044228 17.833685,-3.144333 8.53932,-0.124216 11.113752,0.414103 17.547361,3.66921 4.146887,2.098131 9.801346,6.130824 12.565454,8.961537 4.454827,4.562152 5.091587,6.057971 5.605957,13.169055 0.51418,7.108628 0.90361,8.024106 3.41917,8.038125 5.52181,0.03078 16.81833,3.764638 20.73149,6.852427 6.20087,4.892983 6.50011,7.658831 1.28879,11.9121008 -4.36429,3.561943 -4.41411,3.71567 -2.05044,6.3274865 3.93145,4.3442163 4.33959,12.5094577 0.9503,19.0119587 -2.97352,5.704848 -20.80316,28.309435 -25.05961,31.77081 -4.09273,3.32824 -15.129957,13.409493 -33.009629,30.150552 -9.530473,8.923534 -19.427501,17.952314 -21.993402,20.06394 -2.565891,2.111643 -6.464729,5.489793 -8.664064,7.507023 -4.234961,3.88427 -5.9982,4.56043 -5.9982,2.30017 z M 70.03229,71.854072 c 29.131942,-28.510374 49.80014,-55.791371 49.80014,-65.7337322 0,-6.72711456 -8.59344,1.9984796 -30.523618,30.9930562 -8.975404,11.86665 -17.190421,22.299025 -18.25559,23.18304 -7.21109,5.984669 1.912024,-9.016334 21.919032,-36.04114 6.708848,-9.062094 12.197916,-17.2300419 12.197916,-18.150978 0,-0.9209504 0.74977,-1.996348 1.66616,-2.3897892 0.91639,-0.3934423 0.0891,-0.4962777 -1.83847,-0.2285315 C 96.766725,4.6293606 90.337499,10.263162 73.751723,30.866378 62.652784,44.653718 61.00916,47.16891 54.153358,60.857374 c -7.405674,14.78632 -11.569655,32.65686 -7.60932,32.65686 0.745719,0 11.315436,-9.747069 23.488252,-21.660162 z m 16.476808,-98.1105 c 0,-1.937101 -8.180729,-8.140713 -19.089383,-14.475869 -6.309331,-3.664117 -9.943492,-6.536279 -9.204907,-7.274857 1.744538,-1.744542 14.433093,3.291127 24.201599,9.604821 4.499794,2.908355 8.461116,5.287918 8.802933,5.287918 1.562883,0 0.34801,-5.097534 -2.218079,-9.306961 -3.895482,-6.390147 -6.064273,-7.730393 -14.192235,-8.77038 -7.861224,-1.005856 -40.284321,0.523599 -40.284321,1.900284 0,1.003811 0.738462,1.422719 16.114993,9.141525 10.123695,5.081954 32.370386,14.592744 34.869694,14.907308 0.549839,0.06921 0.999706,-0.387001 0.999706,-1.013789 z M 207.06836,16.537346 c -1.21694,-7.0857402 -4.32797,-21.7765424 -5.36318,-25.3257311 -0.80367,-2.7553719 -0.44237,-2.9990989 4.44582,-2.9990989 4.89271,0 5.38758,0.334979 6.15367,4.1654158 0.4582,2.2909786 0.83308,6.87052346 0.83308,10.1767577 v 6.0113419 l 2.42254,-3.1788585 c 1.3324,-1.7483681 3.18415,-5.07883559 4.11502,-7.4010446 1.56725,-3.9098126 1.97398,-4.1240417 5.49766,-2.8956771 6.9982,2.4395868 7.34717,4.43500089 1.72026,9.8361401 -2.80028,2.6879128 -7.3216,6.3919877 -10.04738,8.2312877 -2.72576,1.839302 -5.31543,4.47679 -5.75478,5.861082 -1.28109,4.036348 -3.09553,2.917017 -4.02271,-2.481615 z m -68.29162,-43.23702 c -2.75266,-2.752671 -1.74453,-4.302579 4.90013,-7.533375 6.94445,-3.376565 12.55085,-3.438565 13.1776,-0.145728 0.26766,1.406177 -2.06192,3.112446 -7.27945,5.331733 -4.22018,1.795069 -8.0126,3.421213 -8.42759,3.613657 -0.41498,0.192442 -1.48179,-0.377388 -2.37069,-1.266287 z m -12.75882,-4.778756 c -0.42437,-0.68666 0.70946,-2.639862 2.51965,-4.340445 2.02453,-1.901942 3.29126,-4.571868 3.29126,-6.937087 0,-2.223987 0.56197,-3.497797 1.33293,-3.021318 2.72749,1.685681 1.35496,8.144213 -2.51965,11.856315 -2.11892,2.030056 -4.1998,3.129196 -4.62419,2.442535 z"
         id="path1633"
         inkscape:connector-curvature="0"
         sodipodi:nodetypes="csccscssscccscsscsscssccccccscsscscscsccccccccccscccccssccccccccccscssscssccscsccssccssccscsscsccccssccsccssssscsccsccsscssscssccsccsccssscsccssscccscscscccssccsccsscccsccccsccccccscccsscscsssssccscssscscsscsscsssscscsscsscccsssscssccsssssscsscsssssccssscccsscccsscccscssccc" />
    </g>
  </g>
</svg>
