<?xml version="1.0" encoding="UTF-8" standalone="no"?>
<!-- Created with Inkscape (http://www.inkscape.org/) -->

<svg
   xmlns:dc="http://purl.org/dc/elements/1.1/"
   xmlns:cc="http://creativecommons.org/ns#"
   xmlns:rdf="http://www.w3.org/1999/02/22-rdf-syntax-ns#"
   xmlns:svg="http://www.w3.org/2000/svg"
   xmlns="http://www.w3.org/2000/svg"
   xmlns:sodipodi="http://sodipodi.sourceforge.net/DTD/sodipodi-0.dtd"
   xmlns:inkscape="http://www.inkscape.org/namespaces/inkscape"
   width="300mm"
   height="400mm"
   viewBox="0 0 300 400"
   version="1.1"
   id="svg8"
   sodipodi:docname="Season4.svg"
   inkscape:version="0.92.5 (2060ec1f9f, 2020-04-08)"
   inkscape:export-filename="/mnt/34C9D8B93223F7D0/Projets/MahjongSolitaire/AssetsPreparation/Tiles/Tilesets/riichi-mahjong-tiles/Export/Regular/Season4.png"
   inkscape:export-xdpi="50.799999"
   inkscape:export-ydpi="50.799999">
  <defs
     id="defs2" />
  <sodipodi:namedview
     id="base"
     pagecolor="#ffffff"
     bordercolor="#666666"
     borderopacity="1.0"
     inkscape:pageopacity="0.0"
     inkscape:pageshadow="2"
     inkscape:zoom="0.49497475"
     inkscape:cx="349.97176"
     inkscape:cy="750.87772"
     inkscape:document-units="mm"
     inkscape:current-layer="g883"
     showgrid="false"
     inkscape:window-width="1680"
     inkscape:window-height="979"
     inkscape:window-x="1680"
     inkscape:window-y="40"
     inkscape:window-maximized="1" />
  <metadata
     id="metadata5">
    <rdf:RDF>
      <cc:Work
         rdf:about="">
        <dc:format>image/svg+xml</dc:format>
        <dc:type
           rdf:resource="http://purl.org/dc/dcmitype/StillImage" />
        <dc:title></dc:title>
      </cc:Work>
    </rdf:RDF>
  </metadata>
  <g
     inkscape:label="Calque 1"
     inkscape:groupmode="layer"
     id="layer1"
     transform="translate(0,103)">
    <g
       id="g883">
      <path
         style="fill:#00001b;fill-opacity:1;stroke-width:1.38727081"
         d="m 222.30078,114.03906 c -28.6157,3.14504 -54.44653,16.73908 -81.10122,26.56095 -5.08727,1.81058 -10.68065,-0.11695 -15.9889,0.027 -16.41175,-0.98196 -32.819754,-2.39694 -49.218472,-3.33992 -3.356276,0.9175 -2.325474,5.53018 -0.830079,7.68555 0.619783,1.58756 2.73957,4.67418 4.400391,3.01562 0.679906,-1.60554 0.474196,-4.68841 3.136719,-3.79687 13.43108,0.74024 26.232111,6.68364 39.840611,5.47679 11.30691,-0.29246 23.24536,-0.91924 33.17701,-6.92332 13.35788,-6.22216 27.25014,-11.27521 40.67345,-17.32565 7.79509,-2.26534 15.63772,-5.31364 23.74252,-5.87626 2.02151,1.16465 4.38275,4.77918 6.90625,2.37695 2.16385,-3.23296 -0.87907,-8.26194 -4.73828,-7.88086 z m -1.89453,15.24024 c -20.42324,3.39513 -39.38364,12.2363 -58.50466,19.79246 -6.22794,2.37125 -12.23817,5.61167 -18.48948,7.72121 -1.42551,-0.6224 -2.87136,-2.68184 -4.57031,-1.26367 -1.90894,1.13734 -0.53212,4.45908 -3.25977,4.55078 -6.45412,-0.24338 -12.59232,-2.91843 -19.06594,-3.38243 -9.67161,-1.14957 -19.300219,-2.08529 -28.779762,-4.33632 -2.355235,-0.2054 -6.588538,-1.00405 -6.77539,2.36719 0.575202,9.59814 3.316411,19.04451 6.696506,28.03155 1.732905,3.14477 2.229841,8.4496 6.559353,9.02118 2.546889,0.15888 2.656043,-2.93218 1.783203,-4.64063 -0.58681,-1.79137 -2.408958,-6.02819 0.912109,-6.08398 4.550441,0.28347 6.683681,6.13726 4.794921,9.86328 -0.53457,1.85306 1.99328,2.99001 2.83203,1.07227 3.19489,-3.1079 7.75187,-0.14729 10.32486,2.35021 2.02733,1.8501 5.23896,4.97321 8.09116,3.01893 1.79419,-1.50065 -0.27229,-5.75286 3.01758,-5.38477 5.13222,0.0684 8.68494,5.57627 13.73242,5.35156 2.03115,-2.09444 -1.08869,-4.62975 -2.61524,-5.92382 -2.10347,-1.81369 -4.87979,-2.99452 -6.29296,-5.50196 0.8215,-2.45527 1.93073,-5.95816 4.79492,-6.44922 4.45313,1.82032 3.94791,7.70425 4.94836,11.6169 1.02495,6.68592 0.0526,14.17997 3.54382,20.21709 1.13378,1.33771 3.70682,3.43934 5.03711,2.11719 1.12313,-7.3189 -1.70555,-14.78953 -0.0781,-21.96875 1.38379,-0.97511 3.26059,1.56509 4.57422,2.1289 3.38849,2.9865 6.68935,6.65737 7.74219,11.11914 0.19065,1.96197 -1.13021,6.21772 1.95507,6.24805 2.8351,-0.55743 5.26662,-2.40084 7.86328,-3.61328 2.06367,-1.05995 1.91425,-3.62733 0.47657,-5.11524 -1.54343,-3.91671 0.47121,-8.54696 2.93359,-11.54687 2.58478,0.25811 4.59098,2.62385 6.75781,3.95703 2.44012,2.38454 6.15365,4.98188 9.57813,2.85156 2.90297,-1.17637 4.98681,-3.67484 7.41406,-5.4414 1.65538,-0.0242 5.01423,-0.1314 4.29102,-2.67383 -2.17238,-3.0207 -1.61984,-8.29461 1.9375,-9.86719 5.11331,0.37221 7.50936,7.79969 13.04687,6.39063 4.42174,-2.52401 3.75264,-8.52593 4.56265,-12.83848 0.73811,-12.31324 3.15021,-24.5675 2.52334,-36.93366 0.17583,-1.78893 1.82319,-4.24869 -0.25982,-5.77083 -1.16368,-0.76016 -2.64367,-1.14027 -4.0332,-1.05078 z m -5.47461,4.33593 c 2.03246,0.52962 5.51152,2.07587 3.80227,4.60188 -1.06,2.59814 -1.70747,6.62846 -4.61086,7.65008 -1.9064,-1.31424 -3.55055,-3.04086 -5.43946,-4.36719 -1.85039,-1.82793 -0.48514,-4.68354 1.98592,-4.67032 1.79712,-0.45591 3.53988,-1.58877 4.26213,-3.21445 z m -20.66602,10.375 c 1.68906,0.0871 1.30449,1.92444 -0.27929,1.39258 -1.60006,0.0311 -1.71326,-1.0562 0.27929,-1.39258 z m 10.81836,1.36329 c 3.37894,0.0615 5.71514,3.36942 8.06641,5.08398 -1.89604,2.67779 -2.25833,6.95317 -5.51172,8.34375 -2.48911,-1.51077 -4.51646,-3.79355 -6.85937,-5.56641 -1.49254,-1.18016 -2.60414,-3.12858 -0.82032,-4.60546 1.18058,-1.69668 2.92389,-3.32208 5.125,-3.25586 z m -20.93554,0.92382 c 2.35987,1.74844 5.84026,3.13646 7.07812,5.78516 -0.83666,2.32665 -2.98247,4.44459 -5.17383,5.37305 -2.5806,-0.75591 -4.26482,-3.29303 -6.32226,-4.9336 -2.1144,-1.7589 -0.1306,-3.60837 1.73047,-4.20312 0.98787,-0.52068 1.88664,-1.42587 2.6875,-2.02149 z m -18.34766,8.11524 c 2.12846,0.30524 -0.36278,3.59362 -1.11523,1.26172 -0.13008,-0.64314 0.41906,-1.39123 1.11523,-1.26172 z m 8.37695,1.66601 c 3.50248,1.6558 7.08583,4.11986 9.03711,7.42579 -1.09752,2.42559 -4.44994,5.21598 -6.68924,2.36653 -2.04144,-1.91466 -6.67294,-3.03558 -5.28537,-6.67318 0.25233,-1.13848 1.34435,-3.88704 2.9375,-3.11914 z m 20.44922,-0.0898 c 3.92417,1.68243 8.49934,4.4418 9.44532,8.89648 0.0408,2.32505 -2.73157,5.06089 -4.81266,2.95788 -3.00501,-1.54634 -7.64323,-3.81382 -6.50766,-7.83873 0.21333,-1.42103 0.57989,-3.27132 1.875,-4.01563 z m -109.267575,0.21289 c 3.261189,1.67056 8.528511,0.68023 9.898437,4.87891 1.975507,2.43903 2.619695,6.10792 0.04297,8.41211 -1.357955,1.20618 -2.803321,4.23219 -4.170813,1.46788 -3.492665,-3.43157 -6.033204,-8.08069 -5.608484,-13.07921 -0.02693,-0.46861 -0.40993,-1.39617 -0.162109,-1.67969 z m 69.748045,2.89844 c 2.43708,0.20382 5.73635,0.71847 7.08985,2.86133 -0.87917,2.20473 -2.49762,5.23449 -5.01172,5.30859 -2.68926,-1.56626 -5.55303,-4.02918 -6.24024,-7.04883 0.97513,-1.15043 2.78827,-1.08416 4.16211,-1.12109 z m -47.67383,1.05859 c 2.34599,0.72068 6.87667,0.0964 7.20313,3.33399 -0.57543,2.26554 -1.70531,5.11864 -3.46094,6.33593 -3.02997,-1.84869 -8.02107,-5.70344 -4.56836,-9.47851 0.24127,-0.16138 0.53949,-0.22122 0.82617,-0.19141 z m 107.83399,0.16406 c 1.28311,0.18454 3.7249,-0.23414 2.3164,1.86133 -0.38818,1.75055 -2.02876,4.33949 -4.00195,3.54297 -0.481,-1.67818 0.0168,-4.59568 1.58789,-5.42773 z m -80.79102,4.58008 c 2.42272,-0.44484 5.29849,2.9195 2.5,4.46485 -2.25293,0.56932 -3.89425,-2.31486 -4.92383,-3.83204 0.59623,-0.63869 1.62089,-0.58725 2.42383,-0.63281 z m -13.74804,0.71289 c 4.07622,2.25183 8.00847,5.70552 9.80664,9.99024 -0.39522,3.33091 -4.6449,7.39142 -7.73438,4.27148 -2.41742,-1.74515 -5.06228,-4.00305 -6.93359,-5.95312 1.51976,-2.80184 2.28019,-6.22554 4.86133,-8.3086 z m 45.88867,1.82422 c 3.84516,0.40682 7.73444,2.46988 9.58789,5.9668 -0.79947,2.07513 -1.87088,5.9516 -4.5957,5.70898 -3.72134,-1.6978 -7.09246,-4.63627 -9.10157,-8.13867 -0.2105,-2.11608 2.21366,-3.65489 4.10938,-3.53711 z m -19.64258,0.32031 c 3.6496,1.26687 8.72152,4.92478 6.36523,9.3086 -0.81765,1.68737 -2.42786,4.24114 -4.45507,4.00781 -3.2708,-2.65891 -2.75958,-7.55828 -3.31641,-11.35937 -0.0779,-0.78852 0.16947,-2.6727 1.40625,-1.95704 z m 41.86914,0.17969 c 4.12287,1.80083 9.10886,4.96117 9.56836,9.80664 -1.2813,3.13948 -5.76822,2.31478 -7.33399,-0.1582 -2.11541,-1.78071 -4.54129,-3.14341 -6.65039,-4.93164 0.74607,-1.65241 2.10242,-5.43131 4.41602,-4.7168 z m -85.98242,2.0918 c 2.73056,1.11698 6.7075,3.59327 4.67187,6.9668 -0.41317,1.68917 -2.10321,3.78714 -3.75,1.95312 -1.66412,-1.12217 -3.47053,-2.37821 -5.054684,-3.43945 0.311856,-1.97657 1.615384,-6.18148 4.132814,-5.48047 z m 106.74023,0.11914 c 3.99576,0.10687 8.8123,4.80617 6.16211,8.74219 -2.68559,2.48465 -4.73666,-1.043 -6.33203,-2.87891 -1.35464,-1.40761 -3.04268,-5.59449 0.16992,-5.86328 z m -27.58008,8.06836 c 4.28819,1.63776 7.77196,4.96038 10.62891,8.4082 0.4346,2.06802 -1.06059,5.36585 -3.33008,5.43555 -3.7198,-0.61093 -6.50143,-3.66143 -9.44922,-5.74609 -2.32487,-2.44848 -0.75393,-6.54934 1.75586,-8.08594 l 0.19727,-0.0215 z m -22.01171,0.35156 c 3.87317,1.16117 7.88685,3.75254 9.15625,7.67578 0.10564,3.23742 -1.94817,6.87785 -4.31446,8.78125 -3.22955,-1.84879 -6.00928,-4.57871 -8.67773,-7.17383 -2.33013,-2.72781 0.0379,-6.73995 2.14453,-8.85156 0.49474,-0.33266 1.09841,-0.48267 1.69141,-0.43164 z m -44.36524,1.50781 c 2.36855,2.02316 5.86996,4.29599 5.89649,7.66797 -0.47426,1.43266 -1.4829,4.29516 -3.15242,2.22491 -2.74297,-1.82763 -5.67581,-3.78657 -7.6679,-6.36749 0.9311,-1.725 2.31288,-3.27047 4.08985,-4.14257 l 0.42535,0.31478 z"
         id="path885"
         inkscape:connector-curvature="0" />
      <path
         style="fill:#b93c3c;fill-opacity:1;stroke-width:1.38727081"
         d="m 110.19473,57.339337 c -7.9437,-4.491817 -8.96677,-17.87822 -1.94793,-25.487936 3.74143,-4.056421 3.34533,-4.766037 -2.66039,-4.766037 -7.248406,0 -16.613027,3.450044 -22.436936,8.266039 l -4.848926,4.009753 3.251332,3.460878 c 1.78823,1.903489 6.275691,4.76193 9.972131,6.352097 11.353749,4.88425 10.569969,8.204375 -1.215127,5.147357 C 72.889013,49.802834 64.16998,37.765517 65.441776,19.99048 66.253409,8.6468419 70.296921,1.4926106 79.604687,-5.0681026 l 6.02793,-4.2488772 -2.601638,-5.7292472 c -3.462466,-7.624947 -3.326014,-11.111475 0.967973,-24.732615 6.601972,-20.942389 20.488948,-30.182237 42.774088,-28.460214 18.95519,1.464713 28.63399,10.430945 31.41034,29.097892 1.71502,11.53088 2.82988,12.601985 8.38895,8.059628 2.62757,-2.147 2.93221,-3.024664 1.54095,-4.439274 -2.58452,-2.627912 -2.11236,-10.146822 0.80288,-12.785074 6.26451,-5.669307 16.88483,0.156969 16.88483,9.262957 0,5.688847 -1.679,7.292634 -9.01726,8.613293 -10.73879,1.932654 -11.68654,5.161235 -2.68407,9.143469 l 6.33322,2.801477 3.31144,-3.573126 c 5.96366,-6.434879 16.63029,-3.786958 18.18777,4.514994 0.78666,4.193257 0.38397,5.347894 -2.82885,8.1114543 -5.71309,4.9141869 -11.24963,4.2546854 -17.27751,-2.0580523 -4.51245,-4.725703 -18.81842,-12.733325 -20.10826,-11.255395 -0.2794,0.320138 -0.91526,4.72163 -1.41303,9.781113 l -0.90505,9.1990557 10.44507,0.9787884 c 21.5191,2.01649875 35.37832,13.4757869 35.37832,29.2520069 v 7.161204 l -8.63904,5.399451 c -11.73564,7.334825 -15.6368,8.661998 -25.34909,8.623791 -11.87567,-0.04667 -15.25999,-1.235875 -15.25999,-5.361961 0,-3.100631 0.70572,-3.487938 8.02028,-4.401627 9.27425,-1.158475 16.01344,-4.031476 20.39375,-8.694105 l 3.08632,-3.28522 -5.34564,-1.574936 c -2.9401,-0.866215 -10.49588,-1.937779 -16.79063,-2.381256 -6.29474,-0.443465 -11.44498,-1.342582 -11.44498,-1.998033 0,-0.65545 -0.97325,-1.191724 -2.16278,-1.191724 -1.18953,0 -1.77695,-0.624272 -1.3054,-1.38727 1.49853,-2.424656 19.14409,-1.568132 27.87689,1.353159 4.50569,1.50724 8.66036,2.755782 9.23261,2.774539 2.2752,0.07453 0.79701,-3.00189 -3.98618,-8.296323 C 178.57669,7.7022093 170.59844,3.2616369 162.47794,1.4780843 157.73277,0.43586384 157.323,-0.31530499 156.79292,-8.94346 c -0.20959,-3.411379 -1.48742,-8.405549 -2.83965,-11.098169 -1.35223,-2.692619 -3.24276,-7.392751 -4.20118,-10.444744 -0.95842,-3.051994 -2.22123,-6.071935 -2.80624,-6.710968 -3.04938,-3.330969 -16.52885,22.175847 -16.59684,31.4057452 -0.0311,4.2197799 0.89874,6.15940553 4.65527,9.7108988 5.91899,5.5958919 9.68465,11.514003 8.52266,13.394158 -1.38782,2.245517 -3.08236,1.745693 -6.84795,-2.019901 -3.39649,-3.396505 -9.07156,-4.473351 -13.8703,-2.631895 -1.19862,0.45995 -2.85109,3.331081 -3.67215,6.380277 -1.27614,4.7392 -1.12912,5.945921 1.01274,8.312662 2.23746,2.472352 3.58328,2.667662 12.57595,1.824971 5.72846,-0.5368 10.07037,-0.406411 10.07037,0.302422 0,0.685342 -1.80167,2.972177 -4.00369,5.081854 -2.67234,2.560272 -3.76584,4.745277 -3.28843,6.570887 0.39339,1.504319 -0.38044,5.164916 -1.71959,8.134653 -3.61069,8.007062 -16.12757,12.289144 -23.58916,8.069946 z m 16.32415,-6.323559 c 2.68778,-2.982485 4.18826,-8.854353 2.76463,-10.81888 -0.57984,-0.800153 -3.83717,-2.268694 -7.23851,-3.263441 -5.82675,-1.704072 -6.328,-1.631139 -8.67045,1.261681 -3.27132,4.039903 -3.14721,8.466587 0.3424,12.212237 3.4185,3.669338 9.77139,3.971256 12.80193,0.608403 z M 87.998401,25.03096 c 4.760813,-1.961169 11.144177,-3.442926 14.913159,-3.46175 5.89743,-0.02943 6.59008,-0.360773 6.59473,-3.154293 0.008,-4.73779 4.98201,-11.9006721 10.54251,-15.1814486 5.88194,-3.4704345 5.81861,-5.2488502 -0.68749,-19.3053194 -4.60419,-9.947371 -12.96913,-19.979493 -17.79081,-21.336613 -2.498964,-0.70336 -3.247559,-0.178579 -3.995349,2.800828 -1.433948,5.713321 0.264898,21.090092 2.748909,24.8811677 3.25052,4.9609216 2.90999,5.659324 -4.056821,8.3199698 -7.522838,2.8729999 -13.860293,7.9484418 -16.642292,13.3282305 -2.092644,4.046729 -2.841653,16.555904 -0.990626,16.544478 0.572248,-0.0034 4.786083,-1.549398 9.36408,-3.43525 z m 43.751439,-56.288143 c 3.13767,-4.620439 7.2187,-9.090545 9.06895,-9.933572 4.34955,-1.981795 4.24215,-2.876481 -0.86081,-7.170335 -8.18642,-6.888417 -22.89528,-8.215813 -31.14462,-2.810643 l -3.9726,2.602944 4.75789,1.339639 c 5.83589,1.643147 7.03726,3.168528 11.82055,15.00869 2.08065,5.150233 3.97262,9.36407 4.20438,9.36407 0.23176,0 2.98857,-3.780355 6.12626,-8.400793 z m 13.39558,72.715393 c -1.10833,-1.108339 0.14455,-3.274677 1.89386,-3.274677 0.71797,0 1.3054,0.936396 1.3054,2.080904 0,2.145288 -1.63693,2.756097 -3.19926,1.193773 z M 31.110916,22.913181 C 28.366313,19.880436 27.95589,11.334302 30.412683,8.3740435 32.36208,6.0251641 41.331555,4.6879753 44.339532,6.2977946 c 1.839769,0.9846078 3.88421,0.2017897 8.475409,-3.2452554 3.327925,-2.49858509 9.014946,-6.3849543 12.637826,-8.6363691 3.62288,-2.2514147 6.588172,-4.5323521 6.589538,-5.0687271 0.0032,-1.263214 -9.36526,-3.862476 -13.9575,-3.87247 -2.14344,-0.0045 -5.13238,1.638223 -7.526169,4.136797 -9.497704,9.91347181 -23.247472,4.8090221 -20.890385,-7.755326 0.619198,-3.300607 2.086516,-5.328376 4.913543,-6.790292 5.653475,-2.923517 7.593649,-2.639841 12.790663,1.87014 3.5297,3.063084 6.459037,4.147317 12.995232,4.809918 4.641081,0.470481 9.479189,1.254843 10.751348,1.743018 3.855422,1.479463 2.719256,-2.951406 -1.955507,-7.626168 -2.840637,-2.840646 -5.639929,-4.268529 -8.368183,-4.268529 -7.106688,0 -13.253612,-3.406555 -14.095703,-7.811673 -1.405163,-7.350627 3.564036,-11.610125 13.544559,-11.610125 6.928447,0 9.520042,3.309135 8.488071,10.838162 -0.774138,5.647954 -0.437772,6.621963 3.972717,11.503852 9.169427,10.149463 7.809328,14.921062 -6.902924,24.2173472 C 54.662164,5.7710999 48.461181,11.723781 48.461181,15.378614 c 0,1.65492 -1.293855,4.653822 -2.875231,6.66421 -3.594267,4.569373 -10.738706,4.998961 -14.475034,0.870357 z"
         id="path887-3"
         inkscape:connector-curvature="0"
         sodipodi:nodetypes="scssccsssscssscssssscccccscccsscscssccscsscsccccsscccccccccscccsccscsccccsscccsscccssscccsccssccscssccsscscscssssssscc" />
      <path
         style="fill:#004900;fill-opacity:1;stroke-width:1.38727081"
         d="m 44.523084,135.16 c -1.421459,-3.36067 -3.490635,-8.60738 -4.598168,-11.65938 l -2.013678,-5.54907 -11.092685,0.48225 c -12.027459,0.52289 -21.3627676,-2.06048 -21.3627676,-5.91174 0,-3.55944 5.7303326,-5.43266 17.8470636,-5.83413 6.382392,-0.21146 11.979179,-0.75931 12.437294,-1.21745 0.458125,-0.45811 -0.23786,-6.035093 -1.546634,-12.39329 -2.702702,-13.130168 -2.978623,-19.84298 -1.026642,-24.977089 1.506669,-3.962835 4.377107,-4.602659 6.917335,-1.541867 0.920515,1.109137 8.956417,6.168249 17.857572,11.242457 18.633254,10.622123 26.167524,16.15431 39.929532,29.319109 12.101154,11.57601 18.554214,21.23628 14.185864,21.23628 -1.83015,0 -43.74605,-25.93035 -44.878907,-27.76334 -1.554769,-2.515687 -16.215186,-9.973655 -17.33438,-8.818264 -0.642625,0.663407 -1.34585,4.230412 -1.562726,7.926683 -0.46183,7.871211 0.258317,8.484301 11.429643,9.730601 7.529107,0.83996 15.952096,3.57857 18.360726,5.96972 0.64421,0.63954 -5.598511,1.78707 -13.872703,2.55007 l -15.044008,1.38727 v 9.93285 c 0,5.46308 -0.460622,10.39765 -1.023621,10.96574 -0.562999,0.56807 -2.18664,-1.71676 -3.60811,-5.07741 z m 198.156016,2.98884 c 0,-0.71796 0.59704,-1.67439 1.32673,-2.12536 1.61026,-0.9952 15.38815,-20.87518 20.42922,-29.47709 3.01307,-5.14144 3.30305,-6.43325 1.69159,-7.535937 -2.89809,-1.983106 -18.02626,-0.461324 -36.41606,3.663177 -8.97504,2.01293 -17.29535,3.46471 -18.48959,3.22617 -3.67196,-0.73343 18.58303,-16.299901 33.63899,-23.529133 16.19321,-7.77528 25.38516,-9.885332 37.60787,-8.633083 12.27574,1.257683 13.40176,2.398867 14.07205,14.261363 0.78176,13.835203 -0.73512,16.679303 -11.80803,22.139603 -13.36711,6.59164 -22.29274,12.60459 -31.8644,21.46628 -8.51612,7.88443 -10.18837,8.95852 -10.18837,6.54401 z M 121.2929,120.36035 C 115.18891,114.45754 103.57707,102.76098 95.48883,94.367993 87.400593,85.975004 75.547683,74.425975 69.149036,68.703483 53.846206,55.017728 45.718021,45.522196 45.695784,41.304885 c -0.01399,-2.64406 3.818293,-2.068465 6.927216,1.040452 1.525997,1.525999 3.953036,2.774543 5.393408,2.774543 1.440384,0 5.654221,2.077082 9.36408,4.615737 3.709863,2.538658 9.641,6.30288 13.180302,8.364939 3.539302,2.062057 8.481709,5.842369 10.983131,8.40069 4.872061,4.982881 16.160209,22.189118 24.197759,36.884004 7.03225,12.85691 12.53082,19.2024 14.7418,17.01239 1.90465,-1.88656 -0.61861,-11.85917 -6.04863,-23.905848 -2.3619,-5.239915 -2.68431,-8.139589 -2.08241,-18.728155 0.71435,-12.56673 1.76565,-17.383779 3.79393,-17.383779 2.02654,0 2.91616,7.2232 2.02787,16.465142 -0.94868,9.870225 0.72471,16.829355 4.04677,16.829355 2.89154,0 4.8134,-6.834512 5.87451,-20.890783 0.51499,-6.822044 1.37054,-12.403714 1.90121,-12.403714 1.75491,0 4.50929,23.529445 3.52373,30.101668 -0.52996,3.534031 -2.78268,11.359184 -5.00602,17.389254 -2.22337,6.03004 -4.04247,13.73037 -4.04247,17.11182 0,3.38144 -0.46821,6.13954 -1.04045,6.12911 -0.57226,-0.0112 -6.03464,-4.84853 -12.13862,-10.75136 z m 38.82697,-4.58793 c -1.6547,-9.79419 3.72036,-32.13093 12.44673,-51.723869 1.98985,-4.467701 4.53307,-9.038264 5.6516,-10.1568 1.11854,-1.118536 2.0337,-2.54225 2.0337,-3.163811 0,-0.621564 2.28184,-2.212907 5.07071,-3.53632 2.78889,-1.323414 9.18768,-5.061126 14.21953,-8.306023 10.23472,-6.600071 19.20312,-9.036321 33.14752,-9.004448 13.23935,0.03022 14.86346,1.642666 6.11824,6.074209 -13.82275,7.004512 -48.8451,31.896938 -48.8451,34.717052 0,0.94008 -1.56465,3.179153 -3.47698,4.975694 -3.28271,3.083959 -22.88116,40.983646 -22.88116,44.247856 0,0.8381 -0.5694,1.52382 -1.26533,1.52382 -0.69594,0 -1.6947,-2.54132 -2.21946,-5.64736 z m 15.97023,-3.09831 c 0,-8.01436 32.33831,-44.480589 49.76559,-56.118085 18.4387,-12.312887 39.55736,-13.144877 58.92277,-2.321326 5.95844,3.330223 10.61693,7.988164 10.61693,10.615652 0,0.593226 -5.16278,1.078588 -11.47286,1.078588 -15.47182,0 -41.08685,6.872041 -47.3441,12.701561 -1.49162,1.389686 -3.85057,2.888035 -5.24205,3.329674 -1.3915,0.441637 -2.52999,1.385187 -2.52999,2.096774 0,0.711576 -0.46821,1.158788 -1.04045,0.993799 -2.12379,-0.612326 -22.12669,10.431182 -34.03672,18.791523 -16.48589,11.57242 -17.63912,12.14984 -17.63912,8.83184 z"
         id="path887-6"
         inkscape:connector-curvature="0"
         sodipodi:nodetypes="cscssccsscsssscsscscsccscscsssssssscsscsssscsccsscscsccsccscsscsssssssssscssccsscs" />
      <path
         style="fill:#000000;fill-opacity:1;stroke-width:1.38727081"
         d="m 162.21739,259.14139 c -1.1445,-0.43252 -4.57799,-2.48741 -7.63,-4.5664 -41.22961,-28.0852 -60.855913,-34.20141 -118.264828,-36.85527 -23.846647,-1.10237 -25.156742,-1.88348 -14.561844,-8.68221 15.758158,-10.112 30.551437,-14.50517 54.615981,-16.21943 24.376121,-3.42203 60.854761,10.32822 75.397891,24.2588 19.49652,-11.21461 47.76816,-24.91156 66.62726,-29.81476 12.05422,-3.61672 39.7526,-4.66379 49.94175,-1.88793 8.29889,2.26088 14.56635,5.49917 14.56635,7.52616 0,1.04798 -2.46494,2.18969 -5.89591,2.73087 -10.17108,1.60428 -34.56799,8.97444 -45.99822,13.89578 -19.60113,8.43938 -32.02242,16.9871 -49.87189,34.31943 -9.23276,8.96523 -16.80006,16.25113 -16.81623,16.1909 -0.0162,-0.0602 -0.96582,-0.46341 -2.11031,-0.89594 z m 8.84348,-21.36389 c 9.95519,-10.92422 23.85987,-21.97528 35.96848,-28.58674 14.46313,-7.89708 12.09822,-6.20903 13.38418,-7.22299 1.00667,-0.79374 4.63154,-2.71129 4.63154,-2.71129 1.51216,-0.66807 5.54817,-1.96225 5.54817,-2.80689 0,-0.93406 -5.51249,-0.007 -6.98912,0.62635 -1.33525,0.57221 -6.74568,2.50199 -12.02315,4.28839 -9.06679,3.06902 -24.54445,10.03469 -47.89081,21.55306 l -10.31902,5.09109 -5.35648,-4.58494 c -7.1256,-6.09926 -23.85721,-14.02767 -35.41253,-16.78052 -11.37517,-2.70993 -40.698499,-4.15404 -53.827663,-2.65087 -11.367766,1.30149 -11.196787,1.36736 18.125767,6.98261 32.623366,6.24738 46.689376,11.6737 73.525346,28.36428 6.104,3.79636 11.50186,6.90983 11.99526,6.91879 0.49342,0.008 4.38142,-3.80717 8.64003,-8.48033 z m 39.03534,-47.36236 4.87342,-1.49571 c 3.84885,4.70159 -9.91207,6.43695 -4.87342,1.49571 z"
         id="path887-7"
         inkscape:connector-curvature="0"
         sodipodi:nodetypes="ccssccccscscccccsssccscsscscccccc" />
    </g>
  </g>
</svg>
