<?xml version="1.0" encoding="UTF-8" standalone="no"?>
<!-- Created with Inkscape (http://www.inkscape.org/) -->

<svg
   xmlns:dc="http://purl.org/dc/elements/1.1/"
   xmlns:cc="http://creativecommons.org/ns#"
   xmlns:rdf="http://www.w3.org/1999/02/22-rdf-syntax-ns#"
   xmlns:svg="http://www.w3.org/2000/svg"
   xmlns="http://www.w3.org/2000/svg"
   xmlns:sodipodi="http://sodipodi.sourceforge.net/DTD/sodipodi-0.dtd"
   xmlns:inkscape="http://www.inkscape.org/namespaces/inkscape"
   width="300mm"
   height="400mm"
   viewBox="0 0 300 400"
   version="1.1"
   id="svg8"
   sodipodi:docname="Season2.svg"
   inkscape:version="0.92.5 (2060ec1f9f, 2020-04-08)"
   inkscape:export-filename="/mnt/34C9D8B93223F7D0/Projets/MahjongSolitaire/AssetsPreparation/Tiles/Tilesets/riichi-mahjong-tiles/Export/Regular/Season2.png"
   inkscape:export-xdpi="50.799999"
   inkscape:export-ydpi="50.799999">
  <defs
     id="defs2" />
  <sodipodi:namedview
     id="base"
     pagecolor="#ffffff"
     bordercolor="#666666"
     borderopacity="1.0"
     inkscape:pageopacity="0.0"
     inkscape:pageshadow="2"
     inkscape:zoom="0.49497475"
     inkscape:cx="424.94873"
     inkscape:cy="745.10166"
     inkscape:document-units="mm"
     inkscape:current-layer="g2439"
     showgrid="false"
     inkscape:window-width="1680"
     inkscape:window-height="979"
     inkscape:window-x="1680"
     inkscape:window-y="40"
     inkscape:window-maximized="1" />
  <metadata
     id="metadata5">
    <rdf:RDF>
      <cc:Work
         rdf:about="">
        <dc:format>image/svg+xml</dc:format>
        <dc:type
           rdf:resource="http://purl.org/dc/dcmitype/StillImage" />
        <dc:title></dc:title>
      </cc:Work>
    </rdf:RDF>
  </metadata>
  <g
     inkscape:label="Calque 1"
     inkscape:groupmode="layer"
     id="layer1"
     transform="translate(0,103)">
    <g
       id="g883">
      <path
         style="fill:#000000;fill-opacity:1;stroke-width:1.38727081"
         d="m 162.21739,259.14139 c -1.1445,-0.43252 -4.57799,-2.48741 -7.63,-4.5664 -41.22961,-28.0852 -60.855913,-34.20141 -118.264828,-36.85527 -23.846647,-1.10237 -25.156742,-1.88348 -14.561844,-8.68221 15.758158,-10.112 30.551437,-14.50517 54.615981,-16.21943 24.376121,-3.42203 60.854761,10.32822 75.397891,24.2588 19.49652,-11.21461 47.76816,-24.91156 66.62726,-29.81476 12.05422,-3.61672 39.7526,-4.66379 49.94175,-1.88793 8.29889,2.26088 14.56635,5.49917 14.56635,7.52616 0,1.04798 -2.46494,2.18969 -5.89591,2.73087 -10.17108,1.60428 -34.56799,8.97444 -45.99822,13.89578 -19.60113,8.43938 -32.02242,16.9871 -49.87189,34.31943 -9.23276,8.96523 -16.80006,16.25113 -16.81623,16.1909 -0.0162,-0.0602 -0.96582,-0.46341 -2.11031,-0.89594 z m 8.84348,-21.36389 c 9.95519,-10.92422 23.85987,-21.97528 35.96848,-28.58674 14.46313,-7.89708 12.09822,-6.20903 13.38418,-7.22299 1.00667,-0.79374 4.63154,-2.71129 4.63154,-2.71129 1.51216,-0.66807 5.54817,-1.96225 5.54817,-2.80689 0,-0.93406 -5.51249,-0.007 -6.98912,0.62635 -1.33525,0.57221 -6.74568,2.50199 -12.02315,4.28839 -9.06679,3.06902 -24.54445,10.03469 -47.89081,21.55306 l -10.31902,5.09109 -5.35648,-4.58494 c -7.1256,-6.09926 -23.85721,-14.02767 -35.41253,-16.78052 -11.37517,-2.70993 -40.698499,-4.15404 -53.827663,-2.65087 -11.367766,1.30149 -11.196787,1.36736 18.125767,6.98261 32.623366,6.24738 46.689376,11.6737 73.525346,28.36428 6.104,3.79636 11.50186,6.90983 11.99526,6.91879 0.49342,0.008 4.38142,-3.80717 8.64003,-8.48033 z m 39.03534,-47.36236 4.87342,-1.49571 c 3.84885,4.70159 -9.91207,6.43695 -4.87342,1.49571 z"
         id="path887-7"
         inkscape:connector-curvature="0"
         sodipodi:nodetypes="ccssccccscscccccsssccscsscscccccc" />
      <g
         id="g2439"
         transform="translate(-6.08876,6.9899)"
         style="fill:#004900;fill-opacity:1">
        <path
           style="fill:#b93c3c;fill-opacity:1;stroke-width:1.25592208"
           d="m 124.87891,-73.054688 c -8.92405,0.01524 -13.77559,12.033816 -8.60352,18.84961 2.65747,4.402412 7.40628,9.934979 4.72461,15.25 -3.50393,-0.51841 -6.5151,-3.129219 -9.79904,-4.51089 -7.60824,-3.794193 -15.706257,-7.732633 -24.35721,-7.854344 -5.495696,0.639099 -11.652026,3.575528 -13.416016,9.18164 0.645099,3.037121 4.716453,1.571093 6.804688,1.667969 6.470868,-0.858094 12.88691,-0.06466 18.679036,3.147756 7.572462,3.331495 15.061602,6.882403 22.606122,10.301463 -0.22283,4.613931 0.56034,9.330821 -0.63477,13.859375 -7.05579,-3.533978 -12.93999,-9.16727 -20.42773,-11.90625 -2.657707,1.543697 -0.763957,5.101281 -0.92383,7.492187 0.383661,2.889974 1.6747,5.863604 0.72656,8.7675782 -9.836586,2.4555081 -18.85475,7.3168782 -27.751873,12.0438858 -2.286019,1.6683217 -5.47537,2.7017507 -6.97664,5.1631455 -0.360674,2.8237965 3.360585,2.1349145 4.932534,3.0061645 8.463487,2.943737 16.511717,7.169965 23.778403,12.29071 2.868945,1.732836 7.140466,-1.809593 4.861328,-4.777343 C 94.312957,14.135007 87.938401,11.18471 82.789062,6.9140625 88.882832,3.4352342 95.682267,1.1731179 102.66016,0.39648438 103.84426,6.0358635 103.10216,12.49451 106.29688,17.5 c 0.89404,0.771711 2.23299,0.873199 3.28906,0.392578 -7.43456,3.45223 -14.808933,7.256181 -21.173831,12.458984 -3.516289,2.452615 -7.05475,-1.45533 -9.93164,-3.142578 -5.791721,-4.511769 -11.483351,-9.546423 -18.265625,-12.574218 -1.551219,-0.827913 -4.603216,-0.498538 -3.796875,1.849609 4.11227,5.343152 9.865413,9.28598 14.759314,13.912145 2.507918,2.2184 5.003403,4.453936 7.383264,6.810511 -2.66804,0.923216 -5.405093,5.680761 -8.021485,3.734375 -7.967004,-5.939375 -16.030417,-13.533028 -26.412109,-14.375 -2.64403,0.81494 -1.281583,4.3365 0.294922,5.585938 4.920471,6.118808 11.86244,10.122057 18.130859,14.662109 2.498859,1.042566 4.914674,2.310728 6.695313,4.365235 4.105349,2.304818 8.005832,-1.888869 11.103515,-4.087891 1.638426,-1.010935 3.392696,-4.051107 5.331724,-3.339815 8.855926,9.65957 18.305664,19.021764 25.025694,30.365206 -2.24351,0.443145 -5.14128,-1.645637 -6.98242,0.11914 0.3975,2.228468 3.88961,1.902935 5.50782,2.824219 22.44344,6.473864 45.55359,10.263693 68.56231,14.110124 11.78533,1.831137 23.70466,3.137445 35.49433,4.622298 3.65329,-0.229682 3.31734,-2.750714 6.14299,-5.578257 5.79014,-5.396053 12.43067,-10.972553 13.89021,-18.501821 -3.67072,-2.980332 -4.17879,-8.181279 -6.36017,-12.158717 -5.02722,-11.459877 -11.31832,-22.757805 -20.43866,-31.462377 -8.07913,-6.067525 -18.76024,-7.205542 -28.55997,-6.869607 -2.64314,0.249098 -5.28477,0.884486 -7.64315,2.129372 7.81877,-6.1919 14.29495,-14.0260853 19.63867,-22.398437 1.27256,-1.92328397 0.40653,-4.5395819 -2.00586,-4.8359375 -5.54701,-1.6574147 -11.33357,0.5488258 -16.8086,0.9609375 0.0945,-4.3644453 2.67773,-9.519146 -0.125,-13.587891 -4.51198,-2.59643 -9.727,0.476189 -14.38936,1.111194 -2.85804,0.085 -7.12252,3.098185 -9.01551,1.187115 -2.68287,-5.899513 -5.36484,-11.799434 -8.04825,-17.698699 -4.0481,5.488545 -7.7471,11.195732 -12.06055,16.482422 -0.32224,-5.517518 0.64498,-11.712605 5.51953,-15.089844 6.7923,-6.314804 13.14325,-13.955308 21.95118,-17.289063 3.38876,-1.021401 7.41105,0.181708 10.50195,-1.412109 1.23263,-2.376555 -1.64328,-4.501749 -3.03906,-6.046875 -5.21714,-3.744509 -11.83401,-0.123211 -16.30452,3.111034 -5.66871,3.863143 -10.49059,9.872635 -17.23064,11.576466 -0.78932,-3.061534 2.5681,-5.574487 3.9261,-8.122096 3.89527,-5.560569 6.70974,-13.962737 1.84259,-19.822368 -2.31865,-2.933756 -6.04779,-4.703644 -9.79603,-4.532099 z m 2.57031,7.216797 c 4.21622,0.353349 4.01456,5.728731 3.27344,8.777344 -0.30715,2.477099 -2.33843,6.503644 -5.38672,4.830078 -2.93237,-2.26455 -5.77405,-6.398959 -4.42578,-10.177734 1.25369,-2.27855 3.99414,-3.538202 6.53906,-3.429688 z m 11.03906,50.566407 c 3.61395,9.1354296 5.468,18.9629976 7.24219,28.625 0.70062,1.026605 1.69585,1.831324 2.80273,2.384765 -8.74165,-2.611086 -18.18582,-3.573227 -27.17773,-1.724609 4.03558,-1.294407 3.77878,-6.1615038 5.62865,-9.1812687 3.1998,-6.9695246 6.5175,-14.3297085 11.50416,-20.1038873 z m -27.93164,5.6601559 c 3.50417,1.4766692 6.13518,4.7640332 10.00195,5.421875 0.98921,3.99125681 -2.18065,7.5270214 -2.30273,11.5019531 -0.45223,2.1616064 -1.41134,5.784056 0.86133,6.980469 2.10496,-0.05635 -0.98631,0.386559 -1.58985,0.68164 -2.64058,0.773776 -5.2242,1.735361 -7.74609,2.833985 3.30269,-1.700899 1.98118,-6.061023 2.17913,-9.0375563 -0.3043,-6.1258005 -1.7769,-12.2801216 -1.40374,-18.3823658 z m 51.38867,1.5976562 c 2.83549,0.9312277 0.86586,5.0331165 0.29492,6.8828125 -1.99123,4.7874095 -5.27845,10.225475 -9.30468,12.7929684 -1.6667,-4.4549585 -2.96737,-9.2398134 -2.68164,-13.9179684 2.82891,-3.4453061 7.32621,-5.3583397 11.6914,-5.7578125 z m 16.24024,12.2441407 c -4.45727,6.4973562 -12.40932,11.2248382 -13.97657,19.4199222 -0.0875,1.508267 2.03147,2.409025 2.81641,1.939453 -3.69181,0.734029 -5.26101,-3.936037 -8.36425,-5.146761 -2.13611,-1.389248 -4.42228,-2.541583 -6.78223,-3.499724 1.78568,0.223627 3.85712,1.404935 5.37304,1.261719 5.07636,-6.196125 10.75633,-13.0002575 19.17698,-14.0266158 0.29942,0.1035693 2.92692,-1.1084236 1.75662,0.052007 z M 136.55664,19.535156 c 10.58534,-0.116454 20.5137,7.506744 23.97122,17.526179 2.70473,6.667411 4.81415,13.924681 4.46237,21.151556 -0.41018,1.483187 -1.17864,3.519381 -2.63476,3.939453 -3.77127,-3.660418 -5.38278,-10.163237 -10.54492,-12.369141 -2.63957,0.72485 -0.56829,3.82596 -0.27312,5.475051 1.68658,7.747152 5.25232,15.03937 6.4528,22.874558 0.24613,3.064677 -3.59346,1.543955 -5.33383,1.936057 -2.47782,-0.21598 -5.84494,0.420603 -7.62124,-1.266135 -2.91067,-9.153617 -2.77705,-19.291773 -7.32828,-28.032116 -2.03793,-4.549333 -4.66602,-9.685187 -9.20102,-11.987415 -2.62734,0.919359 -0.46346,4.320431 -0.46289,6.193359 0.57277,2.486283 1.3204,4.954526 1.5,7.511719 -5.92764,-3.056483 -10.33325,-8.479692 -16.54883,-11.048828 -2.53804,1.673145 -0.72266,5.343517 0.12881,7.472417 5.00164,9.186252 15.7016,13.350791 20.74228,22.549068 1.14975,1.772694 2.20048,3.820971 2.3711,5.884765 -4.36261,-0.122832 -9.3367,0.243997 -13.0918,-2.259765 -3.1725,-4.273533 -5.19014,-9.31412 -8.85009,-13.301857 C 107.59621,53.002589 99.870633,45.077994 92.134766,37.21875 102.77454,28.241811 115.96762,22.265799 129.61523,19.943359 c 2.30025,-0.320236 4.62132,-0.405716 6.94141,-0.408203 z m 45.86914,10.404297 c 2.79789,0.09692 6.97656,0.07914 8.88477,1.46875 -5.41672,4.423473 -11.42012,8.141149 -16.16172,13.361844 -1.84388,2.691506 -2.69868,1.491422 -3.09805,-1.217313 -1.04289,-3.936251 -2.67571,-8.095527 -2.45312,-12.091796 2.99963,-1.737992 6.77487,-0.598297 10.05995,-1.415244 0.87227,-0.054 1.86108,-0.08959 2.76817,-0.106241 z m 16.22656,3.300781 c 6.99678,3.099117 11.00908,10.281594 14.52344,16.699219 1.80246,2.720668 -2.67221,2.469569 -4.07617,3.636719 -4.94713,1.941712 -9.72992,4.725263 -14.04883,7.548828 -1.49313,-4.657998 -1.48729,-9.906276 -1.7168,-14.839844 0.0472,-4.726266 1.26312,-10.168805 5.31836,-13.044922 z m -11.78125,14.921875 c 1.29513,8.490619 -1.32818,17.108913 -3.29492,25.425782 -1.0803,3.038223 -2.01375,7.103036 -4.98633,8.652343 -2.96465,-0.0079 -6.01872,-0.47078 -8.87304,-1.162109 -2.18803,-1.224475 0.66849,-3.639206 0.49874,-5.3439 3.23134,-10.397594 7.19185,-21.642034 16.53055,-28.148287 l 0.1122,0.517136 z m 30.33594,12.361329 c 3.24367,4.631162 3.81703,11.12521 8.8125,14.519531 2.87455,2.091674 0.74976,6.161164 -0.33789,8.75 -2.33464,4.949183 -8.13279,5.915488 -12.08984,9.111328 -2.39968,0.895722 -5.75389,-0.443512 -7.00782,-2.742188 2.55274,-9.989371 5.47372,-20.106201 10.25,-29.259765 0.11078,-0.128327 0.22376,-0.296968 0.37305,-0.378906 z m -8.89453,1.683593 c -2.89728,8.578447 -5.95655,17.339151 -10.64258,25.03125 -2.51738,0.02397 -4.93931,-1.240342 -7.44531,-1.632812 -2.02514,-0.271474 -2.46827,-2.281923 -1.2207,-3.681641 4.04423,-8.685829 10.92269,-16.04774 19.51757,-20.373047 l -0.16056,0.504217 z"
           id="path2443"
           inkscape:connector-curvature="0"
           sodipodi:nodetypes="cccccccccccccccccccccccccccccccccccccccccccccccccccccccccccccccccccccccccccccccccccccccccccccccccccccccccccccccccccccccccccccccccccccccccccccccccccccccc" />
        <path
           style="fill:#004900;fill-opacity:1;stroke-width:1.25592208"
           d="m 38.082478,44.638023 c -3.044089,0.262556 -2.907117,4.202036 -1.011719,5.816406 5.894417,5.34532 13.574195,8.237146 20.296206,12.37721 11.680432,6.442417 22.457028,15.494543 35.960419,17.987161 18.544456,3.833442 37.599506,4.588533 56.067566,8.842661 7.89564,1.193549 15.89397,1.056704 23.67653,3.036312 10.55876,2.088975 21.2818,4.02797 31.44261,7.526177 1.55352,2.70102 -2.6577,6.33376 -0.16601,8.88477 3.08673,0.89394 4.58107,-3.30852 6.5332,-4.88867 1.92023,-1.58954 4.34072,2.76288 6.05676,-0.28615 1.32559,-1.83256 7.82003,-4.002267 3.36316,-5.458891 -3.50228,-1.262274 -4.14152,-2.817235 -0.86719,-4.852611 11.72986,-11.407415 23.25861,-24.22436 39.17492,-29.696215 8.95213,-4.03505 18.4397,0.938894 27.35633,2.676684 1.59737,-0.846108 0.16586,-3.248838 0.0742,-4.650391 -1.89251,-5.035358 -8.11363,-6.270651 -12.83212,-6.999845 -13.26127,-1.719213 -26.92993,2.367336 -37.29993,10.752854 -4.09024,3.418454 -9.40194,5.132462 -12.60623,9.551679 -5.0253,5.55112 -9.50009,11.596507 -14.81836,16.884765 -17.67842,-6.598604 -36.4284,-9.75973 -55.04225,-12.412398 -17.72042,-2.440215 -35.66691,-3.36848 -53.22728,-6.79268 C 86.555694,68.807155 74.256969,61.293611 61.746015,54.554432 54.195262,50.784286 46.733453,45.295425 38.082478,44.638023 Z m 30.708984,31.357422 c -2.094559,0.18016 -6.256593,-0.284559 -6.341797,2.720703 1.4994,3.234895 5.907193,3.554623 8.770106,5.068673 10.203842,3.31477 18.271302,10.54736 26.395894,17.239909 1.332511,1.39966 4.013825,0.49191 3.287095,-1.623034 C 95.806164,86.447618 83.351983,75.403215 68.791462,75.995445 Z m -0.894531,16.226563 c -1.824392,-0.356026 -4.61997,1.682324 -2.519532,3.316406 7.367647,4.848356 15.397149,8.779526 23.488282,12.283196 2.18349,0.90157 3.645724,-1.65095 2.675781,-3.48438 C 89.027054,99.699013 84.143214,96.723341 79.596149,94.307945 75.941808,92.777386 71.846608,92.146008 67.896931,92.222008 Z m 114.363259,5.126953 c -2.62921,1.345548 -1.66824,5.155769 -2.15626,7.566399 0.17525,2.68658 -0.56005,7.19793 2.82813,8.10156 3.49478,0.80382 6.42851,-3.00233 5.11914,-6.24609 -1.14846,-3.32513 -1.93834,-7.722334 -5.34766,-9.435541 -0.1432,0.0393 -0.30823,-0.08282 -0.44335,0.01367 z m -14.60547,2.853509 c -2.94909,0.015 -3.2554,3.45136 -2.75586,5.6543 0.0123,4.28053 1.87091,13.07432 7.85156,9.85742 5.69574,-4.39941 2.71895,-16.151737 -5.0957,-15.51172 z m 28.10156,0.19531 c -3.63086,1.085 -5.22866,5.43464 -5.61719,8.88281 -0.44822,2.87934 2.89438,5.13943 5.26953,3.24024 3.5116,-2.39112 3.98188,-7.96615 1.95899,-11.44336 -0.40309,-0.44066 -1.00456,-0.75491 -1.61133,-0.67969 z m -43.66992,0.70899 c -2.76235,0.148 -2.7727,3.54123 -1.87613,5.43584 1.0929,4.83862 1.45903,10.06098 3.52066,14.57002 3.16406,2.63761 7.44485,-1.66434 6.68554,-5.14454 -0.94358,-5.19135 -2.92561,-10.57288 -6.68359,-14.39062 -0.46805,-0.36716 -1.05986,-0.51296 -1.64648,-0.4707 z m -44.79102,0.2832 c -3.37376,1.01939 -2.43889,5.66305 -2.95703,8.33789 -0.0394,4.36318 -0.37486,9.16617 1.50195,13.18164 1.98103,3.21794 7.2599,3.15473 8.69532,-0.50195 2.37873,-5.47393 -0.10472,-11.65089 -2.49024,-16.69727 -1.13591,-1.67643 -2.40629,-4.33339 -4.75,-4.32031 z m 13.22852,0.71094 c -2.95093,0.80794 -0.6998,4.45661 -0.61642,6.39209 0.96757,4.98086 -0.16115,11.00157 3.25118,15.17822 2.41894,2.32397 6.28911,0.52567 6.93946,-2.50781 1.49453,-6.47187 -2.29738,-13.05186 -6.74805,-17.49805 -0.80509,-0.69835 -1.66606,-1.62662 -2.82617,-1.56445 z m 17.09179,4.60351 c -3.36983,0.99845 -2.38674,5.53143 -2.20117,8.17383 0.72563,4.02885 1.65231,8.71345 4.95117,11.43359 3.2307,2.14836 6.66841,-1.55504 6.16993,-4.82421 -0.70501,-5.39892 -3.20526,-10.9536 -7.51368,-14.40625 -0.42678,-0.23877 -0.91205,-0.40279 -1.40625,-0.37696 z"
           id="path2443-5"
           inkscape:connector-curvature="0" />
      </g>
      <path
         style="fill:#000000;fill-opacity:1;stroke-width:1.38727081"
         d="m 222.30078,114.03906 c -28.6157,3.14504 -54.44653,16.73908 -81.10122,26.56095 -5.08727,1.81058 -10.68065,-0.11695 -15.9889,0.027 -16.41175,-0.98196 -32.819754,-2.39694 -49.218472,-3.33992 -3.356276,0.9175 -2.325474,5.53018 -0.830079,7.68555 0.619783,1.58756 2.73957,4.67418 4.400391,3.01562 0.679906,-1.60554 0.474196,-4.68841 3.136719,-3.79687 13.43108,0.74024 26.232111,6.68364 39.840611,5.47679 11.30691,-0.29246 23.24536,-0.91924 33.17701,-6.92332 13.35788,-6.22216 27.25014,-11.27521 40.67345,-17.32565 7.79509,-2.26534 15.63772,-5.31364 23.74252,-5.87626 2.02151,1.16465 4.38275,4.77918 6.90625,2.37695 2.16385,-3.23296 -0.87907,-8.26194 -4.73828,-7.88086 z m -1.89453,15.24024 c -20.42324,3.39513 -39.38364,12.2363 -58.50466,19.79246 -6.22794,2.37125 -12.23817,5.61167 -18.48948,7.72121 -1.42551,-0.6224 -2.87136,-2.68184 -4.57031,-1.26367 -1.90894,1.13734 -0.53212,4.45908 -3.25977,4.55078 -6.45412,-0.24338 -12.59232,-2.91843 -19.06594,-3.38243 -9.67161,-1.14957 -19.300219,-2.08529 -28.779762,-4.33632 -2.355235,-0.2054 -6.588538,-1.00405 -6.77539,2.36719 0.575202,9.59814 3.316411,19.04451 6.696506,28.03155 1.732905,3.14477 2.229841,8.4496 6.559353,9.02118 2.546889,0.15888 2.656043,-2.93218 1.783203,-4.64063 -0.58681,-1.79137 -2.408958,-6.02819 0.912109,-6.08398 4.550441,0.28347 6.683681,6.13726 4.794921,9.86328 -0.53457,1.85306 1.99328,2.99001 2.83203,1.07227 3.19489,-3.1079 7.75187,-0.14729 10.32486,2.35021 2.02733,1.8501 5.23896,4.97321 8.09116,3.01893 1.79419,-1.50065 -0.27229,-5.75286 3.01758,-5.38477 5.13222,0.0684 8.68494,5.57627 13.73242,5.35156 2.03115,-2.09444 -1.08869,-4.62975 -2.61524,-5.92382 -2.10347,-1.81369 -4.87979,-2.99452 -6.29296,-5.50196 0.8215,-2.45527 1.93073,-5.95816 4.79492,-6.44922 4.45313,1.82032 3.94791,7.70425 4.94836,11.6169 1.02495,6.68592 0.0526,14.17997 3.54382,20.21709 1.13378,1.33771 3.70682,3.43934 5.03711,2.11719 1.12313,-7.3189 -1.70555,-14.78953 -0.0781,-21.96875 1.38379,-0.97511 3.26059,1.56509 4.57422,2.1289 3.38849,2.9865 6.68935,6.65737 7.74219,11.11914 0.19065,1.96197 -1.13021,6.21772 1.95507,6.24805 2.8351,-0.55743 5.26662,-2.40084 7.86328,-3.61328 2.06367,-1.05995 1.91425,-3.62733 0.47657,-5.11524 -1.54343,-3.91671 0.47121,-8.54696 2.93359,-11.54687 2.58478,0.25811 4.59098,2.62385 6.75781,3.95703 2.44012,2.38454 6.15365,4.98188 9.57813,2.85156 2.90297,-1.17637 4.98681,-3.67484 7.41406,-5.4414 1.65538,-0.0242 5.01423,-0.1314 4.29102,-2.67383 -2.17238,-3.0207 -1.61984,-8.29461 1.9375,-9.86719 5.11331,0.37221 7.50936,7.79969 13.04687,6.39063 4.42174,-2.52401 3.75264,-8.52593 4.56265,-12.83848 0.73811,-12.31324 3.15021,-24.5675 2.52334,-36.93366 0.17583,-1.78893 1.82319,-4.24869 -0.25982,-5.77083 -1.16368,-0.76016 -2.64367,-1.14027 -4.0332,-1.05078 z m -5.47461,4.33593 c 2.03246,0.52962 5.51152,2.07587 3.80227,4.60188 -1.06,2.59814 -1.70747,6.62846 -4.61086,7.65008 -1.9064,-1.31424 -3.55055,-3.04086 -5.43946,-4.36719 -1.85039,-1.82793 -0.48514,-4.68354 1.98592,-4.67032 1.79712,-0.45591 3.53988,-1.58877 4.26213,-3.21445 z m -20.66602,10.375 c 1.68906,0.0871 1.30449,1.92444 -0.27929,1.39258 -1.60006,0.0311 -1.71326,-1.0562 0.27929,-1.39258 z m 10.81836,1.36329 c 3.37894,0.0615 5.71514,3.36942 8.06641,5.08398 -1.89604,2.67779 -2.25833,6.95317 -5.51172,8.34375 -2.48911,-1.51077 -4.51646,-3.79355 -6.85937,-5.56641 -1.49254,-1.18016 -2.60414,-3.12858 -0.82032,-4.60546 1.18058,-1.69668 2.92389,-3.32208 5.125,-3.25586 z m -20.93554,0.92382 c 2.35987,1.74844 5.84026,3.13646 7.07812,5.78516 -0.83666,2.32665 -2.98247,4.44459 -5.17383,5.37305 -2.5806,-0.75591 -4.26482,-3.29303 -6.32226,-4.9336 -2.1144,-1.7589 -0.1306,-3.60837 1.73047,-4.20312 0.98787,-0.52068 1.88664,-1.42587 2.6875,-2.02149 z m -18.34766,8.11524 c 2.12846,0.30524 -0.36278,3.59362 -1.11523,1.26172 -0.13008,-0.64314 0.41906,-1.39123 1.11523,-1.26172 z m 8.37695,1.66601 c 3.50248,1.6558 7.08583,4.11986 9.03711,7.42579 -1.09752,2.42559 -4.44994,5.21598 -6.68924,2.36653 -2.04144,-1.91466 -6.67294,-3.03558 -5.28537,-6.67318 0.25233,-1.13848 1.34435,-3.88704 2.9375,-3.11914 z m 20.44922,-0.0898 c 3.92417,1.68243 8.49934,4.4418 9.44532,8.89648 0.0408,2.32505 -2.73157,5.06089 -4.81266,2.95788 -3.00501,-1.54634 -7.64323,-3.81382 -6.50766,-7.83873 0.21333,-1.42103 0.57989,-3.27132 1.875,-4.01563 z m -109.267575,0.21289 c 3.261189,1.67056 8.528511,0.68023 9.898437,4.87891 1.975507,2.43903 2.619695,6.10792 0.04297,8.41211 -1.357955,1.20618 -2.803321,4.23219 -4.170813,1.46788 -3.492665,-3.43157 -6.033204,-8.08069 -5.608484,-13.07921 -0.02693,-0.46861 -0.40993,-1.39617 -0.162109,-1.67969 z m 69.748045,2.89844 c 2.43708,0.20382 5.73635,0.71847 7.08985,2.86133 -0.87917,2.20473 -2.49762,5.23449 -5.01172,5.30859 -2.68926,-1.56626 -5.55303,-4.02918 -6.24024,-7.04883 0.97513,-1.15043 2.78827,-1.08416 4.16211,-1.12109 z m -47.67383,1.05859 c 2.34599,0.72068 6.87667,0.0964 7.20313,3.33399 -0.57543,2.26554 -1.70531,5.11864 -3.46094,6.33593 -3.02997,-1.84869 -8.02107,-5.70344 -4.56836,-9.47851 0.24127,-0.16138 0.53949,-0.22122 0.82617,-0.19141 z m 107.83399,0.16406 c 1.28311,0.18454 3.7249,-0.23414 2.3164,1.86133 -0.38818,1.75055 -2.02876,4.33949 -4.00195,3.54297 -0.481,-1.67818 0.0168,-4.59568 1.58789,-5.42773 z m -80.79102,4.58008 c 2.42272,-0.44484 5.29849,2.9195 2.5,4.46485 -2.25293,0.56932 -3.89425,-2.31486 -4.92383,-3.83204 0.59623,-0.63869 1.62089,-0.58725 2.42383,-0.63281 z m -13.74804,0.71289 c 4.07622,2.25183 8.00847,5.70552 9.80664,9.99024 -0.39522,3.33091 -4.6449,7.39142 -7.73438,4.27148 -2.41742,-1.74515 -5.06228,-4.00305 -6.93359,-5.95312 1.51976,-2.80184 2.28019,-6.22554 4.86133,-8.3086 z m 45.88867,1.82422 c 3.84516,0.40682 7.73444,2.46988 9.58789,5.9668 -0.79947,2.07513 -1.87088,5.9516 -4.5957,5.70898 -3.72134,-1.6978 -7.09246,-4.63627 -9.10157,-8.13867 -0.2105,-2.11608 2.21366,-3.65489 4.10938,-3.53711 z m -19.64258,0.32031 c 3.6496,1.26687 8.72152,4.92478 6.36523,9.3086 -0.81765,1.68737 -2.42786,4.24114 -4.45507,4.00781 -3.2708,-2.65891 -2.75958,-7.55828 -3.31641,-11.35937 -0.0779,-0.78852 0.16947,-2.6727 1.40625,-1.95704 z m 41.86914,0.17969 c 4.12287,1.80083 9.10886,4.96117 9.56836,9.80664 -1.2813,3.13948 -5.76822,2.31478 -7.33399,-0.1582 -2.11541,-1.78071 -4.54129,-3.14341 -6.65039,-4.93164 0.74607,-1.65241 2.10242,-5.43131 4.41602,-4.7168 z m -85.98242,2.0918 c 2.73056,1.11698 6.7075,3.59327 4.67187,6.9668 -0.41317,1.68917 -2.10321,3.78714 -3.75,1.95312 -1.66412,-1.12217 -3.47053,-2.37821 -5.054684,-3.43945 0.311856,-1.97657 1.615384,-6.18148 4.132814,-5.48047 z m 106.74023,0.11914 c 3.99576,0.10687 8.8123,4.80617 6.16211,8.74219 -2.68559,2.48465 -4.73666,-1.043 -6.33203,-2.87891 -1.35464,-1.40761 -3.04268,-5.59449 0.16992,-5.86328 z m -27.58008,8.06836 c 4.28819,1.63776 7.77196,4.96038 10.62891,8.4082 0.4346,2.06802 -1.06059,5.36585 -3.33008,5.43555 -3.7198,-0.61093 -6.50143,-3.66143 -9.44922,-5.74609 -2.32487,-2.44848 -0.75393,-6.54934 1.75586,-8.08594 l 0.19727,-0.0215 z m -22.01171,0.35156 c 3.87317,1.16117 7.88685,3.75254 9.15625,7.67578 0.10564,3.23742 -1.94817,6.87785 -4.31446,8.78125 -3.22955,-1.84879 -6.00928,-4.57871 -8.67773,-7.17383 -2.33013,-2.72781 0.0379,-6.73995 2.14453,-8.85156 0.49474,-0.33266 1.09841,-0.48267 1.69141,-0.43164 z m -44.36524,1.50781 c 2.36855,2.02316 5.86996,4.29599 5.89649,7.66797 -0.47426,1.43266 -1.4829,4.29516 -3.15242,2.22491 -2.74297,-1.82763 -5.67581,-3.78657 -7.6679,-6.36749 0.9311,-1.725 2.31288,-3.27047 4.08985,-4.14257 l 0.42535,0.31478 z"
         id="path885"
         inkscape:connector-curvature="0" />
    </g>
  </g>
</svg>
