<?xml version="1.0" encoding="UTF-8" standalone="no"?>
<!-- Created with Inkscape (http://www.inkscape.org/) -->

<svg
   xmlns:dc="http://purl.org/dc/elements/1.1/"
   xmlns:cc="http://creativecommons.org/ns#"
   xmlns:rdf="http://www.w3.org/1999/02/22-rdf-syntax-ns#"
   xmlns:svg="http://www.w3.org/2000/svg"
   xmlns="http://www.w3.org/2000/svg"
   xmlns:sodipodi="http://sodipodi.sourceforge.net/DTD/sodipodi-0.dtd"
   xmlns:inkscape="http://www.inkscape.org/namespaces/inkscape"
   width="300mm"
   height="400mm"
   viewBox="0 0 300 400"
   version="1.1"
   id="svg8"
   sodipodi:docname="Season1.svg"
   inkscape:version="0.92.5 (2060ec1f9f, 2020-04-08)"
   inkscape:export-filename="/mnt/34C9D8B93223F7D0/Projets/MahjongSolitaire/AssetsPreparation/Tiles/Tilesets/riichi-mahjong-tiles/Export/Regular/Season1.png"
   inkscape:export-xdpi="50.799999"
   inkscape:export-ydpi="50.799999">
  <defs
     id="defs2" />
  <sodipodi:namedview
     id="base"
     pagecolor="#ffffff"
     bordercolor="#666666"
     borderopacity="1.0"
     inkscape:pageopacity="0.0"
     inkscape:pageshadow="2"
     inkscape:zoom="0.35"
     inkscape:cx="438.75648"
     inkscape:cy="701.04874"
     inkscape:document-units="mm"
     inkscape:current-layer="g883"
     showgrid="false"
     inkscape:window-width="1680"
     inkscape:window-height="979"
     inkscape:window-x="1680"
     inkscape:window-y="40"
     inkscape:window-maximized="1" />
  <metadata
     id="metadata5">
    <rdf:RDF>
      <cc:Work
         rdf:about="">
        <dc:format>image/svg+xml</dc:format>
        <dc:type
           rdf:resource="http://purl.org/dc/dcmitype/StillImage" />
        <dc:title></dc:title>
      </cc:Work>
    </rdf:RDF>
  </metadata>
  <g
     inkscape:label="Calque 1"
     inkscape:groupmode="layer"
     id="layer1"
     transform="translate(0,103)">
    <g
       id="g883">
      <path
         style="fill:#00001b;fill-opacity:1;stroke-width:1.38727081"
         d="m 222.30078,114.03906 c -28.6157,3.14504 -54.44653,16.73908 -81.10122,26.56095 -5.08727,1.81058 -10.68065,-0.11695 -15.9889,0.027 -16.41175,-0.98196 -32.819754,-2.39694 -49.218472,-3.33992 -3.356276,0.9175 -2.325474,5.53018 -0.830079,7.68555 0.619783,1.58756 2.73957,4.67418 4.400391,3.01562 0.679906,-1.60554 0.474196,-4.68841 3.136719,-3.79687 13.43108,0.74024 26.232111,6.68364 39.840611,5.47679 11.30691,-0.29246 23.24536,-0.91924 33.17701,-6.92332 13.35788,-6.22216 27.25014,-11.27521 40.67345,-17.32565 7.79509,-2.26534 15.63772,-5.31364 23.74252,-5.87626 2.02151,1.16465 4.38275,4.77918 6.90625,2.37695 2.16385,-3.23296 -0.87907,-8.26194 -4.73828,-7.88086 z m -1.89453,15.24024 c -20.42324,3.39513 -39.38364,12.2363 -58.50466,19.79246 -6.22794,2.37125 -12.23817,5.61167 -18.48948,7.72121 -1.42551,-0.6224 -2.87136,-2.68184 -4.57031,-1.26367 -1.90894,1.13734 -0.53212,4.45908 -3.25977,4.55078 -6.45412,-0.24338 -12.59232,-2.91843 -19.06594,-3.38243 -9.67161,-1.14957 -19.300219,-2.08529 -28.779762,-4.33632 -2.355235,-0.2054 -6.588538,-1.00405 -6.77539,2.36719 0.575202,9.59814 3.316411,19.04451 6.696506,28.03155 1.732905,3.14477 2.229841,8.4496 6.559353,9.02118 2.546889,0.15888 2.656043,-2.93218 1.783203,-4.64063 -0.58681,-1.79137 -2.408958,-6.02819 0.912109,-6.08398 4.550441,0.28347 6.683681,6.13726 4.794921,9.86328 -0.53457,1.85306 1.99328,2.99001 2.83203,1.07227 3.19489,-3.1079 7.75187,-0.14729 10.32486,2.35021 2.02733,1.8501 5.23896,4.97321 8.09116,3.01893 1.79419,-1.50065 -0.27229,-5.75286 3.01758,-5.38477 5.13222,0.0684 8.68494,5.57627 13.73242,5.35156 2.03115,-2.09444 -1.08869,-4.62975 -2.61524,-5.92382 -2.10347,-1.81369 -4.87979,-2.99452 -6.29296,-5.50196 0.8215,-2.45527 1.93073,-5.95816 4.79492,-6.44922 4.45313,1.82032 3.94791,7.70425 4.94836,11.6169 1.02495,6.68592 0.0526,14.17997 3.54382,20.21709 1.13378,1.33771 3.70682,3.43934 5.03711,2.11719 1.12313,-7.3189 -1.70555,-14.78953 -0.0781,-21.96875 1.38379,-0.97511 3.26059,1.56509 4.57422,2.1289 3.38849,2.9865 6.68935,6.65737 7.74219,11.11914 0.19065,1.96197 -1.13021,6.21772 1.95507,6.24805 2.8351,-0.55743 5.26662,-2.40084 7.86328,-3.61328 2.06367,-1.05995 1.91425,-3.62733 0.47657,-5.11524 -1.54343,-3.91671 0.47121,-8.54696 2.93359,-11.54687 2.58478,0.25811 4.59098,2.62385 6.75781,3.95703 2.44012,2.38454 6.15365,4.98188 9.57813,2.85156 2.90297,-1.17637 4.98681,-3.67484 7.41406,-5.4414 1.65538,-0.0242 5.01423,-0.1314 4.29102,-2.67383 -2.17238,-3.0207 -1.61984,-8.29461 1.9375,-9.86719 5.11331,0.37221 7.50936,7.79969 13.04687,6.39063 4.42174,-2.52401 3.75264,-8.52593 4.56265,-12.83848 0.73811,-12.31324 3.15021,-24.5675 2.52334,-36.93366 0.17583,-1.78893 1.82319,-4.24869 -0.25982,-5.77083 -1.16368,-0.76016 -2.64367,-1.14027 -4.0332,-1.05078 z m -5.47461,4.33593 c 2.03246,0.52962 5.51152,2.07587 3.80227,4.60188 -1.06,2.59814 -1.70747,6.62846 -4.61086,7.65008 -1.9064,-1.31424 -3.55055,-3.04086 -5.43946,-4.36719 -1.85039,-1.82793 -0.48514,-4.68354 1.98592,-4.67032 1.79712,-0.45591 3.53988,-1.58877 4.26213,-3.21445 z m -20.66602,10.375 c 1.68906,0.0871 1.30449,1.92444 -0.27929,1.39258 -1.60006,0.0311 -1.71326,-1.0562 0.27929,-1.39258 z m 10.81836,1.36329 c 3.37894,0.0615 5.71514,3.36942 8.06641,5.08398 -1.89604,2.67779 -2.25833,6.95317 -5.51172,8.34375 -2.48911,-1.51077 -4.51646,-3.79355 -6.85937,-5.56641 -1.49254,-1.18016 -2.60414,-3.12858 -0.82032,-4.60546 1.18058,-1.69668 2.92389,-3.32208 5.125,-3.25586 z m -20.93554,0.92382 c 2.35987,1.74844 5.84026,3.13646 7.07812,5.78516 -0.83666,2.32665 -2.98247,4.44459 -5.17383,5.37305 -2.5806,-0.75591 -4.26482,-3.29303 -6.32226,-4.9336 -2.1144,-1.7589 -0.1306,-3.60837 1.73047,-4.20312 0.98787,-0.52068 1.88664,-1.42587 2.6875,-2.02149 z m -18.34766,8.11524 c 2.12846,0.30524 -0.36278,3.59362 -1.11523,1.26172 -0.13008,-0.64314 0.41906,-1.39123 1.11523,-1.26172 z m 8.37695,1.66601 c 3.50248,1.6558 7.08583,4.11986 9.03711,7.42579 -1.09752,2.42559 -4.44994,5.21598 -6.68924,2.36653 -2.04144,-1.91466 -6.67294,-3.03558 -5.28537,-6.67318 0.25233,-1.13848 1.34435,-3.88704 2.9375,-3.11914 z m 20.44922,-0.0898 c 3.92417,1.68243 8.49934,4.4418 9.44532,8.89648 0.0408,2.32505 -2.73157,5.06089 -4.81266,2.95788 -3.00501,-1.54634 -7.64323,-3.81382 -6.50766,-7.83873 0.21333,-1.42103 0.57989,-3.27132 1.875,-4.01563 z m -109.267575,0.21289 c 3.261189,1.67056 8.528511,0.68023 9.898437,4.87891 1.975507,2.43903 2.619695,6.10792 0.04297,8.41211 -1.357955,1.20618 -2.803321,4.23219 -4.170813,1.46788 -3.492665,-3.43157 -6.033204,-8.08069 -5.608484,-13.07921 -0.02693,-0.46861 -0.40993,-1.39617 -0.162109,-1.67969 z m 69.748045,2.89844 c 2.43708,0.20382 5.73635,0.71847 7.08985,2.86133 -0.87917,2.20473 -2.49762,5.23449 -5.01172,5.30859 -2.68926,-1.56626 -5.55303,-4.02918 -6.24024,-7.04883 0.97513,-1.15043 2.78827,-1.08416 4.16211,-1.12109 z m -47.67383,1.05859 c 2.34599,0.72068 6.87667,0.0964 7.20313,3.33399 -0.57543,2.26554 -1.70531,5.11864 -3.46094,6.33593 -3.02997,-1.84869 -8.02107,-5.70344 -4.56836,-9.47851 0.24127,-0.16138 0.53949,-0.22122 0.82617,-0.19141 z m 107.83399,0.16406 c 1.28311,0.18454 3.7249,-0.23414 2.3164,1.86133 -0.38818,1.75055 -2.02876,4.33949 -4.00195,3.54297 -0.481,-1.67818 0.0168,-4.59568 1.58789,-5.42773 z m -80.79102,4.58008 c 2.42272,-0.44484 5.29849,2.9195 2.5,4.46485 -2.25293,0.56932 -3.89425,-2.31486 -4.92383,-3.83204 0.59623,-0.63869 1.62089,-0.58725 2.42383,-0.63281 z m -13.74804,0.71289 c 4.07622,2.25183 8.00847,5.70552 9.80664,9.99024 -0.39522,3.33091 -4.6449,7.39142 -7.73438,4.27148 -2.41742,-1.74515 -5.06228,-4.00305 -6.93359,-5.95312 1.51976,-2.80184 2.28019,-6.22554 4.86133,-8.3086 z m 45.88867,1.82422 c 3.84516,0.40682 7.73444,2.46988 9.58789,5.9668 -0.79947,2.07513 -1.87088,5.9516 -4.5957,5.70898 -3.72134,-1.6978 -7.09246,-4.63627 -9.10157,-8.13867 -0.2105,-2.11608 2.21366,-3.65489 4.10938,-3.53711 z m -19.64258,0.32031 c 3.6496,1.26687 8.72152,4.92478 6.36523,9.3086 -0.81765,1.68737 -2.42786,4.24114 -4.45507,4.00781 -3.2708,-2.65891 -2.75958,-7.55828 -3.31641,-11.35937 -0.0779,-0.78852 0.16947,-2.6727 1.40625,-1.95704 z m 41.86914,0.17969 c 4.12287,1.80083 9.10886,4.96117 9.56836,9.80664 -1.2813,3.13948 -5.76822,2.31478 -7.33399,-0.1582 -2.11541,-1.78071 -4.54129,-3.14341 -6.65039,-4.93164 0.74607,-1.65241 2.10242,-5.43131 4.41602,-4.7168 z m -85.98242,2.0918 c 2.73056,1.11698 6.7075,3.59327 4.67187,6.9668 -0.41317,1.68917 -2.10321,3.78714 -3.75,1.95312 -1.66412,-1.12217 -3.47053,-2.37821 -5.054684,-3.43945 0.311856,-1.97657 1.615384,-6.18148 4.132814,-5.48047 z m 106.74023,0.11914 c 3.99576,0.10687 8.8123,4.80617 6.16211,8.74219 -2.68559,2.48465 -4.73666,-1.043 -6.33203,-2.87891 -1.35464,-1.40761 -3.04268,-5.59449 0.16992,-5.86328 z m -27.58008,8.06836 c 4.28819,1.63776 7.77196,4.96038 10.62891,8.4082 0.4346,2.06802 -1.06059,5.36585 -3.33008,5.43555 -3.7198,-0.61093 -6.50143,-3.66143 -9.44922,-5.74609 -2.32487,-2.44848 -0.75393,-6.54934 1.75586,-8.08594 l 0.19727,-0.0215 z m -22.01171,0.35156 c 3.87317,1.16117 7.88685,3.75254 9.15625,7.67578 0.10564,3.23742 -1.94817,6.87785 -4.31446,8.78125 -3.22955,-1.84879 -6.00928,-4.57871 -8.67773,-7.17383 -2.33013,-2.72781 0.0379,-6.73995 2.14453,-8.85156 0.49474,-0.33266 1.09841,-0.48267 1.69141,-0.43164 z m -44.36524,1.50781 c 2.36855,2.02316 5.86996,4.29599 5.89649,7.66797 -0.47426,1.43266 -1.4829,4.29516 -3.15242,2.22491 -2.74297,-1.82763 -5.67581,-3.78657 -7.6679,-6.36749 0.9311,-1.725 2.31288,-3.27047 4.08985,-4.14257 l 0.42535,0.31478 z"
         id="path885"
         inkscape:connector-curvature="0" />
      <path
         style="fill:#000000;fill-opacity:1;stroke-width:1.38727081"
         d="m 162.21739,259.14139 c -1.1445,-0.43252 -4.57799,-2.48741 -7.63,-4.5664 -41.22961,-28.0852 -60.855913,-34.20141 -118.264828,-36.85527 -23.846647,-1.10237 -25.156742,-1.88348 -14.561844,-8.68221 15.758158,-10.112 30.551437,-14.50517 54.615981,-16.21943 24.376121,-3.42203 60.854761,10.32822 75.397891,24.2588 19.49652,-11.21461 47.76816,-24.91156 66.62726,-29.81476 12.05422,-3.61672 39.7526,-4.66379 49.94175,-1.88793 8.29889,2.26088 14.56635,5.49917 14.56635,7.52616 0,1.04798 -2.46494,2.18969 -5.89591,2.73087 -10.17108,1.60428 -34.56799,8.97444 -45.99822,13.89578 -19.60113,8.43938 -32.02242,16.9871 -49.87189,34.31943 -9.23276,8.96523 -16.80006,16.25113 -16.81623,16.1909 -0.0162,-0.0602 -0.96582,-0.46341 -2.11031,-0.89594 z m 8.84348,-21.36389 c 9.95519,-10.92422 23.85987,-21.97528 35.96848,-28.58674 14.46313,-7.89708 12.09822,-6.20903 13.38418,-7.22299 1.00667,-0.79374 4.63154,-2.71129 4.63154,-2.71129 1.51216,-0.66807 5.54817,-1.96225 5.54817,-2.80689 0,-0.93406 -5.51249,-0.007 -6.98912,0.62635 -1.33525,0.57221 -6.74568,2.50199 -12.02315,4.28839 -9.06679,3.06902 -24.54445,10.03469 -47.89081,21.55306 l -10.31902,5.09109 -5.35648,-4.58494 c -7.1256,-6.09926 -23.85721,-14.02767 -35.41253,-16.78052 -11.37517,-2.70993 -40.698499,-4.15404 -53.827663,-2.65087 -11.367766,1.30149 -11.196787,1.36736 18.125767,6.98261 32.623366,6.24738 46.689376,11.6737 73.525346,28.36428 6.104,3.79636 11.50186,6.90983 11.99526,6.91879 0.49342,0.008 4.38142,-3.80717 8.64003,-8.48033 z m 39.03534,-47.36236 4.87342,-1.49571 c 3.84885,4.70159 -9.91207,6.43695 -4.87342,1.49571 z"
         id="path887-7"
         inkscape:connector-curvature="0"
         sodipodi:nodetypes="ccssccccscscccccsssccscsscscccccc" />
      <g
         id="g2401"
         style="fill:#004900;fill-opacity:1">
        <path
           style="fill:#004900;fill-opacity:1;stroke-width:1.58452678"
           d="m 229.58433,176.20959 c 0,-1.30722 1.09796,-2.37679 2.43991,-2.37679 4.3836,0 14.3945,-6.0339 19.32198,-11.64599 7.4003,-8.42847 10.63897,-19.87764 10.68307,-37.7663 0.0312,-12.68731 0.36088,-14.74555 1.90305,-11.88395 1.02585,1.90355 2.74446,9.33996 3.81912,16.52534 3.39485,22.6987 -3.02086,38.97854 -18.16668,46.09791 -8.6528,4.06731 -20.00045,4.66292 -20.00045,1.04978 z M 58.293585,159.1185 C 51.116183,154.2892 43.355519,138.5539 39.840466,121.70346 l -2.776184,-13.30844 -7.922638,-2.29312 c -4.357443,-1.2612 -8.202497,-2.56379 -8.544557,-2.89465 -1.801589,-1.74262 4.136798,-5.408232 10.245494,-6.324297 6.587099,-0.987796 7.084756,-1.423686 8.681759,-7.604159 0.931754,-3.605956 2.768579,-9.459546 4.081822,-13.007951 L 45.993881,69.819189 37.93943,58.127267 C 29.060125,45.237959 26.53416,38.088396 26.547133,25.882156 c 0.02086,-19.6043162 5.540905,-31.9536742 19.987909,-44.716274 7.046219,-6.224688 10.335824,-10.28331 10.335824,-12.752033 0,-5.192861 -4.715323,-16.36909 -14.916846,-35.355837 -4.894953,-9.11033 -8.616559,-17.310256 -8.27024,-18.222058 0.34632,-0.911804 4.155606,2.035217 8.465081,6.548935 5.803206,6.078244 9.858615,12.770607 15.636158,25.803264 7.327458,16.528895 8.041088,17.544373 11.762064,16.737234 2.178722,-0.4726 5.882314,-1.171335 8.230202,-1.552745 2.347895,-0.38141 6.269599,-1.705788 8.714902,-2.94306 6.928291,-3.50557 25.050183,-6.323859 32.998683,-5.131909 4.17963,0.626776 8.95954,2.691141 11.48636,4.960775 l 4.32776,3.887275 -9.13778,-0.971391 c -12.08458,-1.284652 -22.45692,1.28063 -40.52133,10.021726 l -14.799472,7.161253 0.99274,11.2771594 c 0.546005,6.2024373 1.728837,14.0313513 2.628518,17.3975887 1.887205,7.0611609 0.709132,16.0119789 -3.529568,26.8171619 -5.76946,14.70734 -4.083832,15.184536 11.339809,3.210318 8.728551,-6.776451 10.673551,-7.613784 17.451581,-7.512999 9.060152,0.134716 19.089732,5.988192 22.906252,13.368537 1.35969,2.62932 2.91133,10.475764 3.4481,17.436558 0.84756,10.990928 0.6397,12.655965 -1.57994,12.655965 -1.40574,0 -3.2577,-1.311354 -4.11548,-2.914104 -0.85776,-1.602764 -5.4052,-5.880987 -10.1054,-9.50716 -6.78122,-5.231664 -9.86529,-6.593058 -14.935672,-6.593058 -9.232766,0 -16.503142,1.730652 -15.861257,3.775627 0.305601,0.973628 6.287934,4.622366 13.294077,8.108325 28.517612,14.189135 37.041882,21.956106 39.397202,35.89709 1.19528,7.0748 -0.15295,9.77209 -2.94391,5.88968 -1.01811,-1.41624 -5.12062,-7.13988 -9.11668,-12.719147 C 113.42753,86.605364 111.4942,85.113025 95.743538,77.131225 85.047722,71.711002 76.993501,66.470133 74.253725,63.147824 c -4.155562,-5.039112 -4.609868,-5.203 -8.784857,-3.169053 -2.421476,1.179679 -4.666778,2.957503 -4.989575,3.950716 -0.724397,2.228859 8.283799,7.945292 21.112211,13.397411 14.933974,6.346997 29.929306,17.777837 33.793816,25.760872 4.91028,10.14331 3.84594,16.17295 -1.67356,9.48087 C 109.03485,106.89816 92.202318,96.024678 80.768875,91.28818 74.161145,88.550815 65.94046,84.255891 62.50069,81.74391 c -3.43977,-2.511998 -7.219601,-4.567256 -8.399619,-4.567256 -2.513014,0 -6.737362,9.293582 -6.737362,14.822202 0,3.292266 0.948954,3.975985 6.734233,4.852056 7.370178,1.116078 18.783,6.896168 19.81545,10.035638 0.486694,1.47996 -2.74335,1.98066 -12.777391,1.98066 -12.981868,0 -13.461642,0.13104 -14.417266,3.93861 -1.687986,6.72546 4.907067,23.68222 16.494184,42.40879 5.238034,8.46546 3.688174,9.6954 -4.919334,3.90389 z M 58.023374,45.88225 C 65.812787,28.327535 66.875833,23.74198 65.794729,12.359761 64.559126,-0.64900183 62.023057,-9.9723203 59.720095,-9.9723203 c -2.934909,0 -13.281262,11.8975395 -16.966493,19.5102102 -4.225239,8.7281801 -5.620838,16.5403021 -4.255248,23.8195201 0.987861,5.265792 11.616257,23.220396 13.745521,23.220396 0.568507,0 3.169277,-4.813001 5.779499,-10.695556 z m 95.503666,62.80456 c 0,-9.009572 14.52491,-23.024793 36.71603,-35.427645 8.85645,-4.949983 12.84913,-9.227207 12.13351,-12.998286 -1.36738,-7.205777 -13.43659,-3.29843 -36.67987,11.874952 -12.4914,8.154481 -21.22518,12.358754 -22.67068,10.913253 -1.87161,-1.871612 1.41145,-10.707709 6.25004,-16.821573 5.66404,-7.156849 16.62161,-14.638208 29.6034,-20.2119 4.7932,-2.057946 9.93158,-4.431636 11.41863,-5.274869 1.48702,-0.843232 5.42705,-1.968628 8.75556,-2.50088 9.23582,-1.476867 12.64602,2.27974 13.96022,15.378269 1.04459,10.41137 1.00219,10.56656 -4.57349,16.73818 -3.09533,3.426144 -11.54758,9.877719 -18.78278,14.33683 -7.23521,4.459112 -17.90505,12.435489 -23.71074,17.725289 -5.80571,5.28981 -10.97523,9.61783 -11.48783,9.61783 -0.5126,0 -0.932,-1.50725 -0.932,-3.34945 z m 38.58692,0.19099 c -4.84046,-1.953 -5.86414,-4.37533 -2.3239,-5.49896 5.99513,-1.9028 21.90863,-13.219286 30.80989,-21.909703 18.12902,-17.699577 21.75313,-36.195782 10.03836,-51.232217 -3.20567,-4.114617 -9.56723,-10.223785 -14.1368,-13.57593 -31.86158,-23.3730628 -36.33788,-28.261968 -42.52035,-46.439896 -6.49954,-19.110194 -4.80532,-47.056384 3.42508,-56.496837 l 3.23898,-3.71518 -1.2742,9.50716 c -1.5869,11.840407 -1.15188,25.554866 1.17669,37.096998 2.54868,12.633116 12.19317,26.601005 28.25972,40.9278644 25.49914,22.7381046 32.97579,32.1774556 36.76955,46.4219536 2.72907,10.246962 0.99858,16.503307 -8.9457,32.341699 -4.81832,7.674212 -8.55326,14.448491 -8.29989,15.053955 0.25338,0.605464 6.878,-0.206559 14.72142,-1.804491 16.69617,-3.401503 24.06701,-2.804613 33.47894,2.711158 7.27914,4.265848 10.09554,7.984206 10.09554,13.328616 0,3.4198 -1.48573,4.15719 -4.04054,2.00534 -3.55905,-2.99769 -20.51674,-8.668535 -25.82514,-8.636222 -3.1824,0.01934 -16.17109,2.612242 -28.86379,5.761942 -23.57503,5.85012 -29.78956,6.57132 -35.78386,4.15275 z M 140.18951,43.804003 c -9.72325,-8.537126 -8.95689,-14.78605 2.53217,-20.64733 5.32154,-2.714852 8.7282,-3.224965 18.55278,-2.778098 l 12.03433,0.547377 0.20092,-7.287756 c 0.26731,-9.6947364 3.97674,-23.811016 6.07305,-23.1110203 1.00418,0.3353147 1.78363,7.0256796 1.94886,16.7277663 0.22463,13.190114 0.88145,17.196201 3.56519,21.744792 6.2378,10.572289 3.04127,13.600601 -5.55819,5.26568 -4.54491,-4.405109 -6.0006,-4.877989 -14.88541,-4.835495 -15.08097,0.07213 -22.68268,6.438018 -16.08021,13.466024 4.18319,4.452802 4.24118,5.759228 0.2556,5.759228 -1.71266,0 -5.60025,-2.183024 -8.63909,-4.851168 z M 111.80118,28.584498 c -2.1652,-2.165188 -0.90129,-3.373632 4.60977,-4.407514 14.70336,-2.758368 12.08945,-29.6387968 -3.25668,-33.4904306 -3.08224,-0.7735914 -7.12885,0.3985057 -15.189512,4.399617 -6.04333,2.99978 -10.987881,4.83598484 -10.987881,4.08045537 0,-4.22863087 5.517241,-10.81045677 11.482621,-13.69824277 10.463492,-5.065271 15.859242,-5.656333 22.569162,-2.472268 13.97222,6.63025 16.32879,35.279552 3.63338,44.171757 -3.59636,2.518992 -10.94865,3.328847 -12.86086,1.416626 z M 86.976877,22.253561 c 0,-2.371826 7.898891,-14.2447844 11.611101,-17.452823 10.996902,-9.5033724 16.420012,-10.2879762 19.802182,-2.8649309 1.98969,4.3668992 0.54217,9.9368759 -3.44163,13.2431319 -1.35549,1.12496 -7.93739,3.413026 -14.6265,5.084592 -13.854303,3.462129 -13.345153,3.386205 -13.345153,1.99003 z"
           id="path2405"
           inkscape:connector-curvature="0"
           sodipodi:nodetypes="sssccscscscccccscscssssssssssscsscssssssssccscssccssscscsscssscscscsssscsssccscsscsccssssccssssscssssccscsccscsssccccccscsssssssssssssssss" />
      </g>
    </g>
  </g>
</svg>
