<?xml version="1.0" encoding="UTF-8" standalone="no"?>
<!-- Created with Inkscape (http://www.inkscape.org/) -->

<svg
   xmlns:dc="http://purl.org/dc/elements/1.1/"
   xmlns:cc="http://creativecommons.org/ns#"
   xmlns:rdf="http://www.w3.org/1999/02/22-rdf-syntax-ns#"
   xmlns:svg="http://www.w3.org/2000/svg"
   xmlns="http://www.w3.org/2000/svg"
   xmlns:sodipodi="http://sodipodi.sourceforge.net/DTD/sodipodi-0.dtd"
   xmlns:inkscape="http://www.inkscape.org/namespaces/inkscape"
   width="300mm"
   height="400mm"
   viewBox="0 0 300 400"
   version="1.1"
   id="svg8"
   sodipodi:docname="Season3.svg"
   inkscape:version="0.92.5 (2060ec1f9f, 2020-04-08)"
   inkscape:export-filename="/mnt/34C9D8B93223F7D0/Projets/MahjongSolitaire/AssetsPreparation/Tiles/Tilesets/riichi-mahjong-tiles/Export/Regular/Season2.png"
   inkscape:export-xdpi="50.799999"
   inkscape:export-ydpi="50.799999">
  <defs
     id="defs2" />
  <sodipodi:namedview
     id="base"
     pagecolor="#ffffff"
     bordercolor="#666666"
     borderopacity="1.0"
     inkscape:pageopacity="0.0"
     inkscape:pageshadow="2"
     inkscape:zoom="0.35"
     inkscape:cx="572.57414"
     inkscape:cy="589.30877"
     inkscape:document-units="mm"
     inkscape:current-layer="g2503"
     showgrid="false"
     inkscape:window-width="1680"
     inkscape:window-height="979"
     inkscape:window-x="1680"
     inkscape:window-y="40"
     inkscape:window-maximized="1" />
  <metadata
     id="metadata5">
    <rdf:RDF>
      <cc:Work
         rdf:about="">
        <dc:format>image/svg+xml</dc:format>
        <dc:type
           rdf:resource="http://purl.org/dc/dcmitype/StillImage" />
        <dc:title></dc:title>
      </cc:Work>
    </rdf:RDF>
  </metadata>
  <g
     inkscape:label="Calque 1"
     inkscape:groupmode="layer"
     id="layer1"
     transform="translate(0,103)">
    <g
       id="g883">
      <path
         style="fill:#000000;fill-opacity:1;stroke-width:1.38727081"
         d="m 162.21739,259.14139 c -1.1445,-0.43252 -4.57799,-2.48741 -7.63,-4.5664 -41.22961,-28.0852 -60.855913,-34.20141 -118.264828,-36.85527 -23.846647,-1.10237 -25.156742,-1.88348 -14.561844,-8.68221 15.758158,-10.112 30.551437,-14.50517 54.615981,-16.21943 24.376121,-3.42203 60.854761,10.32822 75.397891,24.2588 19.49652,-11.21461 47.76816,-24.91156 66.62726,-29.81476 12.05422,-3.61672 39.7526,-4.66379 49.94175,-1.88793 8.29889,2.26088 14.56635,5.49917 14.56635,7.52616 0,1.04798 -2.46494,2.18969 -5.89591,2.73087 -10.17108,1.60428 -34.56799,8.97444 -45.99822,13.89578 -19.60113,8.43938 -32.02242,16.9871 -49.87189,34.31943 -9.23276,8.96523 -16.80006,16.25113 -16.81623,16.1909 -0.0162,-0.0602 -0.96582,-0.46341 -2.11031,-0.89594 z m 8.84348,-21.36389 c 9.95519,-10.92422 23.85987,-21.97528 35.96848,-28.58674 14.46313,-7.89708 12.09822,-6.20903 13.38418,-7.22299 1.00667,-0.79374 4.63154,-2.71129 4.63154,-2.71129 1.51216,-0.66807 5.54817,-1.96225 5.54817,-2.80689 0,-0.93406 -5.51249,-0.007 -6.98912,0.62635 -1.33525,0.57221 -6.74568,2.50199 -12.02315,4.28839 -9.06679,3.06902 -24.54445,10.03469 -47.89081,21.55306 l -10.31902,5.09109 -5.35648,-4.58494 c -7.1256,-6.09926 -23.85721,-14.02767 -35.41253,-16.78052 -11.37517,-2.70993 -40.698499,-4.15404 -53.827663,-2.65087 -11.367766,1.30149 -11.196787,1.36736 18.125767,6.98261 32.623366,6.24738 46.689376,11.6737 73.525346,28.36428 6.104,3.79636 11.50186,6.90983 11.99526,6.91879 0.49342,0.008 4.38142,-3.80717 8.64003,-8.48033 z m 39.03534,-47.36236 4.87342,-1.49571 c 3.84885,4.70159 -9.91207,6.43695 -4.87342,1.49571 z"
         id="path887-7"
         inkscape:connector-curvature="0"
         sodipodi:nodetypes="ccssccccscscccccsssccscsscscccccc" />
      <g
         id="g2439"
         transform="translate(-6.08876,6.9899)"
         style="fill:#004900;fill-opacity:1">
        <g
           id="g2503"
           transform="translate(-14.070099,-6.4471533)">
          <path
             style="fill:#004900;fill-opacity:1;stroke-width:1.36114085"
             d="m 119.46641,133.94333 c -6.9562,-11.93041 -3.74177,-7.21629 -6.9562,-11.93041 l -3.90676,-3.35697 C 101.49297,112.54609 85.571649,107.9032 49.64612,101.46313 44.184573,100.48407 39.369506,99.122348 38.94597,98.437055 38.030203,96.955303 45.084938,90.591711 52.957534,85.798168 61.56523,80.557027 83.760447,75.264885 92.895329,76.275545 c 12.740461,1.409584 28.970651,10.39717 34.168151,18.920865 3.37741,5.53884 3.28871,6.30776 -0.72768,6.30776 -2.65198,0 -3.90047,1.26893 -6.0667,6.16607 -2.60274,5.88391 -2.59284,10.16761 0.0235,10.16761 0.66854,0 1.21552,0.63732 1.21552,1.41626 0,2.69314 5.84463,9.30831 9.59747,10.8628 2.73101,1.13122 4.52495,1.15464 6.52324,0.0852 3.8648,-2.06839 7.01868,-1.83531 7.01868,0.51869 0,5.1548 -10.05779,6.44195 -25.1811,3.22252 z m -6.09086,-29.3766 c 0.73042,-2.05872 2.01302,-4.923187 2.85023,-6.365479 1.22428,-2.109129 1.04005,-2.974896 -0.94131,-4.423708 -1.35493,-0.990747 -3.33688,-1.801361 -4.40435,-1.801361 -1.95688,0 -13.174281,10.679958 -12.219861,11.634378 1.03183,1.03183 9.966341,4.59427 11.652131,4.64603 0.95432,0.0293 2.33274,-1.63113 3.06316,-3.68986 z M 95.646439,95.379034 c 0,-7.377274 -0.0583,-7.486275 -4.00309,-7.486275 -5.00774,0 -5.35685,0.697122 -3.87555,7.738835 1.08542,5.159856 2.25192,6.363446 6.85778,7.075826 0.56147,0.0868 1.02086,-3.210935 1.02086,-7.328386 z M 76.569623,95.038749 c -0.03148,-5.653607 -1.791258,-7.728884 -5.067186,-5.975653 -2.411931,1.290824 -2.827005,3.19962 -1.891389,8.697934 0.09554,0.561471 1.704997,1.020856 3.576566,1.020856 2.809827,0 3.399219,-0.652327 3.382009,-3.743137 z m -17.673989,0.340285 c 0,-2.184631 -2.376333,-2.611349 -6.254576,-1.123118 -2.221356,0.852414 -2.204861,0.992598 0.228962,1.946036 4.162765,1.630742 6.025614,1.376332 6.025614,-0.822918 z m 163.350636,12.323046 0.77857,-5.8337 c 0.86725,-6.498136 -0.45869,-25.407745 -2.61934,-37.355104 -3.66705,-20.277157 -15.62139,-33.591134 -41.03517,-45.702327 -9.94282,-4.738353 -14.97255,-8.603983 -14.97255,-11.5072534 0,-2.899234 27.85281,-5.5833261 49.71372,-4.790761 20.51134,0.7436348 29.57644,3.4739036 38.73566,11.6665624 6.99675,6.25839 8.5457,12.015262 6.19516,23.025095 -2.40683,11.273519 -6.07934,17.355532 -17.70321,29.318204 -8.13867,8.375889 -10.24543,11.384704 -10.24543,14.632264 0,2.248509 0.23145,4.0882 0.51435,4.0882 2.54426,0 10.24301,-4.497005 10.98179,-6.414703 0.88913,-2.307923 1.00581,-2.310523 2.27444,-0.05077 1.62657,2.897366 6.48954,3.052849 12.81539,0.409745 2.59615,-1.084748 4.72027,-1.543153 4.72027,-1.018692 0,1.422011 16.60625,8.994283 19.28265,8.792684 1.36988,-0.103174 2.26349,0.75953 2.19207,2.116302 -0.0663,1.25979 2.11867,5.56776 4.85549,9.573284 5.44453,7.96843 6.65553,13.45096 2.59404,11.74381 -15.71333,-6.60466 -39.20132,-9.81027 -50.34404,-6.87087 -10.51186,2.77297 -12.39213,4.22943 -12.86709,9.96687 -0.86515,0.90454 -3.6238,-2.55617 -5.86677,-5.78884 z m 60.57077,-8.847412 c -1.07958,-0.667218 -2.26913,-0.90686 -2.64345,-0.532546 -0.37431,0.374313 0.20273,1.226469 1.28231,1.893688 1.07957,0.66722 2.26913,0.90686 2.64344,0.53254 0.37431,-0.37431 -0.20273,-1.226469 -1.2823,-1.893682 z m -47.07069,0.534942 c 2.74756,-1.054326 2.77713,-5.128221 0.0536,-7.388518 -2.68214,-2.225982 -5.20856,0.0054 -5.46619,4.829151 -0.18181,3.403337 1.33909,4.122497 5.41255,2.559367 z m 19.86645,-4.95865 c 0.0109,-0.935784 0.38792,-3.079581 0.83933,-4.763993 0.72262,-2.696447 0.31361,-3.062566 -3.42144,-3.062566 -3.94078,0 -4.24218,0.338474 -4.24218,4.763992 0,4.17417 0.42131,4.763993 3.40286,4.763993 1.87157,0 3.41121,-0.765641 3.42143,-1.701426 z m 16.43735,-0.487574 c 1.54355,-1.859863 1.42716,-2.473846 -0.77406,-4.083422 -4.49468,-3.286597 -7.51503,-2.40681 -7.51503,2.189 0,3.39214 0.54785,4.083422 3.2362,4.083422 1.77989,0 4.05369,-0.985057 5.05289,-2.189 z M 239.47025,59.72187 c 7.22728,-7.65359 13.40169,-17.762359 13.40169,-21.941311 0,-2.731803 -0.28032,-2.837667 -3.28743,-1.241554 -1.80808,0.959693 -5.54427,5.11372 -8.30262,9.231171 -2.75835,4.117451 -6.43741,8.711301 -8.17566,10.208556 -2.3691,2.040609 -2.97704,3.659577 -2.42784,6.465419 0.40295,2.058726 1.17228,3.743137 1.70962,3.743137 0.53732,0 3.72434,-2.909438 7.08224,-6.465418 z m 8.29741,-27.662997 c 3.33957,-1.182999 5.10428,-2.655657 5.10428,-4.259561 0,-2.547185 -10.48984,-13.335375 -12.96658,-13.335375 -0.77641,0 -2.19027,2.637005 -3.14191,5.860013 -0.95164,3.223005 -3.99654,8.888754 -6.76644,12.590552 -3.13739,4.192906 -4.87069,7.88565 -4.59722,9.794222 0.42053,2.935073 0.7921,2.813798 8.85128,-2.889024 4.62677,-3.273989 10.70924,-6.76636 13.51659,-7.760827 z M 226.51097,18.029796 c 2.52049,-2.904857 4.58271,-5.742858 4.58271,-6.306668 0,-1.61541 -4.24912,-2.2653522 -10.6364,-1.626933 -4.21872,0.421669 -5.67388,1.104309 -5.16742,2.424131 0.38775,1.010447 -0.13421,5.0723 -1.15986,9.026339 -2.297,8.855211 -0.36898,11.186416 4.55441,5.506793 1.78411,-2.058158 5.30606,-6.118805 7.82656,-9.023662 z m -24.14931,0.177279 c 3.34679,-8.946293 3.31935,-9.1877009 -1.04417,-9.1877009 -4.32394,0 -8.33575,4.0307169 -8.33575,8.3750379 0,2.031597 1.17182,2.633834 7.17968,3.689867 0.57999,0.101949 1.57011,-1.192793 2.20024,-2.877204 z m -13.46334,-5.784849 c 0,-2.7786151 -1.79572,-3.4163569 -6.24176,-2.216762 l -3.9668,1.07029 4.07815,2.147944 c 4.36601,2.299559 6.13041,2.011326 6.13041,-1.001472 z M 173.55713,8.1970178 c -0.45231,-0.4522949 -1.62629,-0.5006521 -2.60886,-0.1074621 -1.08582,0.4345116 -0.7633,0.7570434 0.82236,0.8223564 1.43486,0.059101 2.23879,-0.2626022 1.7865,-0.7148984 z m 6.69736,57.0680082 C 177.1148,62.125337 140.79182,60.904175 117.87378,63.167793 97.357697,65.194178 88.21532,64.946369 84.10386,62.25244 79.372863,59.152578 79.489194,57.828514 84.948936,52.63402 104.35276,34.172859 126.7323,24.371639 135.60604,30.44852 c 1.47667,1.01125 4.29778,2.230002 6.26912,2.70834 5.96422,1.447188 11.61685,7.805339 12.71433,14.301236 1.01704,6.019831 3.97447,8.374605 10.51787,8.374605 2.65711,0 2.61287,-0.206417 -0.76918,-3.588463 -3.86602,-3.866022 -4.35338,-5.306119 -2.2381,-6.61343 1.86836,-1.154711 3.90958,0.176113 14.13933,9.218496 5.77825,5.107558 8.62708,8.566544 8.12756,9.868271 -0.91169,2.37583 -2.12287,2.537057 -4.11248,0.547451 z M 99.182498,54.47156 c -0.935051,-1.497255 -2.070336,-2.722282 -2.522855,-2.722282 -0.45252,0 -1.931398,1.225027 -3.286395,2.722282 -2.421034,2.675213 -2.377413,2.722282 2.522856,2.722282 4.645756,0 4.870316,-0.186014 3.286394,-2.722282 z m 19.971732,-1.701426 c 0.35846,-1.684412 0.90229,-5.665749 1.20851,-8.847415 0.509,-5.28859 0.28851,-5.784849 -2.5703,-5.784849 -4.89732,0 -7.70724,3.674371 -6.63449,8.67552 1.90192,8.866632 6.62783,12.387154 7.99628,5.956744 z m 22.01031,0.659731 c 0.83188,-0.550011 1.92416,-3.795048 2.42728,-7.211198 0.82881,-5.627591 0.60759,-6.375577 -2.35446,-7.960819 -6.36916,-3.408672 -8.34815,-1.671763 -8.79626,7.720252 l -0.40524,8.49346 3.80809,-0.02082 c 2.09445,-0.01089 4.48872,-0.470846 5.32059,-1.020856 z m 40.84344,-4.959064 c -8.13582,-8.772654 -10.1255,-10.157014 -18.45297,-12.839054 -5.13363,-1.653398 -10.05932,-3.880283 -10.94597,-4.948633 -2.38505,-2.873805 -1.11373,-6.775188 2.36974,-7.272176 1.67676,-0.239225 3.04866,-0.742668 3.04866,-1.118763 0,-2.223774 -7.37959,-12.7382618 -8.94034,-12.7382618 -2.62339,0 -14.19905,5.7554938 -14.19905,7.0598578 0,0.59006 2.60318,2.764933 5.78484,4.833049 l 5.78485,3.760213 -4.76399,0.452806 c -7.38779,0.702194 -14.04653,-1.966297 -19.43263,-7.787624 -11.31652,-12.2309759 -18.29541,-29.130388 -16.89899,-40.920984 0.87532,-7.390703 8.3304,-24.175288 14.38501,-32.386841 5.44028,-7.378366 14.49912,-13.956644 19.21947,-13.956644 h 3.67011 l -5.35499,5.784849 -5.35499,5.784848 5.19761,0.441177 c 3.96306,0.336387 5.74062,-0.229397 7.48369,-2.381996 1.25733,-1.552746 2.59257,-2.823174 2.96718,-2.823174 0.37461,0 0.63291,7.809546 0.57399,17.354546 -0.12562,20.349579 2.78784,36.6615406 8.56967,47.9802132 3.69223,7.2279939 8.45593,13.7485388 24.51627,33.5578718 7.03996,8.683316 13.5431,18.230229 13.5431,19.881946 0,0.393002 -0.82152,1.029812 -1.82559,1.41511 -1.06761,0.409676 -5.61176,-3.382 -10.94468,-9.132336 z M 137.61033,4.2364561 c 6.43362,-2.1643895 7.4343,-2.9605943 7.11664,-5.6624411 -0.44881,-3.8173289 -1.49559,-5.0512017 -2.76694,-3.2614744 -1.37369,1.9337795 -13.91186,6.089141 -18.34929,6.08126 -3.36988,-0.00599 -3.62918,0.2956847 -2.3341,2.7155494 1.82989,3.419183 6.44136,3.4550681 16.33369,0.1271033 z M 122.63778,-10.020406 c 3.36882,-1.017513 8.04546,-1.5642 10.39253,-1.214862 5.65076,0.841064 9.98705,-1.519157 9.09042,-4.947874 -0.73102,-2.795422 -4.47361,-2.794973 -15.39953,0.0018 -2.6202,0.67072 -6.4484,1.222906 -8.50713,1.227081 -3.08323,0.0063 -3.74314,0.607508 -3.74314,3.410443 0,3.9471719 0.0878,3.9635464 8.16685,1.523363 z m -4.37347,-16.069755 c 1.86106,-1.861061 15.82764,-2.323748 20.36687,-0.674718 2.19176,0.796229 3.05664,0.602717 3.04173,-0.68057 -0.0468,-4.024958 -2.3862,-4.914435 -14.17138,-5.388161 l -12.15052,-0.488412 -0.97986,3.657026 c -1.34998,5.038341 0.62039,6.847604 3.89316,3.574835 z m 24.52469,-21.126953 0.41468,-4.162683 -6.53981,0.712576 c -8.56656,0.933409 -12.19933,2.362162 -13.85046,5.447333 -1.26464,2.362999 -0.68243,2.512945 9.10494,2.34494 l 10.45597,-0.179483 z"
             id="path2507"
             inkscape:connector-curvature="0"
             sodipodi:nodetypes="cccccsscscssccsccsccsscsssccssccssscsscscsssssssscccsccsccccscccscccccccsssccsssccsssccscssssccsscsscccccssccsscssccsccsssscccssccsssssssssscscssscccccscssssscssssscccscsscsscccsccccccssccsccsccsccsccscscc" />
          <path
             style="fill:#b93c3c;fill-opacity:1;stroke-width:1.36114085"
             d="m 136.62232,122.79434 c -10.07167,-5.10742 -12.18113,-13.54352 -5.14578,-20.57888 3.76142,-3.761419 4.77118,-4.085819 10.88835,-3.498039 7.26541,0.69812 8.54791,-0.0808 9.97525,-6.05908 1.05304,-4.41043 5.10366,-6.85711 11.66629,-7.04673 4.43117,-0.12808 4.85592,-0.51651 5.60433,-5.125651 1.73309,-10.673522 8.07645,-15.529433 18.28633,-13.998366 9.28158,1.391862 9.65283,1.970239 6.89429,10.74038 -3.37748,10.737897 -5.30416,12.300607 -16.41795,13.316427 -3.53301,0.32293 -4.02733,0.85564 -3.66724,3.95223 0.6692,5.754719 -4.70628,10.840549 -12.37108,11.704479 -5.72406,0.64518 -6.4205,1.08819 -6.4205,4.08409 0,5.20315 -4.14621,12.7105 -7.78362,14.09344 -4.27156,1.62404 -5.52117,1.45203 -11.50867,-1.5843 z M 299.19158,80.649333 c -1.19765,-1.32341 -2.51687,-4.33216 -2.93158,-6.6861 -0.63171,-3.585681 -0.075,-4.851284 3.43218,-7.802372 5.03266,-4.234688 7.18854,-4.394677 10.78304,-0.800174 3.28604,3.286037 3.57949,10.420686 0.60341,14.669676 -2.5912,3.69944 -8.80637,4.02306 -11.88705,0.61897 z M 263.88782,64.339831 c -6.96277,-7.929192 -0.1869,-20.751419 9.08568,-17.193193 5.74648,2.20513 5.57251,12.28172 -0.29168,16.894489 -4.19837,3.302442 -6.09965,3.367027 -8.794,0.298704 z m 22.67243,-7.797826 c -3.26541,-3.265406 -3.45485,-5.160579 -1.24775,-12.482277 0.25938,-0.86043 2.7249,-2.308074 5.47894,-3.216989 4.50739,-1.487573 5.29138,-1.368529 7.85223,1.192318 3.94109,3.94109 3.62542,11.585638 -0.62466,15.126824 -4.30222,3.584634 -7.42307,3.415798 -11.45876,-0.619876 z M 65.46986,54.748402 c -5.42855,-0.837607 -8.16685,-4.195831 -8.16685,-10.015788 0,-6.75177 3.75373,-10.678166 10.20856,-10.678166 6.45484,0 10.20856,3.926396 10.20856,10.678166 0,7.282116 -4.75754,11.171859 -12.25027,10.015788 z M 39.09005,37.746495 C 35.2672,34.948023 34.23293,22.031697 37.63263,19.545778 c 6.36257,-4.652428 15.58696,0.953029 15.58696,9.471845 0,7.395575 -8.65058,12.739685 -14.12954,8.728872 z m 234.80911,-2.800919 c -2.59278,-3.124121 -3.20648,-9.549133 -1.17397,-12.290682 2.39082,-3.224842 8.4405,-3.290401 11.93346,-0.129323 3.5654,3.226641 3.37505,6.294927 -0.66068,10.649551 -3.64097,3.92867 -7.71489,4.642884 -10.09881,1.770456 z m 25.78573,-1.755262 c -3.42974,-4.360206 -3.5153,-6.388031 -0.48589,-11.516408 2.87583,-4.868375 9.75603,-5.473343 13.99849,-1.230868 3.24083,3.240813 3.40236,5.625796 0.73094,10.791778 -3.40432,6.583224 -9.90172,7.475251 -14.24354,1.955498 z M 87.55098,33.2967 c -4.61567,-3.232936 -4.28934,-13.022794 0.56127,-16.838284 5.31029,-4.177075 9.56392,-3.642918 12.76219,1.602634 4.297,7.04759 3.10726,12.162242 -3.66857,15.771072 -3.9651,2.111824 -6.03967,1.996776 -9.65489,-0.535422 z M 62.14419,25.584739 c -4.20458,-6.002883 -1.52742,-15.346524 4.795,-16.73516 5.01125,-1.100654 8.64026,0.980847 10.79982,6.194475 1.49073,3.598955 1.42005,4.932032 -0.47187,8.899432 -1.98094,4.154072 -2.81696,4.666398 -7.61465,4.666398 -4.02624,0 -5.92535,-0.765159 -7.5083,-3.025145 z M 279.94678,10.137258 c -2.88806,-2.888059 -2.70358,-9.17842 0.35023,-11.942083 5.21719,-4.721489 12.48338,-1.345231 12.48338,5.800437 0,6.952345 -8.13151,10.843752 -12.83361,6.141646 z M 46.80697,8.464512 C 44.76942,7.169638 40.96932,-1.702002 40.96932,-5.163959 c 0,-3.372117 3.74293,-6.540611 9.06005,-7.669577 3.42669,-0.727581 4.87276,-0.293137 7.14599,2.146882 6.37082,6.838275 1.04099,20.231248 -8.03919,20.201138 -0.37431,-0.0013 -1.42246,-0.473728 -2.3292,-1.049972 z M 70.33108,-6.196432 c -6.48958,-6.489581 2.75047,-26.445022 12.24495,-26.445022 5.02545,0 7.78326,4.597535 7.78326,12.975437 0,6.452558 -0.56746,8.159668 -3.85195,11.587943 -4.41391,4.607129 -12.50913,5.548775 -16.17626,1.881642 z"
             id="path2507-3"
             inkscape:connector-curvature="0"
             sodipodi:nodetypes="cscccssccsssccsssccscssccsssccssscscsscccscccssscsssssscsssscsscsssscsssssss" />
        </g>
      </g>
      <path
         style="fill:#000000;fill-opacity:1;stroke-width:1.38727081"
         d="m 222.30078,114.03906 c -28.6157,3.14504 -54.44653,16.73908 -81.10122,26.56095 -5.08727,1.81058 -10.68065,-0.11695 -15.9889,0.027 -16.41175,-0.98196 -32.819754,-2.39694 -49.218472,-3.33992 -3.356276,0.9175 -2.325474,5.53018 -0.830079,7.68555 0.619783,1.58756 2.73957,4.67418 4.400391,3.01562 0.679906,-1.60554 0.474196,-4.68841 3.136719,-3.79687 13.43108,0.74024 26.232111,6.68364 39.840611,5.47679 11.30691,-0.29246 23.24536,-0.91924 33.17701,-6.92332 13.35788,-6.22216 27.25014,-11.27521 40.67345,-17.32565 7.79509,-2.26534 15.63772,-5.31364 23.74252,-5.87626 2.02151,1.16465 4.38275,4.77918 6.90625,2.37695 2.16385,-3.23296 -0.87907,-8.26194 -4.73828,-7.88086 z m -1.89453,15.24024 c -20.42324,3.39513 -39.38364,12.2363 -58.50466,19.79246 -6.22794,2.37125 -12.23817,5.61167 -18.48948,7.72121 -1.42551,-0.6224 -2.87136,-2.68184 -4.57031,-1.26367 -1.90894,1.13734 -0.53212,4.45908 -3.25977,4.55078 -6.45412,-0.24338 -12.59232,-2.91843 -19.06594,-3.38243 -9.67161,-1.14957 -19.300219,-2.08529 -28.779762,-4.33632 -2.355235,-0.2054 -6.588538,-1.00405 -6.77539,2.36719 0.575202,9.59814 3.316411,19.04451 6.696506,28.03155 1.732905,3.14477 2.229841,8.4496 6.559353,9.02118 2.546889,0.15888 2.656043,-2.93218 1.783203,-4.64063 -0.58681,-1.79137 -2.408958,-6.02819 0.912109,-6.08398 4.550441,0.28347 6.683681,6.13726 4.794921,9.86328 -0.53457,1.85306 1.99328,2.99001 2.83203,1.07227 3.19489,-3.1079 7.75187,-0.14729 10.32486,2.35021 2.02733,1.8501 5.23896,4.97321 8.09116,3.01893 1.79419,-1.50065 -0.27229,-5.75286 3.01758,-5.38477 5.13222,0.0684 8.68494,5.57627 13.73242,5.35156 2.03115,-2.09444 -1.08869,-4.62975 -2.61524,-5.92382 -2.10347,-1.81369 -4.87979,-2.99452 -6.29296,-5.50196 0.8215,-2.45527 1.93073,-5.95816 4.79492,-6.44922 4.45313,1.82032 3.94791,7.70425 4.94836,11.6169 1.02495,6.68592 0.0526,14.17997 3.54382,20.21709 1.13378,1.33771 3.70682,3.43934 5.03711,2.11719 1.12313,-7.3189 -1.70555,-14.78953 -0.0781,-21.96875 1.38379,-0.97511 3.26059,1.56509 4.57422,2.1289 3.38849,2.9865 6.68935,6.65737 7.74219,11.11914 0.19065,1.96197 -1.13021,6.21772 1.95507,6.24805 2.8351,-0.55743 5.26662,-2.40084 7.86328,-3.61328 2.06367,-1.05995 1.91425,-3.62733 0.47657,-5.11524 -1.54343,-3.91671 0.47121,-8.54696 2.93359,-11.54687 2.58478,0.25811 4.59098,2.62385 6.75781,3.95703 2.44012,2.38454 6.15365,4.98188 9.57813,2.85156 2.90297,-1.17637 4.98681,-3.67484 7.41406,-5.4414 1.65538,-0.0242 5.01423,-0.1314 4.29102,-2.67383 -2.17238,-3.0207 -1.61984,-8.29461 1.9375,-9.86719 5.11331,0.37221 7.50936,7.79969 13.04687,6.39063 4.42174,-2.52401 3.75264,-8.52593 4.56265,-12.83848 0.73811,-12.31324 3.15021,-24.5675 2.52334,-36.93366 0.17583,-1.78893 1.82319,-4.24869 -0.25982,-5.77083 -1.16368,-0.76016 -2.64367,-1.14027 -4.0332,-1.05078 z m -5.47461,4.33593 c 2.03246,0.52962 5.51152,2.07587 3.80227,4.60188 -1.06,2.59814 -1.70747,6.62846 -4.61086,7.65008 -1.9064,-1.31424 -3.55055,-3.04086 -5.43946,-4.36719 -1.85039,-1.82793 -0.48514,-4.68354 1.98592,-4.67032 1.79712,-0.45591 3.53988,-1.58877 4.26213,-3.21445 z m -20.66602,10.375 c 1.68906,0.0871 1.30449,1.92444 -0.27929,1.39258 -1.60006,0.0311 -1.71326,-1.0562 0.27929,-1.39258 z m 10.81836,1.36329 c 3.37894,0.0615 5.71514,3.36942 8.06641,5.08398 -1.89604,2.67779 -2.25833,6.95317 -5.51172,8.34375 -2.48911,-1.51077 -4.51646,-3.79355 -6.85937,-5.56641 -1.49254,-1.18016 -2.60414,-3.12858 -0.82032,-4.60546 1.18058,-1.69668 2.92389,-3.32208 5.125,-3.25586 z m -20.93554,0.92382 c 2.35987,1.74844 5.84026,3.13646 7.07812,5.78516 -0.83666,2.32665 -2.98247,4.44459 -5.17383,5.37305 -2.5806,-0.75591 -4.26482,-3.29303 -6.32226,-4.9336 -2.1144,-1.7589 -0.1306,-3.60837 1.73047,-4.20312 0.98787,-0.52068 1.88664,-1.42587 2.6875,-2.02149 z m -18.34766,8.11524 c 2.12846,0.30524 -0.36278,3.59362 -1.11523,1.26172 -0.13008,-0.64314 0.41906,-1.39123 1.11523,-1.26172 z m 8.37695,1.66601 c 3.50248,1.6558 7.08583,4.11986 9.03711,7.42579 -1.09752,2.42559 -4.44994,5.21598 -6.68924,2.36653 -2.04144,-1.91466 -6.67294,-3.03558 -5.28537,-6.67318 0.25233,-1.13848 1.34435,-3.88704 2.9375,-3.11914 z m 20.44922,-0.0898 c 3.92417,1.68243 8.49934,4.4418 9.44532,8.89648 0.0408,2.32505 -2.73157,5.06089 -4.81266,2.95788 -3.00501,-1.54634 -7.64323,-3.81382 -6.50766,-7.83873 0.21333,-1.42103 0.57989,-3.27132 1.875,-4.01563 z m -109.267575,0.21289 c 3.261189,1.67056 8.528511,0.68023 9.898437,4.87891 1.975507,2.43903 2.619695,6.10792 0.04297,8.41211 -1.357955,1.20618 -2.803321,4.23219 -4.170813,1.46788 -3.492665,-3.43157 -6.033204,-8.08069 -5.608484,-13.07921 -0.02693,-0.46861 -0.40993,-1.39617 -0.162109,-1.67969 z m 69.748045,2.89844 c 2.43708,0.20382 5.73635,0.71847 7.08985,2.86133 -0.87917,2.20473 -2.49762,5.23449 -5.01172,5.30859 -2.68926,-1.56626 -5.55303,-4.02918 -6.24024,-7.04883 0.97513,-1.15043 2.78827,-1.08416 4.16211,-1.12109 z m -47.67383,1.05859 c 2.34599,0.72068 6.87667,0.0964 7.20313,3.33399 -0.57543,2.26554 -1.70531,5.11864 -3.46094,6.33593 -3.02997,-1.84869 -8.02107,-5.70344 -4.56836,-9.47851 0.24127,-0.16138 0.53949,-0.22122 0.82617,-0.19141 z m 107.83399,0.16406 c 1.28311,0.18454 3.7249,-0.23414 2.3164,1.86133 -0.38818,1.75055 -2.02876,4.33949 -4.00195,3.54297 -0.481,-1.67818 0.0168,-4.59568 1.58789,-5.42773 z m -80.79102,4.58008 c 2.42272,-0.44484 5.29849,2.9195 2.5,4.46485 -2.25293,0.56932 -3.89425,-2.31486 -4.92383,-3.83204 0.59623,-0.63869 1.62089,-0.58725 2.42383,-0.63281 z m -13.74804,0.71289 c 4.07622,2.25183 8.00847,5.70552 9.80664,9.99024 -0.39522,3.33091 -4.6449,7.39142 -7.73438,4.27148 -2.41742,-1.74515 -5.06228,-4.00305 -6.93359,-5.95312 1.51976,-2.80184 2.28019,-6.22554 4.86133,-8.3086 z m 45.88867,1.82422 c 3.84516,0.40682 7.73444,2.46988 9.58789,5.9668 -0.79947,2.07513 -1.87088,5.9516 -4.5957,5.70898 -3.72134,-1.6978 -7.09246,-4.63627 -9.10157,-8.13867 -0.2105,-2.11608 2.21366,-3.65489 4.10938,-3.53711 z m -19.64258,0.32031 c 3.6496,1.26687 8.72152,4.92478 6.36523,9.3086 -0.81765,1.68737 -2.42786,4.24114 -4.45507,4.00781 -3.2708,-2.65891 -2.75958,-7.55828 -3.31641,-11.35937 -0.0779,-0.78852 0.16947,-2.6727 1.40625,-1.95704 z m 41.86914,0.17969 c 4.12287,1.80083 9.10886,4.96117 9.56836,9.80664 -1.2813,3.13948 -5.76822,2.31478 -7.33399,-0.1582 -2.11541,-1.78071 -4.54129,-3.14341 -6.65039,-4.93164 0.74607,-1.65241 2.10242,-5.43131 4.41602,-4.7168 z m -85.98242,2.0918 c 2.73056,1.11698 6.7075,3.59327 4.67187,6.9668 -0.41317,1.68917 -2.10321,3.78714 -3.75,1.95312 -1.66412,-1.12217 -3.47053,-2.37821 -5.054684,-3.43945 0.311856,-1.97657 1.615384,-6.18148 4.132814,-5.48047 z m 106.74023,0.11914 c 3.99576,0.10687 8.8123,4.80617 6.16211,8.74219 -2.68559,2.48465 -4.73666,-1.043 -6.33203,-2.87891 -1.35464,-1.40761 -3.04268,-5.59449 0.16992,-5.86328 z m -27.58008,8.06836 c 4.28819,1.63776 7.77196,4.96038 10.62891,8.4082 0.4346,2.06802 -1.06059,5.36585 -3.33008,5.43555 -3.7198,-0.61093 -6.50143,-3.66143 -9.44922,-5.74609 -2.32487,-2.44848 -0.75393,-6.54934 1.75586,-8.08594 l 0.19727,-0.0215 z m -22.01171,0.35156 c 3.87317,1.16117 7.88685,3.75254 9.15625,7.67578 0.10564,3.23742 -1.94817,6.87785 -4.31446,8.78125 -3.22955,-1.84879 -6.00928,-4.57871 -8.67773,-7.17383 -2.33013,-2.72781 0.0379,-6.73995 2.14453,-8.85156 0.49474,-0.33266 1.09841,-0.48267 1.69141,-0.43164 z m -44.36524,1.50781 c 2.36855,2.02316 5.86996,4.29599 5.89649,7.66797 -0.47426,1.43266 -1.4829,4.29516 -3.15242,2.22491 -2.74297,-1.82763 -5.67581,-3.78657 -7.6679,-6.36749 0.9311,-1.725 2.31288,-3.27047 4.08985,-4.14257 l 0.42535,0.31478 z"
         id="path885"
         inkscape:connector-curvature="0" />
    </g>
  </g>
</svg>
